{"glyphs":{"0":{"ha":619,"x_min":82,"x_max":538,"o":"m 439 725 q 310 858 439 858 q 181 725 181 858 l 181 208 q 310 75 181 75 q 439 208 439 75 l 439 725 m 82 726 q 138 887 82 826 q 309 947 193 947 q 481 887 425 947 q 538 726 538 826 l 538 206 q 481 46 538 106 q 309 -14 425 -14 q 138 46 193 -14 q 82 206 82 106 l 82 726 z "},"1":{"ha":386,"x_min":15,"x_max":290,"o":"m 290 933 l 290 0 l 190 0 l 190 832 l 15 704 l 15 815 l 178 933 l 290 933 z "},"2":{"ha":557,"x_min":60,"x_max":494,"o":"m 246 940 q 492 743 492 940 l 492 663 q 467 538 490 585 q 383 450 443 490 l 276 374 q 183 293 207 326 q 160 197 160 260 l 160 92 l 494 92 l 494 0 l 60 0 l 60 201 q 96 340 60 289 q 208 442 132 390 l 319 521 q 378 582 363 549 q 393 671 393 615 l 393 738 q 363 821 393 793 q 241 849 332 849 q 75 819 150 849 l 75 915 q 246 940 147 940 z "},"3":{"ha":546,"x_min":36,"x_max":464,"o":"m 214 940 q 458 740 458 940 l 458 644 q 357 469 458 510 q 464 301 464 433 l 464 194 q 402 46 464 99 q 224 -7 340 -7 q 36 18 108 -7 l 36 115 q 208 83 118 83 q 331 113 297 83 q 365 199 365 142 l 365 292 q 235 422 365 422 l 139 422 l 139 513 l 235 513 q 332 547 304 513 q 360 646 360 581 l 360 735 q 328 820 360 790 q 207 850 296 850 q 54 826 118 850 l 54 921 q 214 940 117 940 z "},"4":{"ha":563,"x_min":14,"x_max":556,"o":"m 556 263 l 556 175 l 461 175 l 461 0 l 365 0 l 365 175 l 14 175 l 14 264 l 310 933 l 461 933 l 461 263 l 556 263 m 367 263 l 367 851 l 107 263 l 367 263 z "},"5":{"ha":582,"x_min":79,"x_max":508,"o":"m 86 933 l 486 933 l 486 842 l 183 842 l 183 547 q 299 554 236 554 q 508 346 508 554 l 508 193 q 446 46 508 99 q 257 -7 383 -7 q 79 21 168 -7 l 79 118 q 256 83 172 83 q 375 113 340 83 q 410 199 410 143 l 410 339 q 383 433 410 403 q 283 463 356 463 q 86 447 250 463 l 86 933 z "},"6":{"ha":601,"x_min":82,"x_max":538,"o":"m 439 379 q 318 494 439 494 q 181 461 239 494 l 181 207 q 310 74 181 74 q 439 207 439 74 l 439 379 m 82 721 q 142 880 82 819 q 317 940 203 940 q 504 915 432 940 l 504 821 q 332 849 432 849 q 181 715 181 849 l 181 553 q 335 583 242 583 q 483 532 428 583 q 538 383 538 481 l 538 206 q 481 46 538 106 q 309 -14 425 -14 q 138 46 193 -14 q 82 206 82 106 l 82 721 z "},"7":{"ha":457,"x_min":7,"x_max":424,"o":"m 7 933 l 424 933 l 424 854 l 332 564 q 272 339 290 429 q 254 136 254 249 l 254 0 l 154 0 l 154 140 q 173 347 154 254 q 233 571 192 439 l 319 843 l 7 843 l 7 933 z "},"8":{"ha":632,"x_min":82,"x_max":551,"o":"m 547 732 l 547 640 q 449 465 547 510 q 551 289 551 418 l 551 200 q 492 44 551 103 q 316 -14 433 -14 q 140 44 199 -14 q 82 200 82 101 l 82 289 q 183 465 82 418 q 85 640 85 510 l 85 732 q 142 889 85 831 q 317 947 200 947 q 490 889 433 947 q 547 732 547 831 m 183 732 l 183 639 q 317 506 183 506 q 450 639 450 506 l 450 732 q 317 860 450 860 q 183 732 183 860 m 453 201 l 453 290 q 316 424 453 424 q 179 290 179 424 l 179 201 q 316 74 179 74 q 453 201 453 74 z "},"9":{"ha":601,"x_min":64,"x_max":519,"o":"m 421 726 q 292 858 421 858 q 163 726 163 858 l 163 550 q 286 428 163 428 q 421 460 374 428 l 421 726 m 64 726 q 120 887 64 826 q 292 947 176 947 q 464 887 408 947 q 519 726 519 826 l 519 206 q 458 51 519 108 q 269 -7 396 -7 q 90 19 176 -7 l 90 115 q 268 83 175 83 q 421 211 421 83 l 421 368 q 271 339 367 339 q 119 393 175 339 q 64 544 64 447 l 64 726 z "},"\u0000":{"ha":0,"x_min":0,"x_max":0,"o":""},"\r":{"ha":0,"x_min":0,"x_max":0,"o":""}," ":{"ha":263,"x_min":0,"x_max":0,"o":""},"!":{"ha":344,"x_min":111,"x_max":232,"o":"m 172 -8 q 141 -8 172 -8 q 111 55 111 -8 q 172 118 111 118 q 232 55 232 118 q 172 -8 232 -8 m 118 933 l 225 933 l 213 239 l 131 239 l 118 933 z "},"\"":{"ha":483,"x_min":113,"x_max":369,"o":"m 113 1035 l 200 1035 l 200 753 l 113 753 l 113 1035 m 282 1035 l 369 1035 l 369 753 l 282 753 l 282 1035 z "},"#":{"ha":738,"x_min":51,"x_max":703,"o":"m 703 600 l 585 600 l 542 308 l 649 308 l 649 233 l 531 233 l 497 0 l 413 0 l 446 233 l 247 233 l 214 0 l 128 0 l 161 233 l 51 233 l 51 308 l 172 308 l 215 600 l 106 600 l 106 675 l 226 675 l 260 908 l 346 908 l 313 675 l 511 675 l 544 908 l 629 908 l 596 675 l 703 675 l 703 600 m 457 308 l 500 600 l 301 600 l 258 308 l 457 308 z "},"$":{"ha":539,"x_min":39,"x_max":494,"o":"m 494 269 l 494 194 q 300 -3 494 24 l 300 -103 l 208 -103 l 208 -7 q 46 21 106 -3 l 46 115 q 232 85 128 85 q 396 200 396 85 l 396 258 q 379 331 396 304 q 319 381 363 357 l 160 468 q 39 663 39 533 l 39 744 q 222 936 39 911 l 222 1022 l 313 1022 l 313 939 q 458 917 400 935 l 458 822 q 282 849 386 849 q 139 740 139 849 l 139 674 q 158 597 139 625 q 221 544 176 569 l 382 454 q 494 269 494 393 z "},"%":{"ha":788,"x_min":49,"x_max":739,"o":"m 469 40 q 450 66 469 40 q 431 186 431 92 q 469 332 431 281 q 585 383 508 383 q 700 332 661 383 q 739 186 739 281 q 700 40 739 92 q 585 -12 661 -12 q 469 40 508 -12 m 510 185 q 510 123 510 185 q 585 61 510 61 q 660 185 660 61 q 585 310 660 310 q 510 185 510 310 m 88 601 q 68 627 88 601 q 49 747 49 653 q 88 894 49 842 q 203 946 126 946 q 318 894 279 946 q 357 747 357 842 q 318 601 357 653 q 203 549 279 549 q 88 601 126 549 m 202 622 q 239 622 202 622 q 276 747 276 622 q 202 872 276 872 q 128 747 128 872 q 202 622 128 622 m 543 933 l 619 933 l 244 0 l 169 0 l 543 933 z "},"&":{"ha":635,"x_min":74,"x_max":614,"o":"m 614 524 l 614 436 l 556 436 l 556 207 q 494 48 556 108 q 317 -12 433 -12 q 137 49 200 -12 q 74 207 74 110 l 74 307 q 182 481 74 442 q 75 656 75 519 l 75 732 q 140 884 75 828 q 338 940 204 940 q 513 915 435 940 l 513 819 q 339 847 432 847 q 210 816 246 847 q 174 726 174 785 l 174 657 q 297 524 174 524 l 460 524 l 460 604 l 556 604 l 556 524 l 614 524 m 460 208 l 460 436 l 299 436 q 172 304 172 436 l 172 208 q 208 111 172 147 q 317 75 244 75 q 424 111 389 75 q 460 208 460 147 z "},"'":{"ha":313,"x_min":113,"x_max":200,"o":"m 113 1035 l 200 1035 l 200 753 l 113 753 l 113 1035 z "},"(":{"ha":394,"x_min":96,"x_max":314,"o":"m 314 1086 q 217 776 253 944 q 182 452 182 608 q 217 126 182 296 q 314 -183 253 -43 l 226 -183 q 131 118 165 -56 q 96 452 96 292 q 131 785 96 613 q 226 1086 165 957 l 314 1086 z "},")":{"ha":394,"x_min":81,"x_max":299,"o":"m 168 1086 q 264 785 229 957 q 299 452 299 613 q 264 118 299 292 q 168 -183 229 -56 l 81 -183 q 177 126 142 -43 q 213 452 213 296 q 177 776 213 608 q 81 1086 142 944 l 168 1086 z "},"*":{"ha":688,"x_min":85,"x_max":608,"o":"m 303 950 l 303 1090 l 389 1090 l 389 950 q 376 872 389 904 q 447 907 404 893 l 582 951 l 608 869 l 475 826 q 396 813 432 813 q 451 757 422 796 l 535 643 l 465 593 l 383 706 q 346 775 356 742 q 310 707 336 742 l 228 593 l 158 643 l 240 756 q 297 813 269 796 q 218 826 260 813 l 85 869 l 110 950 l 243 907 q 314 872 286 893 q 303 950 303 908 z "},"+":{"ha":610,"x_min":57,"x_max":553,"o":"m 553 492 l 553 410 l 350 410 l 350 203 l 260 203 l 260 410 l 57 410 l 57 492 l 260 492 l 260 699 l 350 699 l 350 492 l 553 492 z "},",":{"ha":203,"x_min":8,"x_max":164,"o":"m 115 118 q 164 72 164 118 q 67 -175 164 11 l 8 -175 l 67 118 l 115 118 z "},"-":{"ha":317,"x_min":56,"x_max":268,"o":"m 56 492 l 268 492 l 268 410 l 56 410 l 56 492 z "},".":{"ha":210,"x_min":44,"x_max":165,"o":"m 105 -8 q 75 -8 105 -8 q 44 55 44 -8 q 105 118 44 118 q 165 55 165 118 q 105 -8 165 -8 z "},"/":{"ha":525,"x_min":44,"x_max":501,"o":"m 415 1086 l 501 1086 l 132 -183 l 44 -183 l 415 1086 z "},":":{"ha":281,"x_min":44,"x_max":165,"o":"m 105 -8 q 75 -8 105 -8 q 44 55 44 -8 q 105 118 44 118 q 165 55 165 118 q 105 -8 165 -8 m 105 478 q 75 478 105 478 q 44 542 44 478 q 105 606 44 606 q 165 542 165 606 q 105 478 165 478 z "},";":{"ha":278,"x_min":8,"x_max":165,"o":"m 105 478 q 75 478 105 478 q 44 542 44 478 q 105 606 44 606 q 165 542 165 606 q 105 478 165 478 m 115 118 q 164 72 164 118 q 67 -175 164 11 l 8 -175 l 67 118 l 115 118 z "},"<":{"ha":639,"x_min":58,"x_max":557,"o":"m 557 697 l 557 608 l 136 450 l 557 293 l 557 204 l 58 397 l 58 503 l 557 697 z "},"=":{"ha":607,"x_min":54,"x_max":551,"o":"m 54 367 l 551 367 l 551 285 l 54 285 l 54 367 m 54 615 l 551 615 l 551 533 l 54 533 l 54 615 z "},">":{"ha":638,"x_min":78,"x_max":576,"o":"m 78 697 l 576 503 l 576 397 l 78 204 l 78 293 l 499 450 l 78 608 l 78 697 z "},"?":{"ha":526,"x_min":49,"x_max":458,"o":"m 198 -8 q 168 -8 198 -8 q 138 55 138 -8 q 198 118 138 118 q 258 55 258 118 q 198 -8 258 -8 m 211 947 q 458 751 458 947 l 458 614 q 247 400 458 406 l 240 239 l 156 239 l 150 483 l 226 483 q 361 615 361 483 l 361 746 q 329 828 361 801 q 210 854 297 854 q 49 831 122 854 l 49 926 q 211 947 126 947 z "},"@":{"ha":1190,"x_min":100,"x_max":1101,"o":"m 719 -157 l 600 -157 q 216 -20 332 -157 q 100 380 100 117 q 218 781 100 643 q 603 918 336 918 q 986 786 871 918 q 1101 393 1101 654 q 1045 122 1101 206 q 880 39 989 39 q 728 107 771 39 q 581 64 674 64 q 397 222 397 64 l 397 242 q 437 352 397 314 q 556 415 476 390 l 701 461 l 701 538 q 680 610 701 585 q 597 635 658 635 q 431 610 535 635 l 431 688 q 600 710 513 710 q 785 540 785 710 l 785 225 q 808 142 785 168 q 890 117 832 117 q 981 178 947 117 q 1014 393 1014 240 q 922 728 1014 618 q 601 838 831 838 q 281 723 372 838 q 189 381 189 608 q 281 39 189 154 q 601 -76 374 -76 l 719 -76 l 719 -157 m 485 243 l 485 221 q 576 138 485 138 q 644 147 613 138 q 701 176 675 157 l 701 382 l 581 344 q 506 310 528 329 q 485 243 485 290 z "},"A":{"ha":608,"x_min":24,"x_max":585,"o":"m 486 0 l 429 261 l 179 261 l 122 0 l 24 0 l 235 933 l 374 933 l 585 0 l 486 0 m 197 347 l 410 347 l 303 838 l 197 347 z "},"B":{"ha":650,"x_min":96,"x_max":568,"o":"m 560 722 l 560 643 q 457 471 560 510 q 568 294 568 433 l 568 211 q 512 56 568 113 q 344 0 456 0 l 96 0 l 96 933 l 336 933 q 503 877 447 933 q 560 722 560 821 m 328 847 l 194 847 l 194 513 l 328 513 q 461 640 461 513 l 461 719 q 328 847 461 847 m 469 214 l 469 297 q 336 425 469 425 l 194 425 l 194 86 l 336 86 q 469 214 469 86 z "},"C":{"ha":547,"x_min":82,"x_max":496,"o":"m 82 743 q 332 940 82 940 q 493 918 413 940 l 493 826 q 329 850 411 850 q 214 822 247 850 q 181 738 181 793 l 181 194 q 215 112 181 140 q 334 83 249 83 q 496 106 419 83 l 496 15 q 332 -7 426 -7 q 82 190 82 -7 l 82 743 z "},"D":{"ha":646,"x_min":96,"x_max":565,"o":"m 467 722 q 335 847 467 847 l 194 847 l 194 88 l 335 88 q 467 215 467 88 l 467 722 m 96 933 l 340 933 q 508 876 451 933 q 565 724 565 819 l 565 213 q 510 57 565 114 q 343 0 454 0 l 96 0 l 96 933 z "},"E":{"ha":551,"x_min":96,"x_max":500,"o":"m 96 933 l 500 933 l 500 846 l 194 846 l 194 514 l 461 514 l 461 426 l 194 426 l 194 88 l 500 88 l 500 0 l 96 0 l 96 933 z "},"F":{"ha":515,"x_min":96,"x_max":489,"o":"m 96 933 l 489 933 l 489 846 l 194 846 l 194 496 l 474 496 l 474 407 l 194 407 l 194 0 l 96 0 l 96 933 z "},"G":{"ha":622,"x_min":82,"x_max":538,"o":"m 82 735 q 145 885 82 831 q 340 940 208 940 q 508 917 429 940 l 508 822 q 340 849 426 849 q 217 819 254 849 q 181 729 181 789 l 181 194 q 314 82 181 82 q 439 111 401 82 l 439 458 l 538 458 l 538 49 q 322 -7 439 -7 q 82 190 82 -7 l 82 735 z "},"H":{"ha":688,"x_min":96,"x_max":592,"o":"m 492 933 l 592 933 l 592 0 l 492 0 l 492 414 l 194 414 l 194 0 l 96 0 l 96 933 l 194 933 l 194 501 l 492 501 l 492 933 z "},"I":{"ha":290,"x_min":96,"x_max":194,"o":"m 96 933 l 194 933 l 194 0 l 96 0 l 96 933 z "},"J":{"ha":292,"x_min":6,"x_max":196,"o":"m 97 933 l 196 933 l 196 275 q 150 -61 196 97 l 107 -207 l 6 -207 l 47 -61 q 97 274 97 117 l 97 933 z "},"K":{"ha":601,"x_min":96,"x_max":578,"o":"m 96 933 l 194 933 l 194 0 l 96 0 l 96 933 m 460 933 l 567 933 l 371 468 l 578 0 l 468 0 l 265 465 l 460 933 z "},"L":{"ha":485,"x_min":96,"x_max":478,"o":"m 96 933 l 194 933 l 194 86 l 478 86 l 478 0 l 96 0 l 96 933 z "},"M":{"ha":849,"x_min":96,"x_max":753,"o":"m 753 933 l 753 0 l 658 0 l 658 492 q 667 768 658 635 l 476 249 l 372 249 l 179 768 q 189 493 189 639 l 189 0 l 96 0 l 96 933 l 213 933 l 424 349 l 635 933 l 753 933 z "},"N":{"ha":694,"x_min":96,"x_max":599,"o":"m 510 158 l 500 465 l 500 933 l 599 933 l 599 0 l 485 0 l 293 483 q 183 774 282 513 l 192 468 l 192 0 l 96 0 l 96 933 l 210 933 q 510 158 431 372 z "},"O":{"ha":635,"x_min":82,"x_max":553,"o":"m 454 725 q 317 857 454 857 q 181 725 181 857 l 181 208 q 317 75 181 75 q 454 208 454 75 l 454 725 m 82 726 q 142 886 82 825 q 317 947 201 947 q 493 886 433 947 q 553 726 553 825 l 553 206 q 493 47 553 107 q 317 -14 433 -14 q 141 47 200 -14 q 82 206 82 107 l 82 726 z "},"P":{"ha":610,"x_min":96,"x_max":547,"o":"m 449 718 q 317 846 449 846 l 194 846 l 194 408 l 317 408 q 449 535 449 408 l 449 718 m 96 933 l 322 933 q 490 876 432 933 q 547 724 547 819 l 547 531 q 490 377 547 433 q 322 321 433 321 l 194 321 l 194 0 l 96 0 l 96 933 z "},"Q":{"ha":635,"x_min":82,"x_max":617,"o":"m 317 -14 q 141 47 200 -14 q 82 206 82 107 l 82 726 q 142 886 82 825 q 317 947 201 947 q 493 886 433 947 q 553 726 553 825 l 553 206 q 467 25 553 82 l 617 -139 l 493 -139 l 375 -10 q 317 -14 347 -14 m 181 725 l 181 208 q 317 75 181 75 q 454 208 454 75 l 454 725 q 317 857 454 857 q 181 725 181 857 z "},"R":{"ha":635,"x_min":96,"x_max":576,"o":"m 332 375 l 194 375 l 194 0 l 96 0 l 96 933 l 322 933 q 490 877 433 933 q 547 724 547 821 l 547 586 q 428 392 547 436 l 576 0 l 468 0 l 332 375 m 194 461 l 318 461 q 449 588 449 461 l 449 719 q 318 846 449 846 l 194 846 l 194 461 z "},"S":{"ha":539,"x_min":39,"x_max":494,"o":"m 39 744 q 100 888 39 836 q 272 940 161 940 q 458 917 382 940 l 458 822 q 282 849 386 849 q 139 740 139 849 l 139 674 q 158 597 139 625 q 221 544 176 569 l 382 454 q 494 269 494 393 l 494 194 q 429 46 494 99 q 241 -7 364 -7 q 46 21 118 -7 l 46 115 q 232 85 128 85 q 396 200 396 85 l 396 258 q 379 331 396 304 q 319 381 363 357 l 160 468 q 39 663 39 533 l 39 744 z "},"T":{"ha":486,"x_min":13,"x_max":474,"o":"m 474 933 l 474 846 l 293 846 l 293 0 l 193 0 l 193 846 l 13 846 l 13 933 l 474 933 z "},"U":{"ha":647,"x_min":89,"x_max":558,"o":"m 460 933 l 558 933 l 558 206 q 499 47 558 107 q 324 -14 440 -14 q 148 47 207 -14 q 89 206 89 107 l 89 933 l 188 933 l 188 208 q 324 75 188 75 q 460 208 460 75 l 460 933 z "},"V":{"ha":582,"x_min":18,"x_max":565,"o":"m 463 933 l 565 933 l 361 0 l 222 0 l 18 933 l 119 933 l 218 469 q 292 96 271 190 q 329 288 303 151 q 463 933 358 436 z "},"W":{"ha":846,"x_min":29,"x_max":817,"o":"m 722 933 l 817 933 l 663 0 l 544 0 q 442 617 453 539 q 424 779 432 696 q 382 467 410 628 l 303 0 l 182 0 l 29 933 l 124 933 l 215 376 l 249 129 q 283 378 264 254 l 372 933 l 474 933 l 563 376 l 597 132 q 631 376 615 278 l 722 933 z "},"X":{"ha":544,"x_min":18,"x_max":526,"o":"m 419 933 l 526 933 l 324 467 l 526 0 l 419 0 l 274 354 l 126 0 l 18 0 l 221 467 l 18 933 l 125 933 l 274 578 l 419 933 z "},"Y":{"ha":568,"x_min":6,"x_max":563,"o":"m 333 0 l 235 0 l 235 315 l 6 933 l 107 933 l 201 679 q 286 431 207 664 q 463 933 338 590 l 563 933 l 333 315 l 333 0 z "},"Z":{"ha":531,"x_min":39,"x_max":492,"o":"m 46 933 l 492 933 l 492 849 l 143 86 l 486 86 l 486 0 l 39 0 l 39 86 l 386 846 l 46 846 l 46 933 z "},"[":{"ha":411,"x_min":114,"x_max":369,"o":"m 199 -107 l 369 -107 l 369 -185 l 114 -185 l 114 1092 l 369 1092 l 369 1014 l 199 1014 l 199 -107 z "},"\\":{"ha":544,"x_min":46,"x_max":508,"o":"m 46 1092 l 135 1092 l 508 -185 l 419 -185 l 46 1092 z "},"]":{"ha":411,"x_min":42,"x_max":297,"o":"m 42 1092 l 297 1092 l 297 -185 l 42 -185 l 42 -107 l 213 -107 l 213 1014 l 42 1014 l 42 1092 z "},"^":{"ha":442,"x_min":4,"x_max":431,"o":"m 431 526 l 336 526 l 218 869 l 100 526 l 4 526 l 154 922 l 283 922 l 431 526 z "},"_":{"ha":663,"x_min":3,"x_max":658,"o":"m 3 -17 l 658 -17 l 658 -96 l 3 -96 l 3 -17 z "},"`":{"ha":486,"x_min":169,"x_max":317,"o":"m 169 1000 l 263 1000 l 317 851 l 253 851 l 169 1000 z "},"a":{"ha":590,"x_min":44,"x_max":501,"o":"m 140 225 l 140 183 q 167 101 140 128 q 267 75 193 75 q 406 129 340 75 l 406 389 l 247 344 q 163 300 185 326 q 140 225 140 274 m 265 797 q 501 596 501 797 l 501 0 l 407 0 l 407 57 q 238 -6 336 -6 q 44 185 44 -6 l 44 229 q 213 421 44 374 l 407 475 l 407 596 q 375 679 406 653 q 252 706 344 706 q 82 678 160 706 l 82 771 q 265 797 161 797 z "},"b":{"ha":621,"x_min":96,"x_max":540,"o":"m 440 600 q 339 701 440 701 q 194 668 283 701 l 194 90 l 310 90 q 440 213 440 90 l 440 600 m 96 1000 l 193 1000 l 193 760 q 358 794 276 794 q 490 746 440 794 q 540 610 540 697 l 540 206 q 484 53 540 107 q 333 0 428 0 l 96 0 l 96 1000 z "},"c":{"ha":514,"x_min":82,"x_max":465,"o":"m 82 597 q 315 797 82 797 q 463 778 401 797 l 463 688 q 318 706 396 706 q 210 678 240 706 q 181 594 181 651 l 181 194 q 210 110 181 136 q 321 83 240 83 q 465 106 401 83 l 465 13 q 315 -7 390 -7 q 82 190 82 -7 l 82 597 z "},"d":{"ha":621,"x_min":82,"x_max":525,"o":"m 426 700 l 313 700 q 181 581 181 700 l 181 201 q 293 85 181 85 q 426 132 376 85 l 426 700 m 426 1000 l 525 1000 l 525 0 l 429 0 l 429 46 q 274 -4 367 -4 q 131 47 181 -4 q 82 194 82 99 l 82 582 q 140 735 82 681 q 296 790 199 790 l 426 790 l 426 1000 z "},"e":{"ha":606,"x_min":82,"x_max":532,"o":"m 82 201 l 82 588 q 138 745 82 686 q 308 804 194 804 q 477 745 422 804 q 532 588 532 686 l 532 346 l 179 346 l 179 206 q 218 113 179 143 q 339 82 257 82 q 508 107 421 82 l 508 15 q 343 -7 439 -7 q 82 201 82 -7 m 179 428 l 438 428 l 438 588 q 308 718 438 718 q 179 588 179 718 l 179 428 z "},"f":{"ha":379,"x_min":46,"x_max":379,"o":"m 125 838 q 174 977 125 928 q 317 1026 222 1026 q 379 1022 350 1026 l 379 938 q 324 943 358 943 q 224 839 224 943 l 224 790 l 371 790 l 371 706 l 224 706 l 224 0 l 125 0 l 125 706 l 46 706 l 46 790 l 125 790 l 125 838 z "},"g":{"ha":621,"x_min":54,"x_max":592,"o":"m 592 754 l 544 754 q 482 736 508 754 q 525 601 525 685 l 525 490 q 468 342 525 396 q 296 288 411 289 q 217 214 217 288 q 238 165 217 181 q 307 150 258 150 l 389 150 q 579 -11 579 150 l 579 -29 q 328 -207 579 -207 l 271 -207 q 54 -164 131 -207 l 54 -69 q 271 -121 146 -121 l 321 -121 q 485 -29 485 -121 l 485 -15 q 465 45 485 25 q 383 65 444 65 l 300 65 q 172 96 217 65 q 128 185 128 126 l 128 207 q 148 267 128 243 q 199 299 168 290 q 61 490 61 338 l 61 601 q 119 750 61 696 q 283 804 176 804 q 444 767 390 804 q 571 850 472 850 l 592 850 l 592 754 m 426 490 l 426 601 q 395 690 426 661 q 293 719 364 719 q 191 690 222 719 q 160 601 160 661 l 160 490 q 191 401 160 431 q 293 372 222 372 q 395 401 364 372 q 426 490 426 431 z "},"h":{"ha":626,"x_min":96,"x_max":538,"o":"m 96 1000 l 193 1000 l 193 758 q 355 793 274 793 q 487 746 436 793 q 538 610 538 699 l 538 0 l 439 0 l 439 600 q 338 701 439 701 q 194 667 267 701 l 194 0 l 96 0 l 96 1000 z "},"i":{"ha":290,"x_min":85,"x_max":206,"o":"m 145 879 q 115 879 145 879 q 85 943 85 879 q 145 1007 85 1007 q 206 943 206 1007 q 145 879 206 879 m 96 785 l 194 785 l 194 0 l 96 0 l 96 785 z "},"j":{"ha":290,"x_min":-35,"x_max":206,"o":"m 145 879 q 115 879 145 879 q 85 943 85 879 q 145 1007 85 1007 q 206 943 206 1007 q 145 879 206 879 m 96 785 l 194 785 l 194 -12 q 147 -158 194 -106 q 6 -210 99 -210 q -35 -206 -14 -210 l -35 -117 q 3 -119 -12 -119 q 74 -94 51 -119 q 96 -12 96 -69 l 96 785 z "},"k":{"ha":558,"x_min":96,"x_max":536,"o":"m 96 1000 l 193 1000 l 193 0 l 96 0 l 96 1000 m 418 790 l 522 790 l 349 410 l 536 0 l 426 0 l 243 410 l 418 790 z "},"l":{"ha":290,"x_min":96,"x_max":194,"o":"m 96 1000 l 194 1000 l 194 0 l 96 0 l 96 1000 z "},"m":{"ha":971,"x_min":96,"x_max":882,"o":"m 497 736 q 688 793 593 793 q 832 745 782 793 q 882 610 882 697 l 882 0 l 782 0 l 782 600 q 681 701 782 701 q 531 656 606 701 q 538 600 538 635 l 538 0 l 439 0 l 439 600 q 336 701 439 701 q 194 665 271 701 l 194 0 l 96 0 l 96 790 l 190 790 l 190 754 q 353 793 283 793 q 497 736 447 793 z "},"n":{"ha":626,"x_min":96,"x_max":538,"o":"m 190 754 q 360 793 283 793 q 488 745 438 793 q 538 610 538 697 l 538 0 l 439 0 l 439 600 q 336 701 439 701 q 194 665 271 701 l 194 0 l 96 0 l 96 790 l 190 790 l 190 754 z "},"o":{"ha":614,"x_min":82,"x_max":532,"o":"m 435 588 q 307 717 435 717 q 179 588 179 717 l 179 203 q 307 72 179 72 q 435 203 435 72 l 435 588 m 82 589 q 138 746 82 688 q 307 804 193 804 q 476 746 421 804 q 532 589 532 688 l 532 201 q 476 44 532 103 q 307 -14 421 -14 q 138 44 193 -14 q 82 201 82 103 l 82 589 z "},"p":{"ha":621,"x_min":96,"x_max":540,"o":"m 440 600 q 338 701 440 701 q 194 665 271 701 l 194 90 l 311 90 q 440 214 440 90 l 440 600 m 190 753 q 361 793 283 793 q 490 745 439 793 q 540 610 540 697 l 540 207 q 484 55 540 110 q 335 0 428 0 l 194 0 l 194 -207 l 96 -207 l 96 790 l 190 790 l 190 753 z "},"q":{"ha":621,"x_min":82,"x_max":525,"o":"m 426 700 l 315 700 q 181 574 181 700 l 181 203 q 293 86 181 86 q 426 132 375 86 l 426 700 m 300 790 l 525 790 l 525 -207 l 428 -207 l 428 38 q 279 -3 371 -3 q 82 199 82 -3 l 82 575 q 140 733 82 675 q 300 790 199 790 z "},"r":{"ha":393,"x_min":96,"x_max":386,"o":"m 351 794 l 386 794 l 386 700 l 339 700 q 249 674 289 700 q 194 636 236 665 l 194 0 l 96 0 l 96 790 l 190 790 l 190 731 q 212 746 194 733 q 233 760 229 758 q 251 771 236 763 q 273 781 265 779 q 294 788 281 783 q 351 794 315 794 z "},"s":{"ha":501,"x_min":39,"x_max":463,"o":"m 39 604 q 94 749 39 701 q 276 797 150 797 q 431 774 354 797 l 431 682 q 278 707 361 707 q 165 683 194 707 q 136 601 136 658 l 136 565 q 153 497 136 521 q 218 453 171 474 l 338 394 q 463 225 463 333 l 463 188 q 211 -7 463 -7 q 44 15 117 -7 l 44 107 q 205 82 117 82 q 328 109 293 82 q 364 189 364 136 l 364 217 q 346 277 364 256 q 275 324 328 299 l 156 381 q 39 557 39 436 l 39 604 z "},"t":{"ha":404,"x_min":7,"x_max":383,"o":"m 193 933 l 193 790 l 369 790 l 369 703 l 193 703 l 193 175 q 217 105 193 126 q 289 83 240 83 q 383 99 338 83 l 383 8 q 279 -6 328 -6 q 93 171 93 -6 l 93 703 l 7 703 l 7 790 l 97 790 l 125 933 l 193 933 z "},"u":{"ha":628,"x_min":89,"x_max":532,"o":"m 300 85 q 433 128 369 85 l 433 790 l 532 790 l 532 0 l 438 0 l 438 38 q 273 -3 357 -3 q 139 48 189 -3 q 89 194 89 99 l 89 790 l 188 790 l 188 203 q 300 85 188 85 z "},"v":{"ha":536,"x_min":24,"x_max":513,"o":"m 413 790 l 513 790 l 338 0 l 199 0 l 24 790 l 125 790 l 201 428 l 269 69 q 413 790 311 300 z "},"w":{"ha":831,"x_min":24,"x_max":807,"o":"m 707 790 l 807 790 l 664 0 l 528 0 q 415 658 415 626 q 375 396 408 576 l 303 0 l 168 0 l 24 790 l 125 790 l 238 101 l 361 790 l 471 790 l 594 100 l 707 790 z "},"x":{"ha":503,"x_min":13,"x_max":490,"o":"m 388 790 l 490 790 l 301 396 l 490 0 l 388 0 l 251 299 l 117 0 l 13 0 l 200 396 l 13 790 l 117 790 l 251 494 l 388 790 z "},"y":{"ha":539,"x_min":25,"x_max":514,"o":"m 415 790 l 514 790 l 297 -207 l 203 -207 l 246 0 l 197 0 l 25 790 l 125 790 l 208 397 l 269 69 q 331 397 297 233 l 415 790 z "},"z":{"ha":446,"x_min":28,"x_max":417,"o":"m 35 790 l 417 790 l 417 714 l 128 86 l 417 86 l 417 0 l 28 0 l 28 76 l 313 704 l 35 704 l 35 790 z "},"{":{"ha":488,"x_min":82,"x_max":413,"o":"m 278 911 l 278 625 q 252 502 278 544 q 158 451 226 460 q 252 402 226 443 q 278 282 278 361 l 278 -8 q 392 -100 278 -100 l 413 -100 l 413 -185 l 388 -185 q 242 -137 293 -185 q 190 -6 190 -89 l 190 311 q 163 383 190 357 q 85 410 136 410 l 82 410 l 82 493 l 85 493 q 163 519 136 493 q 190 592 190 546 l 190 908 q 242 1039 190 992 q 388 1086 293 1086 l 413 1086 l 413 1003 l 392 1003 q 278 911 278 1003 z "},"|":{"ha":288,"x_min":106,"x_max":182,"o":"m 106 1117 l 182 1117 l 182 -210 l 106 -210 l 106 1117 z "},"}":{"ha":488,"x_min":74,"x_max":404,"o":"m 401 493 l 404 493 l 404 410 l 401 410 q 322 383 350 410 q 294 311 294 357 l 294 -6 q 244 -137 294 -90 q 99 -185 193 -185 l 74 -185 l 74 -100 l 94 -100 q 208 -8 208 -100 l 208 282 q 234 402 208 361 q 326 451 260 443 q 234 502 260 460 q 208 625 208 544 l 208 911 q 94 1003 208 1003 l 74 1003 l 74 1086 l 99 1086 q 244 1039 193 1086 q 294 908 294 992 l 294 592 q 322 519 294 546 q 401 493 350 493 z "},"~":{"ha":594,"x_min":32,"x_max":560,"o":"m 560 507 q 494 394 560 424 q 354 400 429 364 l 232 454 q 143 465 179 481 q 117 393 107 450 l 36 393 q 32 433 32 413 q 64 524 32 490 q 239 540 122 585 l 361 488 q 451 475 417 460 q 476 549 486 490 l 557 549 q 560 507 560 529 z "}," ":{"ha":263,"x_min":0,"x_max":0,"o":""},"¡":{"ha":344,"x_min":111,"x_max":232,"o":"m 225 -143 l 118 -143 l 131 551 l 213 551 l 225 -143 m 172 672 q 141 672 172 672 q 111 735 111 672 q 172 799 111 799 q 232 735 232 799 q 172 672 232 672 z "},"¢":{"ha":556,"x_min":93,"x_max":476,"o":"m 368 -107 l 278 -107 l 278 -4 q 93 190 93 14 l 93 597 q 278 794 93 776 l 278 907 l 368 907 l 368 796 q 474 778 428 792 l 474 688 q 329 706 407 706 q 222 678 251 706 q 192 594 192 651 l 192 194 q 222 110 192 136 q 332 83 251 83 q 476 106 413 83 l 476 13 q 368 -6 413 -3 l 368 -107 z "},"£":{"ha":638,"x_min":64,"x_max":585,"o":"m 585 90 l 585 0 l 64 0 l 64 90 q 124 111 110 97 q 147 139 139 125 q 167 222 167 165 l 167 439 l 81 439 l 81 522 l 167 522 l 167 718 q 225 878 167 821 q 404 936 283 936 q 575 908 492 936 l 575 814 q 405 843 485 843 q 295 810 325 843 q 265 714 265 778 l 265 522 l 503 522 l 503 439 l 265 439 l 265 232 q 200 90 265 126 l 585 90 z "},"¤":{"ha":639,"x_min":58,"x_max":582,"o":"m 539 522 l 539 411 q 519 306 539 349 l 582 244 l 518 182 l 463 238 q 322 203 411 203 q 178 238 232 203 l 122 182 l 58 244 l 121 306 q 103 411 103 350 l 103 522 q 121 626 103 585 l 58 688 l 122 751 l 178 696 q 322 731 232 731 q 463 696 411 731 l 519 751 l 582 688 l 521 628 q 539 522 539 583 m 199 521 l 199 413 q 224 319 199 349 q 320 289 250 289 q 416 319 390 289 q 442 413 442 349 l 442 521 q 416 615 442 585 q 320 644 390 644 q 224 615 250 644 q 199 521 199 585 z "},"¥":{"ha":657,"x_min":56,"x_max":622,"o":"m 618 574 l 618 496 l 463 496 l 407 358 l 618 358 l 618 281 l 386 281 l 386 0 l 293 0 l 293 281 l 57 281 l 57 358 l 269 358 l 215 496 l 57 496 l 57 574 l 186 574 l 56 908 l 153 908 l 340 411 l 525 908 l 622 908 l 492 574 l 618 574 z "},"¦":{"ha":289,"x_min":106,"x_max":182,"o":"m 106 317 l 182 317 l 182 -210 l 106 -210 l 106 317 m 106 1117 l 182 1117 l 182 592 l 106 592 l 106 1117 z "},"§":{"ha":507,"x_min":42,"x_max":476,"o":"m 150 365 l 150 346 q 167 278 150 301 q 232 233 185 254 l 351 175 q 476 4 476 114 l 476 -12 q 224 -207 476 -207 q 58 -187 129 -207 l 58 -94 q 217 -118 125 -118 q 343 -92 308 -118 q 378 -17 378 -67 q 360 56 378 33 q 289 104 343 78 l 169 161 q 53 338 53 215 l 53 365 l 150 365 m 42 742 q 97 887 42 839 q 279 935 153 935 q 433 914 367 935 l 433 822 q 282 846 367 846 q 169 820 197 846 q 140 738 140 794 q 156 660 140 682 q 221 617 172 639 l 340 560 q 465 390 465 499 l 465 363 l 368 363 l 368 382 q 350 442 368 421 q 278 489 332 464 l 158 547 q 42 722 42 600 l 42 742 z "},"¨":{"ha":486,"x_min":96,"x_max":389,"o":"m 389 924 q 389 898 389 924 q 336 872 389 872 q 283 924 283 872 q 336 976 283 976 q 389 924 389 976 m 149 872 q 123 872 149 872 q 96 924 96 872 q 149 976 96 976 q 203 924 203 976 q 149 872 203 872 z "},"©":{"ha":954,"x_min":65,"x_max":889,"o":"m 747 185 q 793 300 781 239 q 806 442 806 361 q 799 574 806 524 q 774 676 793 625 q 719 756 754 726 q 479 824 642 824 q 203 717 268 824 q 160 601 171 661 q 149 450 149 542 q 160 298 149 358 q 206 183 172 238 q 479 78 271 78 q 747 185 682 78 m 314 526 q 356 656 314 611 q 496 700 399 700 q 599 689 551 700 l 599 611 q 490 626 549 626 q 414 601 432 626 q 396 525 396 576 l 396 376 q 408 310 396 331 q 488 276 428 276 q 600 290 547 276 l 600 213 q 496 201 538 201 q 356 246 399 201 q 314 375 314 290 l 314 526 m 148 128 q 125 160 148 128 q 84 269 103 192 q 65 440 65 346 q 76 598 65 533 q 115 722 86 663 q 189 819 143 781 q 308 881 235 858 q 479 903 381 903 q 651 881 578 903 q 769 820 724 858 q 842 722 814 782 q 889 450 889 622 q 678 33 889 118 q 478 0 596 0 q 276 33 360 0 q 148 128 193 65 z "},"ª":{"ha":469,"x_min":47,"x_max":410,"o":"m 119 600 l 119 554 q 141 483 119 506 q 233 461 163 461 q 339 510 303 461 l 339 710 l 217 689 q 119 600 119 669 m 235 1035 q 410 889 410 1035 l 410 400 l 339 400 l 339 449 q 206 400 299 400 q 47 553 47 400 l 47 603 q 88 701 47 667 q 204 751 128 736 l 339 776 l 339 894 q 313 950 336 932 q 219 968 289 968 q 72 940 150 968 l 72 1010 q 235 1035 147 1035 z "},"«":{"ha":646,"x_min":85,"x_max":603,"o":"m 253 701 l 354 701 l 185 447 l 354 193 l 253 193 l 85 447 l 253 701 m 500 701 l 603 701 l 433 447 l 603 193 l 500 193 l 332 447 l 500 701 z "},"¬":{"ha":632,"x_min":94,"x_max":538,"o":"m 94 501 l 538 501 l 538 275 l 436 275 l 436 414 l 94 414 l 94 501 z "},"­":{"ha":317,"x_min":56,"x_max":268,"o":"m 56 492 l 268 492 l 268 410 l 56 410 l 56 492 z "},"®":{"ha":710,"x_min":99,"x_max":651,"o":"m 99 721 q 99 797 99 721 q 158 945 99 874 q 374 1017 218 1017 q 591 945 531 1017 q 651 722 651 874 q 592 498 651 569 q 375 426 532 426 q 158 497 218 426 q 99 721 99 568 m 372 483 q 486 496 443 483 q 552 540 529 508 q 582 612 575 572 q 589 719 589 651 q 548 909 589 857 q 374 961 507 961 q 201 909 240 961 q 161 721 161 857 q 201 534 161 585 q 372 483 240 483 m 271 903 l 371 903 q 494 793 494 903 q 446 692 494 717 l 510 543 l 443 543 l 390 678 q 369 676 383 676 l 332 676 l 332 543 l 271 543 l 271 903 m 332 728 l 364 728 q 421 741 404 728 q 438 792 438 754 q 423 840 438 829 q 374 850 408 850 l 332 850 l 332 728 z "},"¯":{"ha":486,"x_min":89,"x_max":397,"o":"m 89 958 l 397 958 l 397 893 l 89 893 l 89 958 z "},"°":{"ha":514,"x_min":72,"x_max":450,"o":"m 347 811 q 358 827 347 811 q 369 903 369 843 q 347 994 369 963 q 260 1026 324 1026 q 174 994 196 1026 q 153 902 153 963 q 174 810 153 842 q 260 779 196 779 q 347 811 324 779 m 260 703 q 72 903 72 703 q 260 1104 72 1104 q 450 903 450 1104 q 405 757 450 811 q 260 703 360 703 z "},"±":{"ha":607,"x_min":57,"x_max":553,"o":"m 350 492 l 553 492 l 553 410 l 350 410 l 350 218 l 260 218 l 260 410 l 57 410 l 57 492 l 260 492 l 260 683 l 350 683 l 350 492 m 57 58 l 57 140 l 553 140 l 553 58 l 57 58 z "},"²":{"ha":406,"x_min":40,"x_max":368,"o":"m 197 1035 q 365 890 365 1035 l 365 858 q 347 768 365 803 q 283 701 329 733 l 196 640 q 124 582 138 601 q 111 517 111 563 l 111 468 l 368 468 l 368 401 l 40 401 l 40 517 q 64 615 40 581 q 150 692 88 650 l 242 754 q 285 799 275 775 q 294 863 294 822 l 294 889 q 273 949 294 929 q 183 968 251 968 q 58 953 115 968 l 58 1021 q 197 1035 110 1035 z "},"³":{"ha":424,"x_min":44,"x_max":358,"o":"m 186 1035 q 358 896 354 1035 l 358 838 q 297 721 358 746 q 358 607 358 696 l 358 539 q 186 396 358 396 q 44 411 99 396 l 44 479 q 181 463 121 463 q 264 481 242 463 q 286 540 286 500 l 286 607 q 269 666 286 646 q 199 688 251 686 l 136 688 l 136 754 l 199 754 q 269 776 251 754 q 286 838 286 797 l 286 889 q 264 949 286 929 q 185 968 242 968 q 58 956 128 968 l 58 1024 q 186 1035 118 1035 z "},"´":{"ha":486,"x_min":169,"x_max":317,"o":"m 224 1000 l 317 1000 l 233 851 l 169 851 l 224 1000 z "},"µ":{"ha":633,"x_min":93,"x_max":538,"o":"m 304 88 q 439 132 372 88 l 439 790 l 538 790 l 538 0 l 442 0 l 442 38 q 312 -1 386 0 q 193 15 238 -1 l 193 -208 l 93 -208 l 93 790 l 193 790 l 193 113 q 237 95 203 103 q 304 88 271 88 z "},"¶":{"ha":561,"x_min":89,"x_max":461,"o":"m 314 933 l 461 933 l 461 1 l 363 1 l 363 515 l 314 515 q 146 572 203 515 q 89 724 89 628 q 147 877 89 821 q 314 933 204 933 z "},"·":{"ha":299,"x_min":93,"x_max":210,"o":"m 210 478 q 210 450 210 478 q 151 421 210 421 q 93 478 93 421 q 151 536 93 536 q 210 478 210 536 z "},"¸":{"ha":486,"x_min":146,"x_max":339,"o":"m 244 -56 q 313 -82 286 -58 q 339 -152 339 -106 q 304 -226 339 -199 q 222 -253 269 -253 q 146 -243 174 -253 l 146 -187 q 206 -197 169 -197 q 276 -147 276 -197 q 203 -96 276 -96 l 185 -96 l 206 8 l 258 8 l 244 -56 z "},"¹":{"ha":310,"x_min":31,"x_max":236,"o":"m 236 1028 l 236 401 l 165 401 l 165 956 l 31 851 l 31 936 l 153 1028 l 236 1028 z "},"º":{"ha":467,"x_min":65,"x_max":410,"o":"m 338 894 q 314 950 336 932 q 237 968 292 968 q 159 950 182 968 q 136 894 136 932 l 136 542 q 159 482 136 501 q 238 463 182 463 q 315 482 293 463 q 338 542 338 501 l 338 894 m 65 889 q 238 1035 65 1035 q 410 889 410 1035 l 410 542 q 238 396 410 396 q 65 542 65 396 l 65 889 z "},"»":{"ha":644,"x_min":39,"x_max":557,"o":"m 39 701 l 140 701 l 308 447 l 140 193 l 39 193 l 208 447 l 39 701 m 286 701 l 389 701 l 557 447 l 389 193 l 286 193 l 456 447 l 286 701 z "},"¼":{"ha":1093,"x_min":56,"x_max":1013,"o":"m 679 933 l 753 933 l 289 0 l 215 0 l 679 933 m 875 201 l 875 571 l 689 201 l 875 201 m 944 626 l 944 201 l 1013 201 l 1013 136 l 944 136 l 944 0 l 875 0 l 875 136 l 619 136 l 619 203 l 835 626 l 944 626 m 261 933 l 261 306 l 190 306 l 190 861 l 56 756 l 56 840 l 178 933 l 261 933 z "},"½":{"ha":1082,"x_min":56,"x_max":996,"o":"m 679 933 l 753 933 l 290 0 l 217 0 l 679 933 m 261 933 l 261 307 l 190 307 l 190 861 l 56 757 l 56 842 l 178 933 l 261 933 m 825 633 q 993 489 993 633 l 993 457 q 975 367 993 401 q 911 300 957 332 l 824 239 q 752 181 765 200 q 739 115 739 161 l 739 67 l 996 67 l 996 0 l 668 0 l 668 115 q 692 214 668 179 q 778 290 715 249 l 869 353 q 913 397 903 374 q 922 461 922 421 l 922 488 q 901 547 922 528 q 811 567 879 567 q 686 551 743 567 l 686 619 q 825 633 738 633 z "},"¾":{"ha":1149,"x_min":56,"x_max":1068,"o":"m 197 940 q 369 801 365 940 l 369 743 q 308 626 369 651 q 369 513 369 601 l 369 446 q 197 301 369 301 q 56 317 119 301 l 56 385 q 192 368 132 368 q 275 387 253 368 q 297 446 297 406 l 297 513 q 280 572 297 551 q 210 593 263 592 l 147 593 l 147 660 l 210 660 q 280 681 263 660 q 297 743 297 703 l 297 796 q 275 855 297 836 q 194 874 253 874 q 68 861 136 874 l 68 929 q 197 940 131 940 m 756 933 l 829 933 l 365 0 l 292 0 l 756 933 m 931 201 l 931 571 l 743 201 l 931 201 m 1000 626 l 1000 201 l 1068 201 l 1068 136 l 1000 136 l 1000 0 l 931 0 l 931 136 l 674 136 l 674 203 l 889 626 l 1000 626 z "},"¿":{"ha":526,"x_min":49,"x_max":458,"o":"m 309 799 q 339 799 309 799 q 369 735 369 799 q 309 672 369 672 q 249 735 249 672 q 309 799 249 799 m 296 -157 q 49 39 49 -157 l 49 176 q 260 390 49 385 l 267 551 l 351 551 l 357 307 l 281 307 q 146 175 146 307 l 146 44 q 178 -37 146 -11 q 297 -64 210 -64 q 458 -40 385 -64 l 458 -136 q 296 -157 381 -157 z "},"À":{"ha":608,"x_min":24,"x_max":585,"o":"m 486 0 l 429 261 l 179 261 l 122 0 l 24 0 l 235 933 l 374 933 l 585 0 l 486 0 m 197 347 l 410 347 l 303 838 l 197 347 m 329 990 l 265 990 l 182 1139 l 275 1139 l 329 990 z "},"Á":{"ha":608,"x_min":24,"x_max":585,"o":"m 486 0 l 429 261 l 179 261 l 122 0 l 24 0 l 235 933 l 374 933 l 585 0 l 486 0 m 197 347 l 410 347 l 303 838 l 197 347 m 418 1139 l 335 990 l 271 990 l 325 1139 l 418 1139 z "},"Â":{"ha":608,"x_min":24,"x_max":585,"o":"m 486 0 l 429 261 l 179 261 l 122 0 l 24 0 l 235 933 l 374 933 l 585 0 l 486 0 m 197 347 l 410 347 l 303 838 l 197 347 m 307 1078 l 257 990 l 196 990 l 265 1139 l 347 1139 l 418 990 l 357 990 l 307 1078 z "},"Ã":{"ha":608,"x_min":24,"x_max":585,"o":"m 486 0 l 429 261 l 179 261 l 122 0 l 24 0 l 235 933 l 374 933 l 585 0 l 486 0 m 197 347 l 410 347 l 303 838 l 197 347 m 207 1018 l 207 1003 l 138 1003 l 138 1021 q 161 1097 138 1068 q 226 1125 185 1125 q 317 1097 268 1125 q 381 1068 365 1068 q 411 1113 411 1068 l 411 1128 l 481 1128 l 481 1108 q 457 1033 481 1060 q 394 1006 433 1006 q 307 1033 354 1006 q 239 1061 260 1061 q 207 1018 207 1061 z "},"Ä":{"ha":608,"x_min":24,"x_max":585,"o":"m 486 0 l 429 261 l 179 261 l 122 0 l 24 0 l 235 933 l 374 933 l 585 0 l 486 0 m 197 347 l 410 347 l 303 838 l 197 347 m 263 1063 q 263 1037 263 1063 q 209 1011 263 1011 q 156 1063 156 1011 q 209 1115 156 1115 q 263 1063 263 1115 m 449 1063 q 449 1037 449 1063 q 396 1011 449 1011 q 343 1063 343 1011 q 396 1115 343 1115 q 449 1063 449 1115 z "},"Å":{"ha":608,"x_min":24,"x_max":585,"o":"m 486 0 l 429 261 l 179 261 l 122 0 l 24 0 l 235 933 l 374 933 l 585 0 l 486 0 m 197 347 l 410 347 l 303 838 l 197 347 m 406 1065 q 406 1044 406 1065 q 378 993 406 1022 q 303 964 351 964 q 228 993 256 964 q 200 1065 200 1022 q 228 1137 200 1108 q 303 1165 256 1165 q 378 1137 351 1165 q 406 1065 406 1108 m 338 1101 q 332 1107 338 1101 q 303 1114 325 1114 q 267 1101 281 1114 q 254 1065 254 1088 q 303 1015 254 1015 q 351 1065 351 1015 q 338 1101 351 1088 z "},"Æ":{"ha":915,"x_min":11,"x_max":894,"o":"m 894 846 l 588 846 l 588 514 l 854 514 l 854 426 l 588 426 l 588 88 l 894 88 l 894 0 l 492 0 l 492 261 l 229 261 l 114 0 l 11 0 l 432 933 l 894 933 l 894 846 m 492 347 l 492 861 l 267 347 l 492 347 z "},"Ç":{"ha":547,"x_min":82,"x_max":496,"o":"m 322 -56 q 390 -82 364 -58 q 417 -152 417 -106 q 382 -226 417 -199 q 299 -253 347 -253 q 224 -243 251 -253 l 224 -187 q 283 -197 247 -197 q 354 -147 354 -197 q 281 -96 354 -96 l 263 -96 l 281 -4 q 82 190 82 15 l 82 743 q 332 940 82 940 q 493 918 413 940 l 493 826 q 329 850 411 850 q 214 822 247 850 q 181 738 181 793 l 181 194 q 215 112 181 140 q 334 83 249 83 q 496 106 419 83 l 496 15 q 333 -7 426 -7 l 322 -56 z "},"È":{"ha":551,"x_min":96,"x_max":500,"o":"m 185 1139 l 278 1139 l 332 990 l 268 990 l 185 1139 m 96 933 l 500 933 l 500 846 l 194 846 l 194 514 l 461 514 l 461 426 l 194 426 l 194 88 l 500 88 l 500 0 l 96 0 l 96 933 z "},"É":{"ha":551,"x_min":96,"x_max":500,"o":"m 96 933 l 500 933 l 500 846 l 194 846 l 194 514 l 461 514 l 461 426 l 194 426 l 194 88 l 500 88 l 500 0 l 96 0 l 96 933 m 321 1139 l 414 1139 l 331 990 l 267 990 l 321 1139 z "},"Ê":{"ha":551,"x_min":96,"x_max":500,"o":"m 500 846 l 194 846 l 194 514 l 461 514 l 461 426 l 194 426 l 194 88 l 500 88 l 500 0 l 96 0 l 96 933 l 500 933 l 500 846 m 290 1078 l 240 990 l 179 990 l 249 1139 l 331 1139 l 401 990 l 340 990 l 290 1078 z "},"Ë":{"ha":551,"x_min":96,"x_max":500,"o":"m 96 933 l 500 933 l 500 846 l 194 846 l 194 514 l 461 514 l 461 426 l 194 426 l 194 88 l 500 88 l 500 0 l 96 0 l 96 933 m 447 1063 q 447 1037 447 1063 q 394 1011 447 1011 q 342 1063 342 1011 q 394 1115 342 1115 q 447 1063 447 1115 m 208 1011 q 181 1011 208 1011 q 154 1063 154 1011 q 208 1115 154 1115 q 261 1063 261 1115 q 208 1011 261 1011 z "},"Ì":{"ha":551,"x_min":96,"x_max":500,"o":"m 186 1139 l 279 1139 l 333 990 l 269 990 l 186 1139 m 96 933 l 500 933 l 500 846 l 194 846 l 194 514 l 461 514 l 461 426 l 194 426 l 194 88 l 500 88 l 500 0 l 96 0 l 96 933 z "},"Í":{"ha":551,"x_min":96,"x_max":500,"o":"m 96 933 l 500 933 l 500 846 l 194 846 l 194 514 l 461 514 l 461 426 l 194 426 l 194 88 l 500 88 l 500 0 l 96 0 l 96 933 m 322 1139 l 415 1139 l 332 990 l 268 990 l 322 1139 z "},"Î":{"ha":290,"x_min":40,"x_max":263,"o":"m 192 1139 l 263 990 l 201 990 l 151 1078 l 101 990 l 40 990 l 110 1139 l 192 1139 m 96 0 l 96 933 l 194 933 l 194 0 l 96 0 z "},"Ï":{"ha":290,"x_min":-4,"x_max":289,"o":"m 289 1063 q 289 1037 289 1063 q 236 1011 289 1011 q 183 1063 183 1011 q 236 1115 183 1115 q 289 1063 289 1115 m 49 1011 q 23 1011 49 1011 q -4 1063 -4 1011 q 49 1115 -4 1115 q 103 1063 103 1115 q 49 1011 103 1011 m 96 933 l 194 933 l 194 0 l 96 0 l 96 933 z "},"Ð":{"ha":649,"x_min":-4,"x_max":568,"o":"m 99 933 l 343 933 q 511 876 454 933 q 568 724 568 819 l 568 213 q 513 57 568 114 q 346 0 457 0 l 99 0 l 99 415 l -4 415 l -4 500 l 99 500 l 99 933 m 469 215 l 469 722 q 338 847 469 847 l 197 847 l 197 500 l 347 500 l 347 415 l 197 415 l 197 88 l 338 88 q 469 215 469 88 z "},"Ñ":{"ha":694,"x_min":96,"x_max":599,"o":"m 461 1128 l 531 1128 l 531 1108 q 507 1033 531 1060 q 444 1006 483 1006 q 357 1033 404 1006 q 289 1061 310 1061 q 257 1018 257 1061 l 257 1003 l 188 1003 l 188 1021 q 211 1097 188 1068 q 276 1125 235 1125 q 367 1097 318 1125 q 431 1068 415 1068 q 461 1113 461 1068 l 461 1128 m 510 158 l 500 465 l 500 933 l 599 933 l 599 0 l 485 0 l 293 483 q 183 774 282 513 q 192 468 183 774 l 192 0 l 96 0 l 96 933 l 210 933 q 510 158 431 372 z "},"Ò":{"ha":635,"x_min":82,"x_max":553,"o":"m 193 1139 l 286 1139 l 340 990 l 276 990 l 193 1139 m 454 725 q 317 857 454 857 q 181 725 181 857 l 181 208 q 317 75 181 75 q 454 208 454 75 l 454 725 m 82 726 q 142 886 82 825 q 317 947 201 947 q 493 886 433 947 q 553 726 553 825 l 553 206 q 493 47 553 107 q 317 -14 433 -14 q 141 47 200 -14 q 82 206 82 107 l 82 726 z "},"Ó":{"ha":635,"x_min":82,"x_max":553,"o":"m 454 725 q 317 857 454 857 q 181 725 181 857 l 181 208 q 317 75 181 75 q 454 208 454 75 l 454 725 m 82 726 q 142 886 82 825 q 317 947 201 947 q 493 886 433 947 q 553 726 553 825 l 553 206 q 493 47 553 107 q 317 -14 433 -14 q 141 47 200 -14 q 82 206 82 107 l 82 726 m 339 1139 l 432 1139 l 349 990 l 285 990 l 339 1139 z "},"Ô":{"ha":635,"x_min":82,"x_max":553,"o":"m 82 206 l 82 726 q 142 886 82 825 q 317 947 201 947 q 493 886 433 947 q 553 726 553 825 l 553 206 q 493 47 553 107 q 317 -14 433 -14 q 141 47 200 -14 q 82 206 82 107 m 454 208 l 454 725 q 317 857 454 857 q 181 725 181 857 l 181 208 q 317 75 181 75 q 454 208 454 75 m 317 1078 l 267 990 l 206 990 l 275 1139 l 357 1139 l 428 990 l 367 990 l 317 1078 z "},"Õ":{"ha":635,"x_min":82,"x_max":553,"o":"m 419 1128 l 489 1128 l 489 1108 q 465 1033 489 1060 q 402 1006 442 1006 q 315 1033 363 1006 q 247 1061 268 1061 q 215 1018 215 1061 l 215 1003 l 146 1003 l 146 1021 q 169 1097 146 1068 q 235 1125 193 1125 q 325 1097 276 1125 q 389 1068 374 1068 q 419 1113 419 1068 l 419 1128 m 454 725 q 317 857 454 857 q 181 725 181 857 l 181 208 q 317 75 181 75 q 454 208 454 75 l 454 725 m 82 726 q 142 886 82 825 q 317 947 201 947 q 493 886 433 947 q 553 726 553 825 l 553 206 q 493 47 553 107 q 317 -14 433 -14 q 141 47 200 -14 q 82 206 82 107 l 82 726 z "},"Ö":{"ha":635,"x_min":82,"x_max":553,"o":"m 454 725 q 317 857 454 857 q 181 725 181 857 l 181 208 q 317 75 181 75 q 454 208 454 75 l 454 725 m 82 726 q 142 886 82 825 q 317 947 201 947 q 493 886 433 947 q 553 726 553 825 l 553 206 q 493 47 553 107 q 317 -14 433 -14 q 141 47 200 -14 q 82 206 82 107 l 82 726 m 463 1063 q 463 1037 463 1063 q 410 1011 463 1011 q 357 1063 357 1011 q 410 1115 357 1115 q 463 1063 463 1115 m 223 1011 q 196 1011 223 1011 q 169 1063 169 1011 q 223 1115 169 1115 q 276 1063 276 1115 q 223 1011 276 1011 z "},"×":{"ha":521,"x_min":42,"x_max":478,"o":"m 478 611 l 318 451 l 478 292 l 419 233 l 260 393 l 100 233 l 42 292 l 203 451 l 43 611 l 100 668 l 260 508 l 419 668 l 478 611 z "},"Ø":{"ha":635,"x_min":81,"x_max":554,"o":"m 553 726 l 553 206 q 493 47 553 107 q 329 -14 433 -14 q 165 26 225 -14 l 154 0 l 81 0 l 115 79 q 82 206 82 133 l 82 726 q 142 886 82 825 q 305 947 201 947 q 468 907 408 947 l 479 933 l 554 933 l 519 853 q 553 726 553 800 m 181 725 l 181 235 l 428 814 q 317 857 394 857 q 181 725 181 857 m 454 208 l 454 700 l 206 119 q 317 75 239 75 q 454 208 454 75 z "},"Ù":{"ha":647,"x_min":89,"x_max":558,"o":"m 208 1139 l 301 1139 l 356 990 l 292 990 l 208 1139 m 460 933 l 558 933 l 558 206 q 499 47 558 107 q 324 -14 440 -14 q 148 47 207 -14 q 89 206 89 107 l 89 933 l 188 933 l 188 208 q 324 75 188 75 q 460 208 460 75 l 460 933 z "},"Ú":{"ha":647,"x_min":89,"x_max":558,"o":"m 460 933 l 558 933 l 558 206 q 499 47 558 107 q 324 -14 440 -14 q 148 47 207 -14 q 89 206 89 107 l 89 933 l 188 933 l 188 208 q 324 75 188 75 q 460 208 460 75 l 460 933 m 346 1139 l 439 1139 l 356 990 l 292 990 l 346 1139 z "},"Û":{"ha":647,"x_min":89,"x_max":558,"o":"m 460 933 l 558 933 l 558 206 q 499 47 558 107 q 324 -14 440 -14 q 148 47 207 -14 q 89 206 89 107 l 89 933 l 188 933 l 188 208 q 324 75 188 75 q 460 208 460 75 l 460 933 m 322 1078 l 272 990 l 211 990 l 281 1139 l 363 1139 l 433 990 l 372 990 l 322 1078 z "},"Ü":{"ha":647,"x_min":89,"x_max":558,"o":"m 460 933 l 558 933 l 558 206 q 499 47 558 107 q 324 -14 440 -14 q 148 47 207 -14 q 89 206 89 107 l 89 933 l 188 933 l 188 208 q 324 75 188 75 q 460 208 460 75 l 460 933 m 469 1063 q 469 1037 469 1063 q 417 1011 469 1011 q 364 1063 364 1011 q 417 1115 364 1115 q 469 1063 469 1115 m 230 1011 q 203 1011 230 1011 q 176 1063 176 1011 q 230 1115 176 1115 q 283 1063 283 1115 q 230 1011 283 1011 z "},"Ý":{"ha":568,"x_min":6,"x_max":563,"o":"m 303 1139 l 396 1139 l 313 990 l 249 990 l 303 1139 m 333 0 l 235 0 l 235 315 l 6 933 l 107 933 l 201 679 q 286 431 207 664 q 463 933 338 590 l 563 933 l 333 315 l 333 0 z "},"Þ":{"ha":596,"x_min":110,"x_max":558,"o":"m 206 765 l 333 765 q 501 708 443 765 q 558 556 558 651 l 558 378 q 501 225 558 282 q 333 168 443 168 l 206 168 l 206 0 l 110 0 l 110 933 l 206 933 l 206 765 m 461 383 l 461 550 q 329 678 461 678 l 206 678 l 206 257 l 329 257 q 461 383 461 257 z "},"ß":{"ha":746,"x_min":96,"x_max":717,"o":"m 96 764 q 161 936 96 878 q 344 994 226 994 q 528 939 463 994 q 593 785 593 883 q 574 697 593 738 q 533 633 556 657 q 472 531 472 571 l 472 515 q 495 459 472 485 q 586 396 518 433 q 685 321 654 358 q 717 226 717 283 l 717 189 q 655 45 717 97 q 469 -7 593 -7 q 308 15 386 -7 l 308 110 q 464 85 378 85 q 585 113 550 85 q 619 193 619 142 l 619 218 q 599 281 619 257 q 509 343 579 306 q 406 417 439 381 q 374 508 374 453 l 374 526 q 392 598 374 564 q 434 653 411 632 q 476 709 457 675 q 494 782 494 743 q 353 906 494 906 q 231 870 269 906 q 192 760 192 835 l 192 0 l 96 0 l 96 764 z "},"à":{"ha":590,"x_min":44,"x_max":501,"o":"m 172 1000 l 265 1000 l 319 851 l 256 851 l 172 1000 m 140 225 l 140 183 q 167 101 140 128 q 267 75 193 75 q 406 129 340 75 l 406 389 l 247 344 q 163 300 185 326 q 140 225 140 274 m 265 797 q 501 596 501 797 l 501 0 l 407 0 l 407 57 q 238 -6 336 -6 q 44 185 44 -6 l 44 229 q 213 421 44 374 l 407 475 l 407 596 q 375 679 406 653 q 252 706 344 706 q 82 678 160 706 l 82 771 q 265 797 161 797 z "},"á":{"ha":590,"x_min":44,"x_max":501,"o":"m 307 1000 l 400 1000 l 317 851 l 253 851 l 307 1000 m 140 225 l 140 183 q 167 101 140 128 q 267 75 193 75 q 406 129 340 75 l 406 389 l 247 344 q 163 300 185 326 q 140 225 140 274 m 265 797 q 501 596 501 797 l 501 0 l 407 0 l 407 57 q 238 -6 336 -6 q 44 185 44 -6 l 44 229 q 213 421 44 374 l 407 475 l 407 596 q 375 679 406 653 q 252 706 344 706 q 82 678 160 706 l 82 771 q 265 797 161 797 z "},"â":{"ha":590,"x_min":44,"x_max":501,"o":"m 265 797 q 501 596 501 797 l 501 0 l 407 0 l 407 57 q 238 -6 336 -6 q 44 185 44 -6 l 44 229 q 213 421 44 374 l 407 475 l 407 596 q 375 679 406 653 q 252 706 344 706 q 82 678 160 706 l 82 771 q 265 797 161 797 m 140 225 l 140 183 q 167 101 140 128 q 267 75 193 75 q 406 129 340 75 l 406 389 l 247 344 q 163 300 185 326 q 140 225 140 274 m 299 939 l 249 851 l 188 851 l 257 1000 l 339 1000 l 410 851 l 349 851 l 299 939 z "},"ã":{"ha":590,"x_min":44,"x_max":501,"o":"m 396 989 l 465 989 l 465 969 q 442 894 465 921 q 378 867 418 867 q 292 894 339 867 q 224 922 244 922 q 192 879 192 922 l 192 864 l 122 864 l 122 882 q 146 958 122 929 q 211 986 169 986 q 301 958 253 986 q 365 929 350 929 q 396 974 396 929 l 396 989 m 140 225 l 140 183 q 167 101 140 128 q 267 75 193 75 q 406 129 340 75 l 406 389 l 247 344 q 163 300 185 326 q 140 225 140 274 m 265 797 q 501 596 501 797 l 501 0 l 407 0 l 407 57 q 238 -6 336 -6 q 44 185 44 -6 l 44 229 q 213 421 44 374 l 407 475 l 407 596 q 375 679 406 653 q 252 706 344 706 q 82 678 160 706 l 82 771 q 265 797 161 797 z "},"ä":{"ha":590,"x_min":44,"x_max":501,"o":"m 438 924 q 438 898 438 924 q 385 872 438 872 q 332 924 332 872 q 385 976 332 976 q 438 924 438 976 m 198 872 q 171 872 198 872 q 144 924 144 872 q 198 976 144 976 q 251 924 251 976 q 198 872 251 872 m 140 225 l 140 183 q 167 101 140 128 q 267 75 193 75 q 406 129 340 75 l 406 389 l 247 344 q 163 300 185 326 q 140 225 140 274 m 265 797 q 501 596 501 797 l 501 0 l 407 0 l 407 57 q 238 -6 336 -6 q 44 185 44 -6 l 44 229 q 213 421 44 374 l 407 475 l 407 596 q 375 679 406 653 q 252 706 344 706 q 82 678 160 706 l 82 771 q 265 797 161 797 z "},"å":{"ha":590,"x_min":44,"x_max":501,"o":"m 339 926 q 326 962 339 949 q 290 975 313 975 q 255 962 268 975 q 242 926 242 949 q 290 876 242 876 q 339 926 339 876 m 215 854 q 201 869 215 854 q 188 926 188 883 q 215 998 188 969 q 291 1026 243 1026 q 366 998 339 1026 q 393 926 393 969 q 366 854 393 883 q 291 825 339 825 q 215 854 243 825 m 140 225 l 140 183 q 167 101 140 128 q 267 75 193 75 q 406 129 340 75 l 406 389 l 247 344 q 163 300 185 326 q 140 225 140 274 m 265 797 q 501 596 501 797 l 501 0 l 407 0 l 407 57 q 238 -6 336 -6 q 44 185 44 -6 l 44 229 q 213 421 44 374 l 407 475 l 407 596 q 375 679 406 653 q 252 706 344 706 q 82 678 160 706 l 82 771 q 265 797 161 797 z "},"æ":{"ha":901,"x_min":46,"x_max":860,"o":"m 764 588 q 635 718 764 718 q 503 588 503 718 l 503 428 l 764 428 l 764 588 m 140 225 l 140 183 q 167 101 140 128 q 254 75 194 75 q 407 124 346 75 l 407 389 l 247 344 q 163 300 185 326 q 140 225 140 274 m 456 729 q 634 804 519 804 q 804 745 749 804 q 860 588 860 686 l 860 346 l 503 346 l 503 206 q 675 82 503 82 q 836 107 749 82 l 836 15 q 671 -7 767 -7 q 458 60 521 -7 q 243 -6 382 -6 q 46 185 46 -6 l 46 229 q 85 349 46 303 q 213 421 125 396 l 406 478 l 406 599 q 375 679 406 653 q 252 706 344 706 q 82 678 160 706 l 82 771 q 278 797 158 797 q 456 729 399 797 z "},"ç":{"ha":514,"x_min":82,"x_max":465,"o":"m 315 -7 l 314 -7 l 303 -56 q 371 -82 344 -58 q 397 -152 397 -106 q 363 -226 397 -199 q 280 -253 328 -253 q 204 -243 232 -253 l 204 -187 q 264 -197 229 -197 q 335 -147 335 -197 q 261 -96 335 -96 l 243 -96 l 261 -4 q 82 190 82 18 l 82 597 q 315 797 82 797 q 463 778 401 797 l 463 688 q 318 706 396 706 q 210 678 240 706 q 181 594 181 651 l 181 194 q 210 110 181 136 q 321 83 240 83 q 465 106 401 83 l 465 13 q 315 -7 390 -7 z "},"è":{"ha":606,"x_min":82,"x_max":532,"o":"m 82 201 l 82 588 q 138 745 82 686 q 308 804 194 804 q 477 745 422 804 q 532 588 532 686 l 532 346 l 179 346 l 179 206 q 218 113 179 143 q 339 82 257 82 q 508 107 421 82 l 508 15 q 343 -7 439 -7 q 82 201 82 -7 m 179 428 l 438 428 l 438 588 q 308 718 438 718 q 179 588 179 718 l 179 428 m 349 851 l 285 851 l 201 1000 l 294 1000 l 349 851 z "},"é":{"ha":606,"x_min":82,"x_max":532,"o":"m 82 201 l 82 588 q 138 745 82 686 q 308 804 194 804 q 477 745 422 804 q 532 588 532 686 l 532 346 l 179 346 l 179 206 q 218 113 179 143 q 339 82 257 82 q 508 107 421 82 l 508 15 q 343 -7 439 -7 q 82 201 82 -7 m 179 428 l 438 428 l 438 588 q 308 718 438 718 q 179 588 179 718 l 179 428 m 429 1000 l 346 851 l 282 851 l 336 1000 l 429 1000 z "},"ê":{"ha":606,"x_min":82,"x_max":532,"o":"m 82 201 l 82 588 q 138 745 82 686 q 308 804 194 804 q 477 745 422 804 q 532 588 532 686 l 532 346 l 179 346 l 179 206 q 218 113 179 143 q 339 82 257 82 q 508 107 421 82 l 508 15 q 343 -7 439 -7 q 82 201 82 -7 m 179 428 l 438 428 l 438 588 q 308 718 438 718 q 179 588 179 718 l 179 428 m 318 939 l 268 851 l 207 851 l 276 1000 l 358 1000 l 429 851 l 368 851 l 318 939 z "},"ë":{"ha":606,"x_min":82,"x_max":532,"o":"m 82 201 l 82 588 q 138 745 82 686 q 308 804 194 804 q 477 745 422 804 q 532 588 532 686 l 532 346 l 179 346 l 179 206 q 218 113 179 143 q 339 82 257 82 q 508 107 421 82 l 508 15 q 343 -7 439 -7 q 82 201 82 -7 m 179 428 l 438 428 l 438 588 q 308 718 438 718 q 179 588 179 718 l 179 428 m 272 924 q 272 898 272 924 q 219 872 272 872 q 165 924 165 872 q 219 976 165 976 q 272 924 272 976 m 458 924 q 458 898 458 924 q 406 872 458 872 q 353 924 353 872 q 406 976 353 976 q 458 924 458 976 z "},"ì":{"ha":290,"x_min":28,"x_max":194,"o":"m 28 1000 l 121 1000 l 175 851 l 111 851 l 28 1000 m 96 785 l 194 785 l 194 0 l 96 0 l 96 785 z "},"í":{"ha":290,"x_min":96,"x_max":260,"o":"m 167 1000 l 260 1000 l 176 851 l 113 851 l 167 1000 m 96 785 l 194 785 l 194 0 l 96 0 l 96 785 z "},"î":{"ha":290,"x_min":35,"x_max":257,"o":"m 186 1000 l 257 851 l 196 851 l 146 939 l 96 851 l 35 851 l 104 1000 l 186 1000 m 96 0 l 96 785 l 194 785 l 194 0 l 96 0 z "},"ï":{"ha":290,"x_min":-1,"x_max":292,"o":"m 292 924 q 292 898 292 924 q 239 872 292 872 q 186 924 186 872 q 239 976 186 976 q 292 924 292 976 m 52 872 q 25 872 52 872 q -1 924 -1 872 q 52 976 -1 976 q 106 924 106 976 q 52 872 106 872 m 96 785 l 194 785 l 194 0 l 96 0 l 96 785 z "},"ð":{"ha":629,"x_min":89,"x_max":539,"o":"m 539 426 l 539 204 q 483 47 539 106 q 313 -12 426 -12 q 144 46 200 -12 q 89 203 89 104 l 89 406 q 141 560 89 503 q 300 617 193 617 q 422 575 375 617 q 340 771 396 674 l 190 694 l 190 765 l 307 824 q 215 933 265 883 l 340 933 q 392 867 368 903 l 532 938 l 532 868 l 426 814 q 539 426 539 622 m 442 204 l 442 489 q 314 535 399 535 q 185 404 185 535 l 185 206 q 313 75 185 75 q 442 204 442 75 z "},"ñ":{"ha":626,"x_min":96,"x_max":538,"o":"m 421 989 l 490 989 l 490 969 q 467 894 490 921 q 403 867 443 867 q 317 894 364 867 q 249 922 269 922 q 217 879 217 922 l 217 864 l 147 864 l 147 882 q 171 958 147 929 q 236 986 194 986 q 326 958 278 986 q 390 929 375 929 q 421 974 421 929 l 421 989 m 190 754 q 360 793 283 793 q 488 745 438 793 q 538 610 538 697 l 538 0 l 439 0 l 439 600 q 336 701 439 701 q 194 665 271 701 l 194 0 l 96 0 l 96 790 l 190 790 l 190 754 z "},"ò":{"ha":614,"x_min":82,"x_max":532,"o":"m 197 1000 l 290 1000 l 344 851 l 281 851 l 197 1000 m 435 588 q 307 717 435 717 q 179 588 179 717 l 179 203 q 307 72 179 72 q 435 203 435 72 l 435 588 m 82 589 q 138 746 82 688 q 307 804 193 804 q 476 746 421 804 q 532 589 532 688 l 532 201 q 476 44 532 103 q 307 -14 421 -14 q 138 44 193 -14 q 82 201 82 103 l 82 589 z "},"ó":{"ha":614,"x_min":82,"x_max":532,"o":"m 435 588 q 307 717 435 717 q 179 588 179 717 l 179 203 q 307 72 179 72 q 435 203 435 72 l 435 588 m 82 589 q 138 746 82 688 q 307 804 193 804 q 476 746 421 804 q 532 589 532 688 l 532 201 q 476 44 532 103 q 307 -14 421 -14 q 138 44 193 -14 q 82 201 82 103 l 82 589 m 335 1000 l 428 1000 l 344 851 l 281 851 l 335 1000 z "},"ô":{"ha":614,"x_min":82,"x_max":532,"o":"m 82 201 l 82 589 q 138 746 82 688 q 307 804 193 804 q 476 746 421 804 q 532 589 532 688 l 532 201 q 476 44 532 103 q 307 -14 421 -14 q 138 44 193 -14 q 82 201 82 103 m 435 203 l 435 588 q 307 717 435 717 q 179 588 179 717 l 179 203 q 307 72 179 72 q 435 203 435 72 m 313 939 l 263 851 l 201 851 l 271 1000 l 353 1000 l 424 851 l 363 851 l 313 939 z "},"õ":{"ha":614,"x_min":82,"x_max":532,"o":"m 415 989 l 485 989 l 485 969 q 461 894 485 921 q 398 867 438 867 q 311 894 358 867 q 243 922 264 922 q 211 879 211 922 l 211 864 l 142 864 l 142 882 q 165 958 142 929 q 231 986 189 986 q 321 958 272 986 q 385 929 369 929 q 415 974 415 929 l 415 989 m 435 588 q 307 717 435 717 q 179 588 179 717 l 179 203 q 307 72 179 72 q 435 203 435 72 l 435 588 m 82 589 q 138 746 82 688 q 307 804 193 804 q 476 746 421 804 q 532 589 532 688 l 532 201 q 476 44 532 103 q 307 -14 421 -14 q 138 44 193 -14 q 82 201 82 103 l 82 589 z "},"ö":{"ha":614,"x_min":82,"x_max":532,"o":"m 435 588 q 307 717 435 717 q 179 588 179 717 l 179 203 q 307 72 179 72 q 435 203 435 72 l 435 588 m 82 589 q 138 746 82 688 q 307 804 193 804 q 476 746 421 804 q 532 589 532 688 l 532 201 q 476 44 532 103 q 307 -14 421 -14 q 138 44 193 -14 q 82 201 82 103 l 82 589 m 463 924 q 463 898 463 924 q 410 872 463 872 q 357 924 357 872 q 410 976 357 976 q 463 924 463 976 m 223 872 q 196 872 223 872 q 169 924 169 872 q 223 976 169 976 q 276 924 276 976 q 223 872 276 872 z "},"÷":{"ha":607,"x_min":56,"x_max":551,"o":"m 365 685 q 365 657 365 685 q 307 628 365 628 q 249 685 249 628 q 307 743 249 743 q 365 685 365 743 m 365 209 q 365 180 365 209 q 307 151 365 151 q 249 209 249 151 q 307 267 249 267 q 365 209 365 267 m 56 490 l 551 490 l 551 408 l 56 408 l 56 490 z "},"ø":{"ha":614,"x_min":82,"x_max":539,"o":"m 532 589 l 532 201 q 476 44 532 103 q 319 -14 421 -14 q 165 22 218 -14 l 154 0 l 86 0 l 119 67 q 82 201 82 118 l 82 589 q 138 746 82 688 q 297 804 193 804 q 457 763 400 804 l 471 790 l 539 790 l 501 714 q 532 589 532 663 m 179 588 l 179 192 l 413 672 q 307 717 383 717 q 179 588 179 717 m 435 203 l 435 576 l 207 108 q 307 72 240 72 q 435 203 435 72 z "},"ù":{"ha":628,"x_min":89,"x_max":532,"o":"m 192 1000 l 285 1000 l 339 851 l 275 851 l 192 1000 m 300 85 q 433 128 369 85 l 433 790 l 532 790 l 532 0 l 438 0 l 438 38 q 273 -3 357 -3 q 139 48 189 -3 q 89 194 89 99 l 89 790 l 188 790 l 188 203 q 300 85 188 85 z "},"ú":{"ha":628,"x_min":89,"x_max":532,"o":"m 300 85 q 433 128 369 85 l 433 790 l 532 790 l 532 0 l 438 0 l 438 38 q 273 -3 357 -3 q 139 48 189 -3 q 89 194 89 99 l 89 790 l 188 790 l 188 203 q 300 85 188 85 m 332 1000 l 425 1000 l 342 851 l 278 851 l 332 1000 z "},"û":{"ha":628,"x_min":89,"x_max":532,"o":"m 300 85 q 433 128 369 85 l 433 790 l 532 790 l 532 0 l 438 0 l 438 38 q 273 -3 357 -3 q 139 48 189 -3 q 89 194 89 99 l 89 790 l 188 790 l 188 203 q 300 85 188 85 m 314 939 l 264 851 l 203 851 l 272 1000 l 354 1000 l 425 851 l 364 851 l 314 939 z "},"ü":{"ha":628,"x_min":89,"x_max":532,"o":"m 300 85 q 433 128 369 85 l 433 790 l 532 790 l 532 0 l 438 0 l 438 38 q 273 -3 357 -3 q 139 48 189 -3 q 89 194 89 99 l 89 790 l 188 790 l 188 203 q 300 85 188 85 m 460 924 q 460 898 460 924 q 407 872 460 872 q 354 924 354 872 q 407 976 354 976 q 460 924 460 976 m 220 872 q 193 872 220 872 q 167 924 167 872 q 220 976 167 976 q 274 924 274 976 q 220 872 274 872 z "},"ý":{"ha":539,"x_min":25,"x_max":514,"o":"m 289 1000 l 382 1000 l 299 851 l 235 851 l 289 1000 m 415 790 l 514 790 l 297 -207 l 203 -207 l 246 0 l 197 0 l 25 790 l 125 790 l 208 397 l 269 69 q 331 397 297 233 l 415 790 z "},"þ":{"ha":632,"x_min":96,"x_max":540,"o":"m 440 600 q 338 703 440 703 q 194 665 269 703 l 194 89 l 311 89 q 440 214 440 89 l 440 600 m 96 1000 l 193 1000 l 193 756 q 361 793 283 793 q 490 745 439 793 q 540 610 540 697 l 540 207 q 484 55 540 110 q 335 0 428 0 l 194 0 l 194 -242 l 96 -242 l 96 1000 z "},"ÿ":{"ha":539,"x_min":25,"x_max":514,"o":"m 415 790 l 514 790 l 297 -207 l 203 -207 l 246 0 l 197 0 l 25 790 l 125 790 l 208 397 l 269 69 q 331 397 297 233 l 415 790 m 413 924 q 413 898 413 924 q 360 872 413 872 q 307 924 307 872 q 360 976 307 976 q 413 924 413 976 m 173 872 q 146 872 173 872 q 119 924 119 872 q 173 976 119 976 q 226 924 226 976 q 173 872 226 872 z "},"Ā":{"ha":608,"x_min":24,"x_max":585,"o":"m 486 0 l 429 261 l 179 261 l 122 0 l 24 0 l 235 933 l 374 933 l 585 0 l 486 0 m 197 347 l 410 347 l 303 838 l 197 347 m 456 1097 l 456 1032 l 147 1032 l 147 1097 l 456 1097 z "},"ā":{"ha":590,"x_min":44,"x_max":501,"o":"m 133 958 l 442 958 l 442 893 l 133 893 l 133 958 m 140 225 l 140 183 q 167 101 140 128 q 267 75 193 75 q 406 129 340 75 l 406 389 l 247 344 q 163 300 185 326 q 140 225 140 274 m 265 797 q 501 596 501 797 l 501 0 l 407 0 l 407 57 q 238 -6 336 -6 q 44 185 44 -6 l 44 229 q 213 421 44 374 l 407 475 l 407 596 q 375 679 406 653 q 252 706 344 706 q 82 678 160 706 l 82 771 q 265 797 161 797 z "},"Ă":{"ha":608,"x_min":24,"x_max":585,"o":"m 486 0 l 429 261 l 179 261 l 122 0 l 24 0 l 235 933 l 374 933 l 585 0 l 486 0 m 197 347 l 410 347 l 303 838 l 197 347 m 413 1032 q 392 1011 413 1032 q 303 990 372 990 q 193 1032 233 990 q 150 1139 153 1074 l 219 1139 q 243 1077 221 1100 q 303 1054 265 1054 q 363 1077 340 1054 q 386 1139 385 1100 l 456 1139 q 413 1032 453 1074 z "},"ă":{"ha":590,"x_min":44,"x_max":501,"o":"m 404 893 q 384 872 404 893 q 294 851 364 851 q 185 893 225 851 q 142 1000 144 935 l 211 1000 q 235 938 213 961 q 294 915 257 915 q 354 938 332 915 q 378 1000 376 961 l 447 1000 q 404 893 444 935 m 140 225 l 140 183 q 167 101 140 128 q 267 75 193 75 q 406 129 340 75 l 406 389 l 247 344 q 163 300 185 326 q 140 225 140 274 m 265 797 q 501 596 501 797 l 501 0 l 407 0 l 407 57 q 238 -6 336 -6 q 44 185 44 -6 l 44 229 q 213 421 44 374 l 407 475 l 407 596 q 375 679 406 653 q 252 706 344 706 q 82 678 160 706 l 82 771 q 265 797 161 797 z "},"Ą":{"ha":608,"x_min":24,"x_max":585,"o":"m 515 -129 q 567 -179 515 -179 l 582 -179 l 582 -244 l 563 -244 q 449 -150 449 -244 q 532 0 449 -64 l 486 0 l 429 261 l 179 261 l 122 0 l 24 0 l 235 933 l 374 933 l 585 0 l 582 0 q 515 -129 515 -53 m 197 347 l 410 347 l 303 838 l 197 347 z "},"ą":{"ha":590,"x_min":44,"x_max":501,"o":"m 265 797 q 501 596 501 797 l 501 0 l 500 0 q 433 -129 433 -53 q 485 -179 433 -179 l 500 -179 l 500 -244 l 481 -244 q 367 -150 367 -244 q 450 0 367 -64 l 407 0 l 407 57 q 238 -6 336 -6 q 44 185 44 -6 l 44 229 q 213 421 44 374 l 407 475 l 407 596 q 375 679 406 653 q 252 706 344 706 q 82 678 160 706 l 82 771 q 265 797 161 797 m 140 225 l 140 183 q 167 101 140 128 q 267 75 193 75 q 406 129 340 75 l 406 389 l 247 344 q 163 300 185 326 q 140 225 140 274 z "},"Ć":{"ha":547,"x_min":82,"x_max":496,"o":"m 82 743 q 332 940 82 940 q 493 918 413 940 l 493 826 q 329 850 411 850 q 214 822 247 850 q 181 738 181 793 l 181 194 q 215 112 181 140 q 334 83 249 83 q 496 106 419 83 l 496 15 q 332 -7 426 -7 q 82 190 82 -7 l 82 743 m 335 1139 l 428 1139 l 344 990 l 281 990 l 335 1139 z "},"ć":{"ha":514,"x_min":82,"x_max":465,"o":"m 82 597 q 315 797 82 797 q 463 778 401 797 l 463 688 q 318 706 396 706 q 210 678 240 706 q 181 594 181 651 l 181 194 q 210 110 181 136 q 321 83 240 83 q 465 106 401 83 l 465 13 q 315 -7 390 -7 q 82 190 82 -7 l 82 597 m 335 1000 l 428 1000 l 344 851 l 281 851 l 335 1000 z "},"Č":{"ha":547,"x_min":82,"x_max":496,"o":"m 181 738 l 181 194 q 215 112 181 140 q 334 83 249 83 q 496 106 419 83 l 496 15 q 332 -7 426 -7 q 82 190 82 -7 l 82 743 q 332 940 82 940 q 493 918 413 940 l 493 826 q 329 850 411 850 q 214 822 247 850 q 181 738 181 793 m 274 990 l 204 1139 l 265 1139 l 315 1051 l 365 1139 l 426 1139 l 356 990 l 274 990 z "},"č":{"ha":514,"x_min":82,"x_max":465,"o":"m 181 594 l 181 194 q 210 110 181 136 q 321 83 240 83 q 465 106 401 83 l 465 13 q 315 -7 390 -7 q 82 190 82 -7 l 82 597 q 315 797 82 797 q 463 778 401 797 l 463 688 q 318 706 396 706 q 210 678 240 706 q 181 594 181 651 m 265 851 l 196 1000 l 257 1000 l 307 913 l 357 1000 l 418 1000 l 347 851 l 265 851 z "},"Ď":{"ha":646,"x_min":96,"x_max":565,"o":"m 96 933 l 340 933 q 508 876 451 933 q 565 724 565 819 l 565 213 q 510 57 565 114 q 343 0 454 0 l 96 0 l 96 933 m 467 215 l 467 722 q 335 847 467 847 l 194 847 l 194 88 l 335 88 q 467 215 467 88 m 272 990 l 203 1139 l 264 1139 l 314 1051 l 364 1139 l 425 1139 l 354 990 l 272 990 z "},"ď":{"ha":629,"x_min":82,"x_max":694,"o":"m 657 999 q 694 960 694 999 q 629 829 694 922 l 582 829 l 618 999 l 657 999 m 426 700 l 313 700 q 181 581 181 700 l 181 201 q 293 85 181 85 q 426 132 376 85 l 426 700 m 426 1000 l 525 1000 l 525 0 l 429 0 l 429 46 q 274 -4 367 -4 q 131 47 181 -4 q 82 194 82 99 l 82 582 q 140 735 82 681 q 296 790 199 790 l 426 790 l 426 1000 z "},"Đ":{"ha":649,"x_min":14,"x_max":568,"o":"m 99 933 l 343 933 q 511 876 454 933 q 568 724 568 819 l 568 213 q 513 57 568 114 q 346 0 457 0 l 99 0 l 99 422 l 14 422 l 14 508 l 99 508 l 99 933 m 469 215 l 469 722 q 338 847 469 847 l 197 847 l 197 508 l 338 508 l 338 422 l 197 422 l 197 88 l 338 88 q 469 215 469 88 z "},"đ":{"ha":622,"x_min":83,"x_max":582,"o":"m 582 935 l 582 871 l 526 871 l 526 0 l 431 0 l 431 46 q 275 -4 368 -4 q 133 47 182 -4 q 83 194 83 99 l 83 582 q 142 735 83 681 q 297 790 200 790 l 428 790 l 428 871 l 254 871 l 254 935 l 428 935 l 428 1000 l 526 1000 l 526 935 l 582 935 m 428 700 l 314 700 q 182 581 182 700 l 182 201 q 294 85 182 85 q 428 132 378 85 l 428 700 z "},"Ē":{"ha":551,"x_min":96,"x_max":500,"o":"m 144 1097 l 453 1097 l 453 1032 l 144 1032 l 144 1097 m 96 933 l 500 933 l 500 846 l 194 846 l 194 514 l 461 514 l 461 426 l 194 426 l 194 88 l 500 88 l 500 0 l 96 0 l 96 933 z "},"ē":{"ha":606,"x_min":82,"x_max":532,"o":"m 82 201 l 82 588 q 138 745 82 686 q 308 804 194 804 q 477 745 422 804 q 532 588 532 686 l 532 346 l 179 346 l 179 206 q 218 113 179 143 q 339 82 257 82 q 508 107 421 82 l 508 15 q 343 -7 439 -7 q 82 201 82 -7 m 179 428 l 438 428 l 438 588 q 308 718 438 718 q 179 588 179 718 l 179 428 m 463 958 l 463 893 l 154 893 l 154 958 l 463 958 z "},"Ė":{"ha":551,"x_min":96,"x_max":500,"o":"m 305 1043 q 278 1043 305 1043 q 251 1095 251 1043 q 305 1147 251 1147 q 358 1095 358 1147 q 305 1043 358 1043 m 96 933 l 500 933 l 500 846 l 194 846 l 194 514 l 461 514 l 461 426 l 194 426 l 194 88 l 500 88 l 500 0 l 96 0 l 96 933 z "},"ė":{"ha":606,"x_min":82,"x_max":532,"o":"m 82 201 l 82 588 q 138 745 82 686 q 308 804 194 804 q 477 745 422 804 q 532 588 532 686 l 532 346 l 179 346 l 179 206 q 218 113 179 143 q 339 82 257 82 q 508 107 421 82 l 508 15 q 343 -7 439 -7 q 82 201 82 -7 m 179 428 l 438 428 l 438 588 q 308 718 438 718 q 179 588 179 718 l 179 428 m 365 956 q 365 930 365 956 q 312 904 365 904 q 258 956 258 904 q 312 1008 258 1008 q 365 956 365 1008 z "},"Ę":{"ha":551,"x_min":96,"x_max":500,"o":"m 500 846 l 194 846 l 194 514 l 461 514 l 461 426 l 194 426 l 194 88 l 500 88 l 500 0 l 499 0 q 432 -129 432 -53 q 483 -179 432 -179 l 499 -179 l 499 -244 l 479 -244 q 365 -150 365 -244 q 449 0 365 -64 l 96 0 l 96 933 l 500 933 l 500 846 z "},"ę":{"ha":606,"x_min":82,"x_max":532,"o":"m 82 201 l 82 588 q 138 745 82 686 q 308 804 194 804 q 477 745 422 804 q 532 588 532 686 l 532 346 l 179 346 l 179 206 q 218 113 179 143 q 339 82 257 82 q 508 107 421 82 l 508 15 q 442 -114 442 -37 q 493 -164 442 -164 l 508 -164 l 508 -229 l 489 -229 q 375 -135 375 -229 q 440 0 375 -62 q 343 -7 394 -7 q 82 201 82 -7 m 179 428 l 438 428 l 438 588 q 308 718 438 718 q 179 588 179 718 l 179 428 z "},"Ě":{"ha":551,"x_min":96,"x_max":500,"o":"m 500 846 l 194 846 l 194 514 l 461 514 l 461 426 l 194 426 l 194 88 l 500 88 l 500 0 l 96 0 l 96 933 l 500 933 l 500 846 m 258 990 l 189 1139 l 250 1139 l 300 1051 l 350 1139 l 411 1139 l 340 990 l 258 990 z "},"ě":{"ha":606,"x_min":82,"x_max":532,"o":"m 82 201 l 82 588 q 138 745 82 686 q 308 804 194 804 q 477 745 422 804 q 532 588 532 686 l 532 346 l 179 346 l 179 206 q 218 113 179 143 q 339 82 257 82 q 508 107 421 82 l 508 15 q 343 -7 439 -7 q 82 201 82 -7 m 179 428 l 438 428 l 438 588 q 308 718 438 718 q 179 588 179 718 l 179 428 m 271 851 l 201 1000 l 263 1000 l 313 913 l 363 1000 l 424 1000 l 353 851 l 271 851 z "},"Ğ":{"ha":622,"x_min":82,"x_max":538,"o":"m 428 1032 q 408 1011 428 1032 q 318 990 388 990 q 208 1032 249 990 q 165 1139 168 1074 l 235 1139 q 258 1077 236 1100 q 318 1054 281 1054 q 378 1077 356 1054 q 401 1139 400 1100 l 471 1139 q 428 1032 468 1074 m 82 735 q 145 885 82 831 q 340 940 208 940 q 508 917 429 940 l 508 822 q 340 849 426 849 q 217 819 254 849 q 181 729 181 789 l 181 194 q 314 82 181 82 q 439 111 401 82 l 439 458 l 538 458 l 538 49 q 322 -7 439 -7 q 82 190 82 -7 l 82 735 z "},"ğ":{"ha":621,"x_min":54,"x_max":592,"o":"m 592 754 l 544 754 q 482 736 508 754 q 525 601 525 685 l 525 490 q 468 342 525 396 q 296 288 411 289 q 217 214 217 288 q 238 165 217 181 q 307 150 258 150 l 389 150 q 579 -11 579 150 l 579 -29 q 328 -207 579 -207 l 271 -207 q 54 -164 131 -207 l 54 -69 q 271 -121 146 -121 l 321 -121 q 485 -29 485 -121 l 485 -15 q 465 45 485 25 q 383 65 444 65 l 300 65 q 172 96 217 65 q 128 185 128 126 l 128 207 q 148 267 128 243 q 199 299 168 290 q 61 490 61 338 l 61 601 q 119 750 61 696 q 283 804 176 804 q 444 767 390 804 q 571 850 472 850 l 592 850 l 592 754 m 426 490 l 426 601 q 395 690 426 661 q 293 719 364 719 q 191 690 222 719 q 160 601 160 661 l 160 490 q 191 401 160 431 q 293 372 222 372 q 395 401 364 372 q 426 490 426 431 m 406 893 q 385 872 406 893 q 296 851 365 851 q 186 893 226 851 q 143 1000 146 935 l 213 1000 q 236 938 214 961 q 296 915 258 915 q 356 938 333 915 q 379 1000 378 961 l 449 1000 q 406 893 446 935 z "},"Ģ":{"ha":622,"x_min":82,"x_max":538,"o":"m 338 -85 q 375 -120 375 -85 q 310 -254 375 -156 l 261 -254 l 299 -85 l 338 -85 m 82 735 q 145 885 82 831 q 340 940 208 940 q 508 917 429 940 l 508 822 q 340 849 426 849 q 217 819 254 849 q 181 729 181 789 l 181 194 q 314 82 181 82 q 439 111 401 82 l 439 458 l 538 458 l 538 49 q 322 -7 439 -7 q 82 190 82 -7 l 82 735 z "},"ģ":{"ha":621,"x_min":54,"x_max":592,"o":"m 592 754 l 544 754 q 482 736 508 754 q 525 601 525 685 l 525 490 q 468 342 525 396 q 296 288 411 289 q 217 214 217 288 q 238 165 217 181 q 307 150 258 150 l 389 150 q 579 -11 579 150 l 579 -29 q 328 -207 579 -207 l 271 -207 q 54 -164 131 -207 l 54 -69 q 271 -121 146 -121 l 321 -121 q 485 -29 485 -121 l 485 -15 q 465 45 485 25 q 383 65 444 65 l 300 65 q 172 96 217 65 q 128 185 128 126 l 128 207 q 148 267 128 243 q 199 299 168 290 q 61 490 61 338 l 61 601 q 119 750 61 696 q 283 804 176 804 q 444 767 390 804 q 571 850 472 850 l 592 850 l 592 754 m 426 490 l 426 601 q 395 690 426 661 q 293 719 364 719 q 191 690 222 719 q 160 601 160 661 l 160 490 q 191 401 160 431 q 293 372 222 372 q 395 401 364 372 q 426 490 426 431 m 290 851 q 253 887 253 851 q 318 1021 253 922 l 367 1021 l 329 851 l 290 851 z "},"Ī":{"ha":290,"x_min":-7,"x_max":301,"o":"m -7 1097 l 301 1097 l 301 1032 l -7 1032 l -7 1097 m 96 933 l 194 933 l 194 0 l 96 0 l 96 933 z "},"ī":{"ha":290,"x_min":-10,"x_max":299,"o":"m -10 958 l 299 958 l 299 893 l -10 893 l -10 958 m 96 785 l 194 785 l 194 0 l 96 0 l 96 785 z "},"Į":{"ha":290,"x_min":61,"x_max":194,"o":"m 194 933 l 194 0 q 128 -129 128 -53 q 179 -179 128 -179 l 194 -179 l 194 -244 l 175 -244 q 61 -150 61 -244 q 144 0 61 -64 l 96 0 l 96 933 l 194 933 z "},"į":{"ha":290,"x_min":61,"x_max":206,"o":"m 96 0 l 96 785 l 194 785 l 194 0 q 128 -129 128 -53 q 179 -179 128 -179 l 194 -179 l 194 -244 l 175 -244 q 61 -150 61 -244 q 144 0 61 -64 l 96 0 m 145 1007 q 175 1007 145 1007 q 206 943 206 1007 q 145 879 206 879 q 85 943 85 879 q 145 1007 85 1007 z "},"İ":{"ha":290,"x_min":89,"x_max":196,"o":"m 142 1043 q 116 1043 142 1043 q 89 1095 89 1043 q 142 1147 89 1147 q 196 1095 196 1147 q 142 1043 196 1043 m 96 933 l 194 933 l 194 0 l 96 0 l 96 933 z "},"ı":{"ha":290,"x_min":96,"x_max":194,"o":"m 96 785 l 194 785 l 194 0 l 96 0 l 96 785 z "},"Ķ":{"ha":601,"x_min":96,"x_max":578,"o":"m 326 -85 q 364 -120 364 -85 q 299 -254 364 -156 l 250 -254 l 288 -85 l 326 -85 m 96 933 l 194 933 l 194 0 l 96 0 l 96 933 m 460 933 l 567 933 l 371 468 l 578 0 l 468 0 l 265 465 l 460 933 z "},"ķ":{"ha":558,"x_min":96,"x_max":536,"o":"m 299 -85 q 336 -120 336 -85 q 271 -254 336 -156 l 224 -254 l 260 -85 l 299 -85 m 96 1000 l 193 1000 l 193 0 l 96 0 l 96 1000 m 418 790 l 522 790 l 349 410 l 536 0 l 426 0 l 243 410 l 418 790 z "},"Ĺ":{"ha":485,"x_min":96,"x_max":478,"o":"m 96 933 l 194 933 l 194 86 l 478 86 l 478 0 l 96 0 l 96 933 m 163 1139 l 256 1139 l 172 990 l 108 990 l 163 1139 z "},"ĺ":{"ha":290,"x_min":96,"x_max":257,"o":"m 96 1000 l 194 1000 l 194 0 l 96 0 l 96 1000 m 164 1208 l 257 1208 l 174 1060 l 110 1060 l 164 1208 z "},"Ļ":{"ha":485,"x_min":96,"x_max":478,"o":"m 288 -85 q 326 -120 326 -85 q 261 -254 326 -156 l 213 -254 l 250 -85 l 288 -85 m 96 933 l 194 933 l 194 86 l 478 86 l 478 0 l 96 0 l 96 933 z "},"ļ":{"ha":290,"x_min":74,"x_max":194,"o":"m 149 -85 q 188 -120 188 -85 q 122 -254 188 -156 l 74 -254 l 111 -85 l 149 -85 m 96 1000 l 194 1000 l 194 0 l 96 0 l 96 1000 z "},"Ľ":{"ha":485,"x_min":33,"x_max":478,"o":"m 194 86 l 478 86 l 478 0 l 96 0 l 96 933 l 194 933 l 194 86 m 103 990 l 33 1139 l 94 1139 l 144 1051 l 194 1139 l 256 1139 l 185 990 l 103 990 z "},"ľ":{"ha":290,"x_min":96,"x_max":364,"o":"m 326 999 q 364 960 364 999 q 299 829 364 922 l 251 829 l 288 999 l 326 999 m 96 1000 l 194 1000 l 194 0 l 96 0 l 96 1000 z "},"Ł":{"ha":486,"x_min":22,"x_max":481,"o":"m 197 86 l 481 86 l 481 0 l 99 0 l 99 388 l 22 347 l 22 426 l 99 465 l 99 933 l 197 933 l 197 517 l 332 586 l 332 508 l 197 439 l 197 86 z "},"ł":{"ha":290,"x_min":19,"x_max":272,"o":"m 194 0 l 96 0 l 96 608 l 19 565 l 19 643 l 96 686 l 96 1000 l 194 1000 l 194 742 l 272 786 l 272 707 l 194 664 l 194 0 z "},"Ń":{"ha":694,"x_min":96,"x_max":599,"o":"m 510 158 l 500 465 l 500 933 l 599 933 l 599 0 l 485 0 l 293 483 q 183 774 282 513 l 192 468 l 192 0 l 96 0 l 96 933 l 210 933 q 510 158 431 372 m 369 1139 l 463 1139 l 379 990 l 315 990 l 369 1139 z "},"ń":{"ha":626,"x_min":96,"x_max":538,"o":"m 190 754 q 360 793 283 793 q 488 745 438 793 q 538 610 538 697 l 538 0 l 439 0 l 439 600 q 336 701 439 701 q 194 665 271 701 l 194 0 l 96 0 l 96 790 l 190 790 l 190 754 m 336 1000 l 429 1000 l 346 851 l 282 851 l 336 1000 z "},"Ņ":{"ha":694,"x_min":96,"x_max":599,"o":"m 336 -85 q 374 -120 374 -85 q 308 -254 374 -156 l 260 -254 l 297 -85 l 336 -85 m 510 158 l 500 465 l 500 933 l 599 933 l 599 0 l 485 0 l 293 483 q 183 774 282 513 l 192 468 l 192 0 l 96 0 l 96 933 l 210 933 q 510 158 431 372 z "},"ņ":{"ha":626,"x_min":96,"x_max":538,"o":"m 310 -85 q 347 -120 347 -85 q 282 -254 347 -156 l 235 -254 l 271 -85 l 310 -85 m 190 754 q 360 793 283 793 q 488 745 438 793 q 538 610 538 697 l 538 0 l 439 0 l 439 600 q 336 701 439 701 q 194 665 271 701 l 194 0 l 96 0 l 96 790 l 190 790 l 190 754 z "},"Ň":{"ha":694,"x_min":96,"x_max":599,"o":"m 510 158 l 500 465 l 500 933 l 599 933 l 599 0 l 485 0 l 293 483 q 183 774 282 513 l 192 468 l 192 0 l 96 0 l 96 933 l 210 933 q 510 158 431 372 m 307 990 l 238 1139 l 299 1139 l 349 1051 l 399 1139 l 460 1139 l 389 990 l 307 990 z "},"ň":{"ha":626,"x_min":96,"x_max":538,"o":"m 190 790 l 190 754 q 360 793 283 793 q 488 745 438 793 q 538 610 538 697 l 538 0 l 439 0 l 439 600 q 336 701 439 701 q 194 665 271 701 l 194 0 l 96 0 l 96 790 l 190 790 m 268 851 l 199 1000 l 260 1000 l 310 913 l 360 1000 l 421 1000 l 350 851 l 268 851 z "},"Ō":{"ha":635,"x_min":82,"x_max":553,"o":"m 454 725 q 317 857 454 857 q 181 725 181 857 l 181 208 q 317 75 181 75 q 454 208 454 75 l 454 725 m 82 726 q 142 886 82 825 q 317 947 201 947 q 493 886 433 947 q 553 726 553 825 l 553 206 q 493 47 553 107 q 317 -14 433 -14 q 141 47 200 -14 q 82 206 82 107 l 82 726 m 164 1097 l 472 1097 l 472 1032 l 164 1032 l 164 1097 z "},"ō":{"ha":614,"x_min":82,"x_max":532,"o":"m 435 588 q 307 717 435 717 q 179 588 179 717 l 179 203 q 307 72 179 72 q 435 203 435 72 l 435 588 m 82 589 q 138 746 82 688 q 307 804 193 804 q 476 746 421 804 q 532 589 532 688 l 532 201 q 476 44 532 103 q 307 -14 421 -14 q 138 44 193 -14 q 82 201 82 103 l 82 589 m 151 958 l 460 958 l 460 893 l 151 893 l 151 958 z "},"Ő":{"ha":635,"x_min":82,"x_max":553,"o":"m 454 725 q 317 857 454 857 q 181 725 181 857 l 181 208 q 317 75 181 75 q 454 208 454 75 l 454 725 m 82 726 q 142 886 82 825 q 317 947 201 947 q 493 886 433 947 q 553 726 553 825 l 553 206 q 493 47 553 107 q 317 -14 433 -14 q 141 47 200 -14 q 82 206 82 107 l 82 726 m 281 1139 l 368 1139 l 283 990 l 225 990 l 281 1139 m 400 1139 l 488 1139 l 403 990 l 344 990 l 400 1139 z "},"ő":{"ha":614,"x_min":82,"x_max":532,"o":"m 435 588 q 307 717 435 717 q 179 588 179 717 l 179 203 q 307 72 179 72 q 435 203 435 72 l 435 588 m 82 589 q 138 746 82 688 q 307 804 193 804 q 476 746 421 804 q 532 589 532 688 l 532 201 q 476 44 532 103 q 307 -14 421 -14 q 138 44 193 -14 q 82 201 82 103 l 82 589 m 279 1000 l 367 1000 l 282 851 l 224 851 l 279 1000 m 399 1000 l 486 1000 l 401 851 l 343 851 l 399 1000 z "},"Œ":{"ha":931,"x_min":110,"x_max":889,"o":"m 889 846 l 583 846 l 583 514 l 850 514 l 850 426 l 583 426 l 583 88 l 889 88 l 889 0 l 331 0 q 165 57 219 0 q 110 213 110 114 l 110 724 q 167 876 110 819 q 333 933 224 933 l 889 933 l 889 846 m 339 88 l 485 88 l 485 847 l 339 847 q 208 722 208 847 l 208 215 q 339 88 208 88 z "},"œ":{"ha":978,"x_min":93,"x_max":897,"o":"m 93 201 l 93 589 q 149 746 93 688 q 322 804 204 804 q 496 736 439 804 q 670 804 553 804 q 842 745 788 804 q 897 588 897 686 l 897 346 l 544 346 l 544 206 q 583 113 544 143 q 704 82 622 82 q 874 107 786 82 l 874 15 q 708 -7 804 -7 q 499 57 563 -7 q 323 -14 442 -14 q 149 44 204 -14 q 93 201 93 103 m 446 203 l 446 588 q 318 717 446 717 q 190 588 190 717 l 190 203 q 318 72 190 72 q 446 203 446 72 m 544 428 l 803 428 l 803 588 q 674 718 803 718 q 544 588 544 718 l 544 428 z "},"Ŕ":{"ha":635,"x_min":96,"x_max":576,"o":"m 332 375 l 194 375 l 194 0 l 96 0 l 96 933 l 322 933 q 490 877 433 933 q 547 724 547 821 l 547 586 q 428 392 547 436 l 576 0 l 468 0 l 332 375 m 194 461 l 318 461 q 449 588 449 461 l 449 719 q 318 846 449 846 l 194 846 l 194 461 m 429 1139 l 346 990 l 282 990 l 336 1139 l 429 1139 z "},"ŕ":{"ha":393,"x_min":96,"x_max":386,"o":"m 351 794 l 386 794 l 386 700 l 339 700 q 249 674 289 700 q 194 636 236 665 l 194 0 l 96 0 l 96 790 l 190 790 l 190 731 q 212 746 194 733 q 233 760 229 758 q 251 771 236 763 q 273 781 265 779 q 294 788 281 783 q 351 794 315 794 m 265 1000 l 358 1000 l 275 851 l 211 851 l 265 1000 z "},"Ŗ":{"ha":635,"x_min":96,"x_max":576,"o":"m 332 375 l 194 375 l 194 0 l 96 0 l 96 933 l 322 933 q 490 877 433 933 q 547 724 547 821 l 547 586 q 428 392 547 436 l 576 0 l 468 0 l 332 375 m 194 461 l 318 461 q 449 588 449 461 l 449 719 q 318 846 449 846 l 194 846 l 194 461 m 321 -85 q 358 -120 358 -85 q 293 -254 358 -156 l 244 -254 l 282 -85 l 321 -85 z "},"ŗ":{"ha":393,"x_min":74,"x_max":386,"o":"m 149 -85 q 188 -120 188 -85 q 122 -254 188 -156 l 74 -254 l 111 -85 l 149 -85 m 351 794 l 386 794 l 386 700 l 339 700 q 249 674 289 700 q 194 636 236 665 l 194 0 l 96 0 l 96 790 l 190 790 l 190 731 q 212 746 194 733 q 233 760 229 758 q 251 771 236 763 q 273 781 265 779 q 294 788 281 783 q 351 794 315 794 z "},"Ř":{"ha":635,"x_min":96,"x_max":576,"o":"m 332 375 l 194 375 l 194 0 l 96 0 l 96 933 l 322 933 q 490 877 433 933 q 547 724 547 821 l 547 586 q 428 392 547 436 l 576 0 l 468 0 l 332 375 m 194 461 l 318 461 q 449 588 449 461 l 449 719 q 318 846 449 846 l 194 846 l 194 461 m 269 990 l 200 1139 l 261 1139 l 311 1051 l 361 1139 l 422 1139 l 351 990 l 269 990 z "},"ř":{"ha":393,"x_min":96,"x_max":386,"o":"m 351 794 l 386 794 l 386 700 l 339 700 q 249 674 289 700 q 194 636 236 665 l 194 0 l 96 0 l 96 790 l 190 790 l 190 731 q 212 746 194 733 q 233 760 229 758 q 251 771 236 763 q 273 781 265 779 q 294 788 281 783 q 351 794 315 794 m 201 851 l 132 1000 l 193 1000 l 243 913 l 293 1000 l 354 1000 l 283 851 l 201 851 z "},"Ś":{"ha":539,"x_min":39,"x_max":494,"o":"m 39 744 q 100 888 39 836 q 272 940 161 940 q 458 917 382 940 l 458 822 q 282 849 386 849 q 139 740 139 849 l 139 674 q 158 597 139 625 q 221 544 176 569 l 382 454 q 494 269 494 393 l 494 194 q 429 46 494 99 q 241 -7 364 -7 q 46 21 118 -7 l 46 115 q 232 85 128 85 q 396 200 396 85 l 396 258 q 379 331 396 304 q 319 381 363 357 l 160 468 q 39 663 39 533 l 39 744 m 290 1139 l 383 1139 l 300 990 l 236 990 l 290 1139 z "},"ś":{"ha":501,"x_min":39,"x_max":463,"o":"m 39 604 q 94 749 39 701 q 276 797 150 797 q 431 774 354 797 l 431 682 q 278 707 361 707 q 165 683 194 707 q 136 601 136 658 l 136 565 q 153 497 136 521 q 218 453 171 474 l 338 394 q 463 225 463 333 l 463 188 q 211 -7 463 -7 q 44 15 117 -7 l 44 107 q 205 82 117 82 q 328 109 293 82 q 364 189 364 136 l 364 217 q 346 277 364 256 q 275 324 328 299 l 156 381 q 39 557 39 436 l 39 604 m 282 1000 l 375 1000 l 292 851 l 228 851 l 282 1000 z "},"Ş":{"ha":539,"x_min":39,"x_max":494,"o":"m 257 -85 q 294 -120 294 -85 q 229 -254 294 -156 l 182 -254 l 218 -85 l 257 -85 m 39 744 q 100 888 39 836 q 272 940 161 940 q 458 917 382 940 l 458 822 q 282 849 386 849 q 139 740 139 849 l 139 674 q 158 597 139 625 q 221 544 176 569 l 382 454 q 494 269 494 393 l 494 194 q 429 46 494 99 q 241 -7 364 -7 q 46 21 118 -7 l 46 115 q 232 85 128 85 q 396 200 396 85 l 396 258 q 379 331 396 304 q 319 381 363 357 l 160 468 q 39 663 39 533 l 39 744 z "},"ş":{"ha":501,"x_min":39,"x_max":463,"o":"m 246 -85 q 285 -120 285 -85 q 219 -254 285 -156 l 171 -254 l 208 -85 l 246 -85 m 39 604 q 94 749 39 701 q 276 797 150 797 q 431 774 354 797 l 431 682 q 278 707 361 707 q 165 683 194 707 q 136 601 136 658 l 136 565 q 153 497 136 521 q 218 453 171 474 l 338 394 q 463 225 463 333 l 463 188 q 211 -7 463 -7 q 44 15 117 -7 l 44 107 q 205 82 117 82 q 328 109 293 82 q 364 189 364 136 l 364 217 q 346 277 364 256 q 275 324 328 299 l 156 381 q 39 557 39 436 l 39 604 z "},"Š":{"ha":539,"x_min":39,"x_max":494,"o":"m 494 269 l 494 194 q 429 46 494 99 q 241 -7 364 -7 q 46 21 118 -7 l 46 115 q 232 85 128 85 q 396 200 396 85 l 396 258 q 379 331 396 304 q 319 381 363 357 l 160 468 q 39 663 39 533 l 39 744 q 100 888 39 836 q 272 940 161 940 q 458 917 382 940 l 458 822 q 282 849 386 849 q 139 740 139 849 l 139 674 q 158 597 139 625 q 221 544 176 569 l 382 454 q 494 269 494 393 m 235 990 l 165 1139 l 226 1139 l 276 1051 l 326 1139 l 388 1139 l 317 990 l 235 990 z "},"š":{"ha":501,"x_min":39,"x_max":463,"o":"m 463 225 l 463 188 q 211 -7 463 -7 q 44 15 117 -7 l 44 107 q 205 82 117 82 q 328 109 293 82 q 364 189 364 136 l 364 217 q 346 277 364 256 q 275 324 328 299 l 156 381 q 39 557 39 436 l 39 604 q 94 749 39 701 q 276 797 150 797 q 431 774 354 797 l 431 682 q 278 707 361 707 q 165 683 194 707 q 136 601 136 658 l 136 565 q 153 497 136 521 q 218 453 171 474 l 338 394 q 463 225 463 333 m 213 851 l 143 1000 l 204 1000 l 254 913 l 304 1000 l 365 1000 l 294 851 l 213 851 z "},"Ţ":{"ha":486,"x_min":13,"x_max":474,"o":"m 474 933 l 474 846 l 293 846 l 293 0 l 193 0 l 193 846 l 13 846 l 13 933 l 474 933 m 249 -85 q 288 -120 288 -85 q 222 -254 288 -156 l 174 -254 l 211 -85 l 249 -85 z "},"ţ":{"ha":404,"x_min":7,"x_max":383,"o":"m 246 -85 q 285 -120 285 -85 q 219 -254 285 -156 l 171 -254 l 208 -85 l 246 -85 m 193 933 l 193 790 l 369 790 l 369 703 l 193 703 l 193 175 q 217 105 193 126 q 289 83 240 83 q 383 99 338 83 l 383 8 q 279 -6 328 -6 q 93 171 93 -6 l 93 703 l 7 703 l 7 790 l 97 790 l 125 933 l 193 933 z "},"Ť":{"ha":486,"x_min":13,"x_max":474,"o":"m 474 933 l 474 846 l 293 846 l 293 0 l 193 0 l 193 846 l 13 846 l 13 933 l 474 933 m 200 990 l 131 1139 l 192 1139 l 242 1051 l 292 1139 l 353 1139 l 282 990 l 200 990 z "},"ť":{"ha":404,"x_min":7,"x_max":431,"o":"m 193 933 l 193 790 l 369 790 l 369 703 l 193 703 l 193 175 q 217 105 193 126 q 289 83 240 83 q 383 99 338 83 l 383 8 q 279 -6 328 -6 q 93 171 93 -6 l 93 703 l 7 703 l 7 790 l 97 790 l 125 933 l 193 933 m 393 1079 q 431 1044 431 1079 q 357 860 431 994 l 314 860 l 357 1079 l 393 1079 z "},"Ū":{"ha":647,"x_min":89,"x_max":558,"o":"m 169 1097 l 478 1097 l 478 1032 l 169 1032 l 169 1097 m 460 933 l 558 933 l 558 206 q 499 47 558 107 q 324 -14 440 -14 q 148 47 207 -14 q 89 206 89 107 l 89 933 l 188 933 l 188 208 q 324 75 188 75 q 460 208 460 75 l 460 933 z "},"ū":{"ha":628,"x_min":89,"x_max":532,"o":"m 154 958 l 463 958 l 463 893 l 154 893 l 154 958 m 300 85 q 433 128 369 85 l 433 790 l 532 790 l 532 0 l 438 0 l 438 38 q 273 -3 357 -3 q 139 48 189 -3 q 89 194 89 99 l 89 790 l 188 790 l 188 203 q 300 85 188 85 z "},"Ů":{"ha":647,"x_min":89,"x_max":558,"o":"m 460 933 l 558 933 l 558 206 q 499 47 558 107 q 324 -14 440 -14 q 148 47 207 -14 q 89 206 89 107 l 89 933 l 188 933 l 188 208 q 324 75 188 75 q 460 208 460 75 l 460 933 m 375 1065 q 362 1101 375 1088 q 326 1114 349 1114 q 291 1101 304 1114 q 278 1065 278 1088 q 326 1015 278 1015 q 375 1065 375 1015 m 251 993 q 238 1008 251 993 q 224 1065 224 1022 q 251 1137 224 1108 q 327 1165 279 1165 q 402 1137 375 1165 q 429 1065 429 1108 q 402 993 429 1022 q 327 964 375 964 q 251 993 279 964 z "},"ů":{"ha":628,"x_min":89,"x_max":532,"o":"m 300 85 q 433 128 369 85 l 433 790 l 532 790 l 532 0 l 438 0 l 438 38 q 273 -3 357 -3 q 139 48 189 -3 q 89 194 89 99 l 89 790 l 188 790 l 188 203 q 300 85 188 85 m 361 926 q 348 962 361 949 q 313 975 335 975 q 277 962 290 975 q 264 926 264 949 q 313 876 264 876 q 361 926 361 876 m 238 854 q 224 869 238 854 q 210 926 210 883 q 238 998 210 969 q 313 1026 265 1026 q 388 998 361 1026 q 415 926 415 969 q 388 854 415 883 q 313 825 361 825 q 238 854 265 825 z "},"Ű":{"ha":647,"x_min":89,"x_max":558,"o":"m 276 1139 l 364 1139 l 279 990 l 221 990 l 276 1139 m 396 1139 l 483 1139 l 399 990 l 340 990 l 396 1139 m 460 933 l 558 933 l 558 206 q 499 47 558 107 q 324 -14 440 -14 q 148 47 207 -14 q 89 206 89 107 l 89 933 l 188 933 l 188 208 q 324 75 188 75 q 460 208 460 75 l 460 933 z "},"ű":{"ha":628,"x_min":89,"x_max":532,"o":"m 271 1000 l 358 1000 l 274 851 l 215 851 l 271 1000 m 390 1000 l 478 1000 l 393 851 l 335 851 l 390 1000 m 300 85 q 433 128 369 85 l 433 790 l 532 790 l 532 0 l 438 0 l 438 38 q 273 -3 357 -3 q 139 48 189 -3 q 89 194 89 99 l 89 790 l 188 790 l 188 203 q 300 85 188 85 z "},"Ų":{"ha":647,"x_min":89,"x_max":558,"o":"m 460 933 l 558 933 l 558 206 q 444 10 558 63 q 383 -115 383 -44 q 435 -165 383 -165 l 450 -165 l 450 -231 l 431 -231 q 317 -136 317 -231 q 372 -11 317 -69 q 324 -14 342 -14 q 148 47 207 -14 q 89 206 89 107 l 89 933 l 188 933 l 188 208 q 324 75 188 75 q 460 208 460 75 l 460 933 z "},"ų":{"ha":628,"x_min":89,"x_max":532,"o":"m 300 85 q 433 128 369 85 l 433 790 l 532 790 l 532 0 l 531 0 q 464 -129 464 -53 q 515 -179 464 -179 l 531 -179 l 531 -244 l 511 -244 q 397 -150 397 -244 q 481 0 397 -64 l 438 0 l 438 38 q 273 -3 357 -3 q 139 48 189 -3 q 89 194 89 99 l 89 790 l 188 790 l 188 203 q 300 85 188 85 z "},"Ÿ":{"ha":568,"x_min":6,"x_max":563,"o":"m 333 0 l 235 0 l 235 315 l 6 933 l 107 933 l 201 679 q 286 431 207 664 q 463 933 338 590 l 563 933 l 333 315 l 333 0 m 424 1063 q 424 1037 424 1063 q 371 1011 424 1011 q 318 1063 318 1011 q 371 1115 318 1115 q 424 1063 424 1115 m 184 1011 q 157 1011 184 1011 q 131 1063 131 1011 q 184 1115 131 1115 q 238 1063 238 1115 q 184 1011 238 1011 z "},"Ź":{"ha":531,"x_min":39,"x_max":492,"o":"m 46 933 l 492 933 l 492 849 l 143 86 l 486 86 l 486 0 l 39 0 l 39 86 l 386 846 l 46 846 l 46 933 m 285 1139 l 378 1139 l 294 990 l 231 990 l 285 1139 z "},"ź":{"ha":446,"x_min":28,"x_max":417,"o":"m 35 790 l 417 790 l 417 714 l 128 86 l 417 86 l 417 0 l 28 0 l 28 76 l 313 704 l 35 704 l 35 790 m 244 1000 l 338 1000 l 254 851 l 190 851 l 244 1000 z "},"Ż":{"ha":531,"x_min":39,"x_max":492,"o":"m 263 1043 q 236 1043 263 1043 q 210 1095 210 1043 q 263 1147 210 1147 q 317 1095 317 1147 q 263 1043 317 1043 m 46 933 l 492 933 l 492 849 l 143 86 l 486 86 l 486 0 l 39 0 l 39 86 l 386 846 l 46 846 l 46 933 z "},"ż":{"ha":446,"x_min":28,"x_max":417,"o":"m 235 904 q 209 904 235 904 q 182 956 182 904 q 235 1008 182 1008 q 289 956 289 1008 q 235 904 289 904 m 35 790 l 417 790 l 417 714 l 128 86 l 417 86 l 417 0 l 28 0 l 28 76 l 313 704 l 35 704 l 35 790 z "},"Ž":{"ha":531,"x_min":39,"x_max":492,"o":"m 492 933 l 492 849 l 143 86 l 486 86 l 486 0 l 39 0 l 39 86 l 386 846 l 46 846 l 46 933 l 492 933 m 229 990 l 160 1139 l 221 1139 l 271 1051 l 321 1139 l 382 1139 l 311 990 l 229 990 z "},"ž":{"ha":446,"x_min":28,"x_max":417,"o":"m 417 790 l 417 714 l 128 86 l 417 86 l 417 0 l 28 0 l 28 76 l 313 704 l 35 704 l 35 790 l 417 790 m 192 851 l 122 1000 l 183 1000 l 233 913 l 283 1000 l 344 1000 l 274 851 l 192 851 z "},"ƒ":{"ha":425,"x_min":-31,"x_max":439,"o":"m -31 81 l 0 79 q 68 103 46 79 q 100 182 90 126 l 167 590 l 57 590 l 57 674 l 181 674 l 204 814 q 263 956 219 910 q 396 1003 306 1003 q 439 1000 408 1003 l 439 917 q 392 918 428 918 q 335 894 357 918 q 303 814 313 871 l 279 674 l 381 674 l 381 590 l 265 590 l 199 183 q 142 42 185 89 q 7 -6 99 -6 q -31 -3 -6 -6 l -31 81 z "},"Ș":{"ha":539,"x_min":39,"x_max":494,"o":"m 261 -85 q 299 -120 299 -85 q 233 -254 299 -156 l 185 -254 l 222 -85 l 261 -85 m 39 744 q 100 888 39 836 q 272 940 161 940 q 458 917 382 940 l 458 822 q 282 849 386 849 q 139 740 139 849 l 139 674 q 158 597 139 625 q 221 544 176 569 l 382 454 q 494 269 494 393 l 494 194 q 429 46 494 99 q 241 -7 364 -7 q 46 21 118 -7 l 46 115 q 232 85 128 85 q 396 200 396 85 l 396 258 q 379 331 396 304 q 319 381 363 357 l 160 468 q 39 663 39 533 l 39 744 z "},"ș":{"ha":501,"x_min":39,"x_max":463,"o":"m 260 -85 q 297 -120 297 -85 q 232 -254 297 -156 l 183 -254 l 221 -85 l 260 -85 m 39 604 q 94 749 39 701 q 276 797 150 797 q 431 774 354 797 l 431 682 q 278 707 361 707 q 165 683 194 707 q 136 601 136 658 l 136 565 q 153 497 136 521 q 218 453 171 474 l 338 394 q 463 225 463 333 l 463 188 q 211 -7 463 -7 q 44 15 117 -7 l 44 107 q 205 82 117 82 q 328 109 293 82 q 364 189 364 136 l 364 217 q 346 277 364 256 q 275 324 328 299 l 156 381 q 39 557 39 436 l 39 604 z "},"Ț":{"ha":486,"x_min":13,"x_max":474,"o":"m 474 933 l 474 846 l 293 846 l 293 0 l 193 0 l 193 846 l 13 846 l 13 933 l 474 933 m 244 -85 q 282 -120 282 -85 q 217 -254 282 -156 l 168 -254 l 206 -85 l 244 -85 z "},"ț":{"ha":404,"x_min":7,"x_max":383,"o":"m 250 -85 q 288 -120 288 -85 q 222 -254 288 -156 l 174 -254 l 211 -85 l 250 -85 m 193 933 l 193 790 l 369 790 l 369 703 l 193 703 l 193 175 q 217 105 193 126 q 289 83 240 83 q 383 99 338 83 l 383 8 q 279 -6 328 -6 q 93 171 93 -6 l 93 703 l 7 703 l 7 790 l 97 790 l 125 933 l 193 933 z "},"ˆ":{"ha":486,"x_min":132,"x_max":354,"o":"m 354 851 l 293 851 l 243 939 l 193 851 l 132 851 l 201 1000 l 283 1000 l 354 851 z "},"ˇ":{"ha":486,"x_min":132,"x_max":354,"o":"m 293 1000 l 354 1000 l 283 851 l 201 851 l 132 1000 l 193 1000 l 243 913 l 293 1000 z "},"ˉ":{"ha":486,"x_min":89,"x_max":397,"o":"m 89 958 l 397 958 l 397 893 l 89 893 l 89 958 z "},"˘":{"ha":486,"x_min":90,"x_max":396,"o":"m 353 893 q 333 872 353 893 q 243 851 313 851 q 133 893 174 851 q 90 1000 93 935 l 160 1000 q 183 938 161 961 q 243 915 206 915 q 303 938 281 915 q 326 1000 325 961 l 396 1000 q 353 893 393 935 z "},"˙":{"ha":486,"x_min":188,"x_max":294,"o":"m 241 904 q 214 904 241 904 q 188 956 188 904 q 241 1008 188 1008 q 294 956 294 1008 q 241 904 294 904 z "},"˚":{"ha":486,"x_min":140,"x_max":346,"o":"m 292 926 q 278 962 292 949 q 243 975 265 975 q 208 962 221 975 q 194 926 194 949 q 243 876 194 876 q 292 926 292 876 m 168 854 q 154 869 168 854 q 140 926 140 883 q 168 998 140 969 q 244 1026 196 1026 q 319 998 292 1026 q 346 926 346 969 q 319 854 346 883 q 244 825 292 825 q 168 854 196 825 z "},"˛":{"ha":486,"x_min":176,"x_max":310,"o":"m 243 -129 q 294 -179 243 -179 l 310 -179 l 310 -244 l 290 -244 q 176 -150 176 -244 q 260 0 176 -64 l 310 0 q 243 -129 243 -53 z "},"˜":{"ha":486,"x_min":71,"x_max":414,"o":"m 344 989 l 414 989 l 414 969 q 390 894 414 921 q 327 867 367 867 q 240 894 288 867 q 172 922 193 922 q 140 879 140 922 l 140 864 l 71 864 l 71 882 q 94 958 71 929 q 160 986 118 986 q 250 958 201 986 q 314 929 299 929 q 344 974 344 929 l 344 989 z "},"˝":{"ha":486,"x_min":111,"x_max":374,"o":"m 167 1000 l 254 1000 l 169 851 l 111 851 l 167 1000 m 286 1000 l 374 1000 l 289 851 l 231 851 l 286 1000 z "},"π":{"ha":626,"x_min":94,"x_max":632,"o":"m 632 790 l 632 703 l 538 703 l 538 0 l 439 0 l 439 703 l 194 703 l 194 0 l 96 0 l 94 790 l 632 790 z "},"ँ":{"ha":0,"x_min":-368,"x_max":76,"o":"m -10 1163 l 76 1163 l 76 1160 q 22 1031 76 1069 q -146 992 -33 992 q -313 1031 -258 992 q -368 1160 -368 1069 l -368 1163 l -282 1163 q -251 1091 -282 1111 q -146 1071 -221 1071 q -40 1091 -71 1071 q -10 1163 -10 1111 m -145 1157 q -173 1157 -145 1157 q -201 1214 -201 1157 q -145 1271 -201 1271 q -89 1214 -89 1271 q -145 1157 -89 1157 z "},"ं":{"ha":0,"x_min":-204,"x_max":-87,"o":"m -146 1010 q -175 1010 -146 1010 q -204 1068 -204 1010 q -146 1126 -204 1126 q -87 1068 -87 1126 q -146 1010 -87 1010 z "},"ः":{"ha":279,"x_min":60,"x_max":176,"o":"m 119 0 q 60 58 60 0 q 118 117 60 117 q 176 58 176 117 q 119 0 176 0 m 118 476 q 89 476 118 476 q 60 535 60 476 q 118 593 60 593 q 176 535 176 593 q 118 476 176 476 z "},"अ":{"ha":781,"x_min":50,"x_max":814,"o":"m 590 903 l 814 903 l 814 825 l 681 825 l 681 0 l 590 0 l 590 296 l 428 296 l 428 236 q 372 97 428 147 q 221 47 315 47 q 50 68 126 47 l 50 153 q 206 131 132 131 q 338 238 338 131 l 338 338 q 314 417 338 389 q 222 444 290 444 l 139 444 l 139 529 l 222 529 q 314 556 290 529 q 338 635 338 583 l 338 719 q 206 826 338 826 q 65 801 138 826 l 65 889 q 207 910 131 910 q 372 860 317 910 q 428 721 428 810 l 428 635 q 356 488 428 515 q 426 375 417 461 l 590 375 l 590 903 z "},"आ":{"ha":1103,"x_min":83,"x_max":1138,"o":"m 1138 903 l 1138 825 l 1004 825 l 1004 0 l 914 0 l 914 825 l 714 825 l 714 0 l 624 0 l 624 296 l 461 296 l 461 236 q 405 97 461 147 q 254 47 349 47 q 83 68 160 47 l 83 153 q 239 131 165 131 q 371 238 371 131 l 371 338 q 347 417 371 389 q 256 444 324 444 l 172 444 l 172 529 l 256 529 q 347 556 324 529 q 371 635 371 583 l 371 719 q 239 826 371 826 q 99 801 171 826 l 99 889 q 240 910 164 910 q 406 860 350 910 q 461 721 461 810 l 461 635 q 389 488 461 515 q 460 375 450 461 l 624 375 l 624 903 l 1138 903 z "},"इ":{"ha":553,"x_min":-33,"x_max":586,"o":"m 157 238 l 157 129 q 276 119 213 119 q 407 211 407 119 l 407 263 q 382 331 407 308 q 292 354 357 354 l 260 354 q 57 522 57 354 l 57 532 q 260 700 57 700 l 368 700 l 368 825 l -33 825 l -33 903 l 586 903 l 586 825 l 458 825 l 458 619 l 260 619 q 172 597 196 619 q 147 531 147 575 l 147 524 q 172 457 147 479 q 260 435 197 435 l 292 435 q 497 264 497 435 l 497 210 q 446 79 497 122 q 283 36 394 36 q 157 49 213 36 l 157 -90 l 71 -90 l 71 238 l 157 238 z "},"ई":{"ha":553,"x_min":-33,"x_max":586,"o":"m 458 619 l 260 619 q 172 597 196 619 q 147 531 147 575 l 147 524 q 172 457 147 479 q 260 435 197 435 l 292 435 q 497 264 497 435 l 497 210 q 446 79 497 122 q 283 36 394 36 q 157 49 213 36 l 157 -90 l 71 -90 l 71 238 l 157 238 l 157 129 q 276 119 213 119 q 407 211 407 119 l 407 263 q 382 331 407 308 q 292 354 357 354 l 260 354 q 57 522 57 354 l 57 532 q 260 700 57 700 l 368 700 l 368 825 l -33 825 l -33 903 l 361 903 q 314 1069 314 992 q 365 1187 314 1147 q 493 1226 415 1226 q 563 1221 501 1226 l 563 1140 q 511 1144 539 1144 q 404 1051 404 1144 q 451 903 404 994 l 586 903 l 586 825 l 458 825 l 458 619 z "},"उ":{"ha":556,"x_min":-33,"x_max":589,"o":"m 371 729 q 353 825 371 783 l -33 825 l -33 903 l 589 903 l 589 825 l 446 825 q 461 731 461 797 l 461 613 q 390 467 461 490 q 461 321 461 440 l 461 183 q 215 -4 461 -4 q 67 17 140 -4 l 67 104 q 215 78 149 78 q 371 185 371 78 l 371 318 q 348 397 371 368 q 257 426 325 425 l 172 426 l 172 510 l 260 510 q 349 538 328 511 q 371 614 371 564 l 371 729 z "},"ऊ":{"ha":786,"x_min":-33,"x_max":819,"o":"m 371 729 q 353 825 371 783 l -33 825 l -33 903 l 819 903 l 819 825 l 446 825 q 461 731 461 797 l 461 613 q 414 479 461 515 q 538 492 489 492 q 687 444 636 492 q 738 310 738 396 l 738 174 q 692 44 738 90 q 560 -1 647 -1 l 532 -1 l 532 82 l 542 82 q 624 106 601 83 q 647 175 647 129 l 647 303 q 531 408 647 408 l 446 408 q 461 321 461 374 l 461 183 q 215 -4 461 -4 q 67 17 140 -4 l 67 104 q 215 78 149 78 q 371 185 371 78 l 371 318 q 348 397 371 368 q 257 426 325 425 l 172 426 l 172 510 l 260 510 q 349 538 328 511 q 371 614 371 564 l 371 729 z "},"ऋ":{"ha":942,"x_min":-33,"x_max":975,"o":"m 975 825 l 524 825 l 524 596 q 654 583 593 583 q 785 688 785 583 l 785 700 l 872 700 l 872 315 l 814 315 q 735 286 760 315 q 710 190 710 257 q 835 74 710 74 q 913 82 876 74 l 913 3 q 829 -4 879 -4 q 679 44 738 -4 q 621 189 621 92 q 788 385 621 378 l 788 542 q 668 499 747 499 q 524 511 589 499 l 524 0 l 436 0 l 436 131 q 443 361 436 306 l 439 361 q 344 249 422 328 l 169 65 l 54 65 l 54 71 l 433 463 l 433 588 q 300 607 372 607 q 149 490 149 607 l 149 408 l 60 408 l 60 493 q 118 640 60 589 q 293 692 176 692 q 433 672 364 692 l 433 825 l -33 825 l -33 903 l 975 903 l 975 825 z "},"ऌ":{"ha":858,"x_min":-33,"x_max":892,"o":"m 758 825 l 758 83 q 685 86 747 86 q 599 63 622 86 q 576 -19 576 39 q 603 -97 576 -76 q 666 -117 631 -117 q 719 -115 701 -117 q 748 -109 736 -112 q 763 -106 760 -106 l 763 -190 q 679 -203 700 -203 q 537 -157 588 -203 q 486 -18 486 -111 q 668 168 486 165 l 668 564 q 569 583 622 583 q 458 486 458 583 l 458 290 l 368 290 l 368 486 q 264 583 368 583 q 182 558 204 583 q 160 483 160 532 l 160 215 q 190 117 160 151 q 299 82 219 82 q 372 88 336 82 l 372 7 q 297 0 338 0 q 69 214 69 0 l 69 485 q 117 619 69 571 q 267 667 165 667 q 413 603 369 667 q 567 667 461 667 q 668 647 617 667 l 668 825 l -33 825 l -33 903 l 892 903 l 892 825 l 758 825 z "},"ऍ":{"ha":593,"x_min":-33,"x_max":626,"o":"m 315 -7 q 94 176 94 -7 l 94 825 l -33 825 l -33 903 l 626 903 l 626 825 l 508 825 l 508 551 q 467 424 508 471 q 335 376 425 376 q 303 378 314 376 l 303 463 q 326 461 310 461 q 399 485 379 461 q 418 554 418 508 l 418 825 l 185 825 l 185 178 q 317 76 185 76 q 485 104 404 76 l 485 21 q 315 -7 421 -7 m 442 1175 l 528 1175 l 528 1174 q 472 1044 528 1083 q 305 1004 417 1004 q 138 1043 193 1004 q 83 1174 83 1082 l 83 1175 l 169 1175 q 200 1103 169 1122 q 305 1083 231 1083 q 410 1103 379 1083 q 442 1175 442 1124 z "},"ऎ":{"ha":593,"x_min":-33,"x_max":626,"o":"m 507 903 l 626 903 l 626 825 l 508 825 l 508 551 q 467 424 508 471 q 335 376 425 376 q 303 378 314 376 l 303 463 q 326 461 310 461 q 399 485 379 461 q 418 554 418 508 l 418 825 l 185 825 l 185 178 q 317 76 185 76 q 485 104 404 76 l 485 21 q 315 -7 421 -7 q 94 176 94 -7 l 94 825 l -33 825 l -33 903 l 421 903 q 391 992 421 961 q 285 1024 361 1024 q 117 1072 169 1024 q 65 1221 65 1121 l 153 1221 q 181 1131 153 1161 q 288 1100 210 1100 q 454 1051 401 1100 q 507 903 507 1001 z "},"ए":{"ha":593,"x_min":-33,"x_max":626,"o":"m 321 -7 q 94 185 94 -7 l 94 825 l -33 825 l -33 903 l 626 903 l 626 825 l 508 825 l 508 551 q 467 424 508 471 q 335 376 425 376 q 303 378 314 376 l 303 463 q 326 461 310 461 q 399 485 379 461 q 418 554 418 508 l 418 825 l 185 825 l 185 185 q 216 103 185 131 q 328 76 247 76 q 490 104 410 76 l 490 21 q 321 -7 424 -7 z "},"ऐ":{"ha":593,"x_min":-33,"x_max":626,"o":"m 626 903 l 626 825 l 508 825 l 508 551 q 467 424 508 471 q 335 376 425 376 q 303 378 314 376 l 303 463 q 326 461 310 461 q 399 485 379 461 q 418 554 418 508 l 418 825 l 185 825 l 185 178 q 317 76 185 76 q 485 104 404 76 l 485 21 q 315 -7 421 -7 q 94 176 94 -7 l 94 825 l -33 825 l -33 903 l 413 903 l 183 1221 l 286 1221 l 506 903 l 626 903 z "},"ऑ":{"ha":1104,"x_min":83,"x_max":1138,"o":"m 1138 903 l 1138 825 l 1004 825 l 1004 0 l 914 0 l 914 825 l 714 825 l 714 0 l 624 0 l 624 296 l 461 296 l 461 236 q 405 97 461 147 q 254 47 349 47 q 83 68 160 47 l 83 153 q 239 131 165 131 q 371 238 371 131 l 371 338 q 347 417 371 389 q 256 444 324 444 l 172 444 l 172 529 l 256 529 q 347 556 324 529 q 371 635 371 583 l 371 719 q 239 826 371 826 q 99 801 171 826 l 99 889 q 240 910 164 910 q 406 860 350 910 q 461 721 461 810 l 461 635 q 389 488 461 515 q 460 375 450 461 l 624 375 l 624 903 l 1138 903 m 1040 1168 l 1040 1165 q 986 1035 1040 1072 q 819 997 932 997 q 651 1035 706 997 q 596 1165 596 1074 l 596 1168 l 682 1168 q 713 1097 682 1117 q 817 1076 743 1076 q 923 1097 892 1076 q 954 1168 954 1117 l 1040 1168 z "},"ऒ":{"ha":1104,"x_min":83,"x_max":1138,"o":"m 1001 903 l 1138 903 l 1138 825 l 1004 825 l 1004 0 l 914 0 l 914 825 l 714 825 l 714 0 l 624 0 l 624 296 l 461 296 l 461 236 q 405 97 461 147 q 254 47 349 47 q 83 68 160 47 l 83 153 q 239 131 165 131 q 371 238 371 131 l 371 338 q 347 417 371 389 q 256 444 324 444 l 172 444 l 172 529 l 256 529 q 347 556 324 529 q 371 635 371 583 l 371 719 q 239 826 371 826 q 99 801 171 826 l 99 889 q 240 910 164 910 q 406 860 350 910 q 461 721 461 810 l 461 635 q 389 488 461 515 q 460 375 450 461 l 624 375 l 624 903 l 915 903 q 886 992 915 961 q 781 1024 857 1024 q 613 1072 665 1024 q 561 1221 561 1121 l 647 1221 q 676 1131 647 1161 q 782 1100 704 1100 q 949 1051 896 1100 q 1001 903 1001 1001 z "},"ओ":{"ha":1104,"x_min":83,"x_max":1138,"o":"m 1138 903 l 1138 825 l 1004 825 l 1004 0 l 914 0 l 914 825 l 714 825 l 714 0 l 624 0 l 624 296 l 461 296 l 461 236 q 405 97 461 147 q 254 47 349 47 q 83 68 160 47 l 83 153 q 239 131 165 131 q 371 238 371 131 l 371 338 q 347 417 371 389 q 256 444 324 444 l 172 444 l 172 529 l 256 529 q 347 556 324 529 q 371 635 371 583 l 371 719 q 239 826 371 826 q 99 801 171 826 l 99 889 q 240 910 164 910 q 406 860 350 910 q 461 721 461 810 l 461 635 q 389 488 461 515 q 460 375 450 461 l 624 375 l 624 903 l 908 903 l 789 1088 q 696 1142 753 1142 q 660 1139 682 1142 l 660 1218 q 719 1221 685 1221 q 856 1131 797 1221 l 1003 903 l 1138 903 z "},"औ":{"ha":1104,"x_min":83,"x_max":1138,"o":"m 1138 903 l 1138 825 l 1004 825 l 1004 0 l 914 0 l 914 825 l 714 825 l 714 0 l 624 0 l 624 296 l 461 296 l 461 236 q 405 97 461 147 q 254 47 349 47 q 83 68 160 47 l 83 153 q 239 131 165 131 q 371 238 371 131 l 371 338 q 347 417 371 389 q 256 444 324 444 l 172 444 l 172 529 l 256 529 q 347 556 324 529 q 371 635 371 583 l 371 719 q 239 826 371 826 q 99 801 171 826 l 99 889 q 240 910 164 910 q 406 860 350 910 q 461 721 461 810 l 461 635 q 389 488 461 515 q 460 375 450 461 l 624 375 l 624 903 l 779 903 l 657 1088 q 564 1142 621 1142 q 528 1139 547 1142 l 528 1218 q 586 1221 550 1221 q 722 1126 658 1221 l 871 903 l 918 903 l 865 1076 q 841 1126 854 1111 q 808 1142 828 1142 q 768 1139 788 1142 l 768 1218 q 808 1221 790 1221 q 936 1117 904 1221 l 1000 903 l 1138 903 z "},"क":{"ha":808,"x_min":-33,"x_max":842,"o":"m 572 101 l 540 103 l 540 188 q 565 186 549 186 q 638 210 618 186 q 657 279 657 235 l 657 526 q 543 621 657 621 q 451 608 494 621 l 451 0 l 363 0 l 363 108 q 260 94 307 94 q 64 268 64 94 l 64 526 q 260 700 64 700 q 301 696 285 700 l 301 617 q 265 619 279 619 q 151 525 151 619 l 151 269 q 265 175 151 175 q 363 188 313 175 l 363 825 l -33 825 l -33 903 l 842 903 l 842 825 l 451 825 l 451 688 q 549 701 490 701 q 744 528 744 701 l 744 275 q 703 149 744 196 q 572 101 661 101 z "},"ख":{"ha":1015,"x_min":-33,"x_max":1049,"o":"m 361 728 q 343 825 361 786 l -33 825 l -33 903 l 1049 903 l 1049 825 l 914 825 l 914 0 l 825 0 l 825 189 q 717 176 783 176 q 573 220 618 176 q 528 350 528 264 l 528 522 q 572 653 528 610 q 715 697 617 697 q 825 685 769 697 l 825 825 l 432 825 q 447 728 447 792 l 447 560 q 246 358 447 358 q 153 368 199 358 l 153 246 q 379 78 153 78 q 571 103 485 78 l 571 17 q 358 -6 485 -6 q 148 55 232 -6 q 64 244 64 115 l 64 614 l 153 614 l 153 449 q 243 440 203 440 q 361 560 361 440 l 361 728 m 825 604 q 717 617 775 617 q 636 593 658 617 q 614 522 614 569 l 614 350 q 636 279 614 303 q 722 256 658 256 q 825 268 785 256 l 825 604 z "},"ग":{"ha":667,"x_min":-33,"x_max":700,"o":"m 40 354 l 79 351 q 176 447 176 351 l 176 825 l -33 825 l -33 903 l 700 903 l 700 825 l 567 825 l 567 0 l 476 0 l 476 825 l 267 825 l 267 443 q 222 315 267 363 q 90 267 178 267 q 40 271 53 267 l 40 354 z "},"घ":{"ha":683,"x_min":-33,"x_max":717,"o":"m 493 825 l 197 825 q 186 728 186 790 l 186 632 q 210 563 186 586 q 297 539 233 539 l 346 539 l 346 454 l 294 454 q 203 431 229 454 q 178 361 178 407 l 178 297 q 220 199 178 228 q 347 169 263 169 q 493 189 432 169 l 493 825 m 96 728 q 106 825 96 789 l -33 825 l -33 903 l 717 903 l 717 825 l 583 825 l 583 0 l 493 0 l 493 107 q 339 88 415 88 q 155 138 222 88 q 88 292 88 189 l 88 363 q 169 496 88 472 q 96 631 96 525 l 96 728 z "},"ङ":{"ha":622,"x_min":-33,"x_max":656,"o":"m 567 435 q 539 435 567 435 q 510 492 510 435 q 567 550 510 550 q 625 492 625 550 q 567 435 625 435 m 506 233 l 506 172 q 268 -8 506 -8 q 76 13 169 -8 l 76 96 q 268 75 163 75 q 415 172 415 75 l 415 232 q 390 301 415 278 q 300 324 365 324 l 274 324 q 71 492 71 324 l 71 533 q 274 701 71 701 l 375 701 l 375 825 l -33 825 l -33 903 l 656 903 l 656 825 l 465 825 l 465 619 l 274 619 q 185 597 210 619 q 161 531 161 575 l 161 494 q 186 427 161 450 q 274 404 211 404 l 300 404 q 506 233 506 404 z "},"च":{"ha":642,"x_min":-33,"x_max":675,"o":"m 124 469 q 136 588 124 531 l 17 588 l 17 669 l 376 669 l 376 590 l 228 590 q 214 469 214 550 l 214 271 q 242 193 214 218 q 336 168 271 168 q 451 186 401 168 l 451 825 l -33 825 l -33 903 l 675 903 l 675 825 l 542 825 l 542 0 l 451 0 l 451 104 q 328 86 397 86 q 124 269 124 86 l 124 469 z "},"छ":{"ha":704,"x_min":-33,"x_max":738,"o":"m 538 507 q 515 583 538 558 q 444 607 493 607 q 356 596 394 607 l 356 675 q 442 688 393 688 l 442 825 l 194 825 q 179 728 179 790 l 179 544 q 203 476 179 499 q 292 451 226 453 l 365 451 l 365 369 l 293 369 q 199 346 226 369 q 172 275 172 322 l 172 232 q 209 136 172 161 q 355 111 246 111 q 501 138 464 111 q 538 236 538 164 l 538 507 m 89 728 q 104 825 89 779 l -33 825 l -33 903 l 738 903 l 738 825 l 525 825 l 525 675 q 626 514 626 649 l 626 235 q 565 76 626 122 q 356 29 504 29 q 145 75 208 29 q 82 231 82 121 l 82 278 q 165 410 82 383 q 89 543 89 438 l 89 728 z "},"ज":{"ha":765,"x_min":-33,"x_max":799,"o":"m 300 492 q 288 588 300 550 l 135 588 l 135 669 l 575 669 l 575 825 l -33 825 l -33 903 l 799 903 l 799 825 l 665 825 l 665 0 l 575 0 l 575 590 l 379 590 q 390 494 390 557 l 390 249 q 335 108 390 157 q 175 58 279 58 q 46 75 108 58 l 46 158 q 174 142 113 142 q 300 250 300 142 l 300 492 z "},"झ":{"ha":835,"x_min":-33,"x_max":868,"o":"m 644 435 l 644 825 l 469 825 l 469 619 l 272 619 q 183 598 208 619 q 158 532 158 576 l 158 524 q 183 458 158 481 q 268 435 207 436 l 644 435 m 278 354 l 271 354 q 68 522 68 354 l 68 533 q 272 701 68 701 l 379 701 l 379 825 l -33 825 l -33 903 l 868 903 l 868 825 l 735 825 l 735 0 l 644 0 l 644 358 l 442 358 q 481 261 481 329 l 481 199 q 431 69 481 111 q 276 26 382 26 q 158 39 208 26 l 158 -83 l 71 -83 l 71 218 l 158 218 l 158 121 q 268 107 208 107 q 392 203 392 107 l 392 261 q 366 331 392 307 q 278 354 340 354 z "},"ञ":{"ha":797,"x_min":-33,"x_max":831,"o":"m 336 260 l 336 517 q 309 597 336 569 q 216 625 282 625 q 89 603 150 625 l 89 686 q 215 708 143 708 q 426 521 426 708 l 426 426 l 607 426 l 607 825 l -33 825 l -33 903 l 831 903 l 831 825 l 697 825 l 697 0 l 607 0 l 607 347 l 426 347 l 426 257 q 214 68 426 68 q 79 90 146 68 l 79 174 q 213 151 157 151 q 336 260 336 151 z "},"ट":{"ha":544,"x_min":-33,"x_max":578,"o":"m 167 514 l 167 194 q 315 78 167 78 q 476 100 394 78 l 476 17 q 303 -6 404 -6 q 139 47 201 -6 q 76 193 76 99 l 76 517 q 283 696 76 696 l 363 696 l 363 825 l -33 825 l -33 903 l 578 903 l 578 825 l 453 825 l 453 613 l 289 613 q 194 588 222 613 q 167 514 167 563 z "},"ठ":{"ha":564,"x_min":-33,"x_max":597,"o":"m 399 174 l 399 525 q 373 599 399 572 q 282 625 347 625 q 191 599 217 625 q 165 525 165 572 l 165 174 q 282 74 165 74 q 399 174 399 74 m 488 526 l 488 175 q 436 41 488 89 q 282 -7 385 -7 q 128 41 179 -7 q 76 175 76 89 l 76 526 q 236 703 76 685 l 236 825 l -33 825 l -33 903 l 597 903 l 597 825 l 326 825 l 326 703 q 488 526 488 685 z "},"ड":{"ha":572,"x_min":-33,"x_max":606,"o":"m 506 222 l 506 172 q 268 -8 506 -8 q 79 11 165 -8 l 79 99 q 268 75 163 75 q 415 174 415 75 l 415 221 q 390 290 415 267 q 300 313 365 313 l 274 313 q 71 481 71 313 l 71 533 q 274 701 71 701 l 375 701 l 375 825 l -33 825 l -33 903 l 606 903 l 606 825 l 465 825 l 465 619 l 274 619 q 185 597 210 619 q 161 531 161 575 l 161 483 q 186 416 161 439 q 274 393 211 393 l 300 393 q 506 222 506 393 z "},"ढ":{"ha":565,"x_min":-33,"x_max":599,"o":"m 328 336 q 271 326 307 336 l 271 408 q 335 418 296 418 q 457 374 411 418 q 503 246 503 331 l 503 181 q 290 -7 503 -7 q 76 182 76 -7 l 76 524 q 281 699 76 699 l 368 699 l 368 825 l -33 825 l -33 903 l 599 903 l 599 825 l 457 825 l 457 615 l 281 615 q 190 592 215 615 q 165 522 165 568 l 165 185 q 193 105 165 133 q 290 76 221 76 q 387 104 360 76 q 414 183 414 132 l 414 244 q 328 336 414 336 z "},"ण":{"ha":849,"x_min":-33,"x_max":882,"o":"m 382 825 l 163 825 l 163 347 q 185 273 163 299 q 272 247 208 247 q 359 273 336 247 q 382 347 382 299 l 382 825 m 472 346 q 272 165 472 165 q 72 346 72 165 l 72 825 l -33 825 l -33 903 l 882 903 l 882 825 l 749 825 l 749 0 l 660 0 l 660 825 l 472 825 l 472 346 z "},"त":{"ha":604,"x_min":-33,"x_max":638,"o":"m 72 514 q 126 649 72 600 q 283 699 181 699 q 414 681 347 699 l 414 825 l -33 825 l -33 903 l 638 903 l 638 825 l 504 825 l 504 0 l 414 0 l 414 599 q 289 615 331 615 q 163 513 163 615 l 163 175 q 189 105 163 128 q 282 83 215 82 l 282 -1 l 253 -1 q 72 171 72 -1 l 72 514 z "},"थ":{"ha":761,"x_min":65,"x_max":794,"o":"m 572 903 l 794 903 l 794 825 l 661 825 l 661 0 l 572 0 l 572 142 q 371 119 489 119 q 140 183 215 119 q 65 382 65 247 l 65 524 l 189 524 q 316 550 278 524 q 354 653 354 576 l 354 725 q 339 803 354 781 q 269 826 324 826 q 197 802 214 826 q 179 725 179 778 l 185 658 l 97 658 q 90 725 90 696 q 132 863 90 817 q 267 910 174 910 q 399 864 361 910 q 438 725 438 818 l 438 647 q 378 490 438 538 q 194 442 319 442 l 156 442 l 156 383 q 204 244 156 285 q 366 203 253 203 q 572 225 479 203 l 572 903 z "},"द":{"ha":561,"x_min":-33,"x_max":594,"o":"m 60 286 l 60 522 q 267 697 60 697 l 369 697 l 369 825 l -33 825 l -33 903 l 594 903 l 594 825 l 460 825 l 460 614 l 267 614 q 176 590 201 614 q 150 521 150 567 l 150 288 q 281 185 150 185 q 394 197 336 185 l 394 332 l 481 332 l 481 -11 l 394 -11 l 394 115 q 274 103 340 103 q 116 151 172 103 q 60 286 60 199 z "},"ध":{"ha":683,"x_min":-33,"x_max":718,"o":"m 96 728 q 108 825 96 778 l -33 825 l -33 903 l 336 903 l 336 825 l 200 825 q 186 728 186 790 l 186 638 q 210 568 186 592 q 297 544 233 544 l 346 544 l 346 460 l 294 460 q 203 436 229 460 q 178 367 178 413 l 178 294 q 219 198 178 226 q 344 169 261 169 q 493 189 428 169 l 493 903 l 718 903 l 718 825 l 583 825 l 583 0 l 493 0 l 493 106 q 326 88 431 88 q 155 138 222 88 q 88 289 88 188 l 88 368 q 169 501 88 478 q 96 636 96 531 l 96 728 z "},"न":{"ha":794,"x_min":-33,"x_max":829,"o":"m 247 583 q 173 562 194 583 q 151 496 151 540 l 151 256 q 173 189 151 211 q 248 167 194 167 q 323 189 301 167 q 344 256 344 211 l 344 483 q 328 583 344 550 l 247 583 m 604 583 l 415 583 q 426 545 421 578 q 432 485 432 513 l 432 254 q 248 85 432 85 q 64 254 64 85 l 64 497 q 247 665 64 665 l 604 665 l 604 825 l -33 825 l -33 903 l 829 903 l 829 825 l 694 825 l 694 0 l 604 0 l 604 583 z "},"ऩ":{"ha":806,"x_min":-33,"x_max":839,"o":"m 39 -76 q 10 -76 39 -76 q -19 -18 -19 -76 q 39 40 -19 40 q 97 -18 97 40 q 39 -76 97 -76 m 258 583 q 183 562 204 583 q 163 496 163 540 l 163 256 q 183 189 163 211 q 258 167 204 167 q 333 188 313 167 q 354 256 354 210 l 354 483 q 336 583 354 547 l 258 583 m 615 583 l 425 583 q 431 565 428 574 q 436 546 433 557 q 442 485 442 524 l 442 254 q 258 85 442 85 q 74 254 74 85 l 74 497 q 258 665 74 665 l 615 665 l 615 825 l -33 825 l -33 903 l 839 903 l 839 825 l 706 825 l 706 0 l 615 0 l 615 583 z "},"प":{"ha":590,"x_min":-33,"x_max":624,"o":"m 400 825 l 164 825 l 164 357 q 288 260 164 260 q 400 278 351 260 l 400 825 m 400 0 l 400 196 q 281 176 350 176 q 126 223 178 176 q 74 356 74 269 l 74 825 l -33 825 l -33 903 l 624 903 l 624 825 l 490 825 l 490 0 l 400 0 z "},"फ":{"ha":835,"x_min":-33,"x_max":869,"o":"m 385 825 l 164 825 l 164 344 q 288 246 164 246 q 385 258 326 246 l 385 825 m 682 518 q 581 611 682 611 q 472 596 528 611 l 472 0 l 385 0 l 385 178 q 281 164 319 164 q 126 210 178 164 q 74 343 74 257 l 74 825 l -33 825 l -33 903 l 869 903 l 869 825 l 472 825 l 472 679 q 578 694 521 694 q 723 648 674 694 q 772 519 772 601 l 772 264 q 727 136 772 182 q 592 90 682 90 l 571 92 l 567 92 l 567 175 q 657 197 632 174 q 682 267 682 219 l 682 518 z "},"ब":{"ha":583,"x_min":-33,"x_max":617,"o":"m -33 903 l 617 903 l 617 825 l 483 825 l 483 0 l 399 0 l 399 114 q 281 97 353 97 q 64 278 64 97 l 64 521 q 278 701 64 701 q 399 683 349 701 l 399 825 l -33 825 l -33 903 m 283 622 q 154 543 168 622 l 399 349 l 399 604 q 283 622 349 622 m 151 281 q 283 176 151 176 q 399 193 353 176 l 399 269 l 151 467 l 151 281 z "},"भ":{"ha":815,"x_min":65,"x_max":849,"o":"m 357 550 l 357 732 q 337 802 357 779 q 260 825 317 825 q 183 802 203 825 q 163 732 163 779 l 168 661 l 78 661 q 72 733 72 701 q 260 910 72 910 q 447 733 447 910 l 447 550 l 625 550 l 625 903 l 849 903 l 849 825 l 715 825 l 715 0 l 625 0 l 625 472 l 444 472 l 444 253 q 399 126 444 168 q 256 85 354 85 q 111 126 157 85 q 65 253 65 168 l 65 385 q 110 509 65 468 q 256 550 156 550 l 357 550 m 357 254 l 357 472 l 256 472 q 174 451 194 472 q 154 383 154 431 l 154 254 q 174 187 154 208 q 256 165 194 165 q 337 186 317 165 q 357 254 357 207 z "},"म":{"ha":792,"x_min":-33,"x_max":825,"o":"m 603 0 l 603 519 l 425 519 l 425 253 q 236 85 425 85 q 92 126 138 85 q 46 253 46 168 l 46 432 q 91 556 46 515 q 236 597 136 597 l 338 597 l 338 825 l -33 825 l -33 903 l 825 903 l 825 825 l 692 825 l 692 0 l 603 0 m 425 597 l 603 597 l 603 825 l 425 825 l 425 597 m 338 254 l 338 519 l 236 519 q 155 499 175 519 q 135 431 135 478 l 135 254 q 155 187 135 208 q 236 165 175 165 q 317 187 297 165 q 338 254 338 208 z "},"य":{"ha":693,"x_min":-33,"x_max":726,"o":"m 254 728 q 244 825 254 789 l -33 825 l -33 903 l 726 903 l 726 825 l 593 825 l 593 0 l 503 0 l 503 135 q 349 118 436 118 q 75 357 75 118 l 75 533 l 104 533 q 223 553 192 533 q 254 635 254 574 l 254 728 m 343 728 l 343 626 q 164 461 343 464 l 164 363 q 209 242 164 281 q 339 203 254 203 q 503 218 424 203 l 503 825 l 333 825 q 343 728 343 792 z "},"र":{"ha":578,"x_min":-33,"x_max":611,"o":"m 404 728 q 393 825 404 783 l -33 825 l -33 903 l 611 903 l 611 825 l 485 825 q 494 728 494 792 l 494 538 q 294 357 494 357 q 174 376 232 357 l 174 199 q 328 76 174 76 q 501 101 413 76 l 501 17 q 313 -7 417 -7 q 147 45 210 -7 q 83 197 83 97 l 83 625 l 174 625 l 174 458 q 289 439 238 439 q 404 538 404 439 l 404 728 z "},"ऱ":{"ha":581,"x_min":-33,"x_max":614,"o":"m 407 728 q 396 825 407 783 l -33 825 l -33 903 l 614 903 l 614 825 l 486 825 q 497 728 497 792 l 497 538 q 297 357 497 357 q 176 376 235 357 l 176 199 q 331 76 176 76 q 504 101 415 76 l 504 17 q 316 -7 419 -7 q 149 45 213 -7 q 86 197 86 97 l 86 625 l 176 625 l 176 458 q 292 439 240 439 q 407 538 407 439 l 407 728 m 83 -84 q 83 -113 83 -84 q 25 -142 83 -142 q -33 -84 -33 -142 q 25 -26 -33 -26 q 83 -84 83 -26 z "},"ल":{"ha":860,"x_min":-33,"x_max":893,"o":"m 71 214 l 71 485 q 119 619 71 571 q 269 667 167 667 q 414 603 371 667 q 568 667 461 667 q 669 647 624 667 l 669 825 l -33 825 l -33 903 l 893 903 l 893 825 l 760 825 l 760 0 l 669 0 l 669 564 q 572 583 628 583 q 460 486 460 583 l 460 288 l 369 288 l 369 486 q 265 583 369 583 q 183 558 206 583 q 161 483 161 532 l 161 215 q 191 117 161 151 q 303 82 221 82 q 382 88 343 82 l 382 7 q 300 0 344 0 q 71 214 71 0 z "},"ळ":{"ha":824,"x_min":-33,"x_max":857,"o":"m 456 496 l 456 174 q 565 72 456 72 q 647 99 626 72 q 668 174 668 125 l 668 496 q 647 572 668 544 q 564 599 625 599 q 456 496 456 599 m 157 496 l 157 174 q 178 99 157 125 q 260 72 200 72 q 369 174 369 72 l 369 496 q 346 572 369 544 q 262 599 322 599 q 179 572 201 599 q 157 496 157 544 m 753 496 l 753 174 q 567 -7 753 -7 q 413 65 453 -7 q 258 -7 374 -7 q 71 174 71 -7 l 71 497 q 260 676 71 676 q 413 603 374 676 q 518 671 442 658 l 518 825 l -33 825 l -33 903 l 857 903 l 857 825 l 608 825 l 608 672 q 753 496 753 653 z "},"ऴ":{"ha":824,"x_min":-33,"x_max":857,"o":"m 413 -207 q 383 -207 413 -207 q 354 -149 354 -207 q 413 -90 354 -90 q 471 -149 471 -90 q 413 -207 471 -207 m 456 496 l 456 174 q 565 72 456 72 q 647 99 626 72 q 668 174 668 125 l 668 496 q 647 572 668 544 q 564 599 625 599 q 456 496 456 599 m 157 496 l 157 174 q 178 99 157 125 q 260 72 200 72 q 369 174 369 72 l 369 496 q 346 572 369 544 q 262 599 322 599 q 179 572 201 599 q 157 496 157 544 m 753 496 l 753 174 q 567 -7 753 -7 q 413 65 453 -7 q 258 -7 374 -7 q 71 174 71 -7 l 71 497 q 260 676 71 676 q 413 603 374 676 q 518 671 442 658 l 518 825 l -33 825 l -33 903 l 857 903 l 857 825 l 608 825 l 608 672 q 753 496 753 653 z "},"व":{"ha":592,"x_min":-33,"x_max":625,"o":"m 281 621 q 154 518 154 621 l 154 281 q 281 176 154 176 q 403 194 363 176 l 403 604 q 281 621 361 621 m 401 825 l -33 825 l -33 903 l 625 903 l 625 825 l 492 825 l 492 0 l 401 0 l 401 114 q 274 96 351 96 q 65 281 65 96 l 65 519 q 119 653 65 604 q 274 701 172 701 q 401 685 340 701 l 401 825 z "},"श":{"ha":831,"x_min":89,"x_max":865,"o":"m 500 728 l 500 532 q 299 353 500 353 q 179 372 233 353 l 179 203 q 220 110 179 142 q 335 78 261 78 q 496 103 408 78 l 496 19 q 317 -6 415 -6 q 154 50 219 -6 q 89 201 89 106 l 89 561 l 179 561 l 179 454 q 294 435 238 435 q 410 533 410 435 l 410 726 q 294 825 410 825 q 179 725 179 825 q 183 674 179 686 l 93 674 q 89 728 89 686 q 140 862 89 814 q 294 910 192 910 q 449 862 397 910 q 500 728 500 814 m 640 903 l 865 903 l 865 825 l 731 825 l 731 0 l 640 0 l 640 903 z "},"ष":{"ha":607,"x_min":-35,"x_max":640,"o":"m -35 903 l 640 903 l 640 825 l 507 825 l 507 0 l 418 0 l 418 181 q 285 160 353 160 q 127 207 182 160 q 72 339 72 254 l 72 825 l -35 825 l -35 903 m 418 825 l 163 825 l 163 706 l 418 468 l 418 825 m 163 340 q 292 242 163 242 q 418 264 354 242 l 418 381 l 163 619 l 163 340 z "},"स":{"ha":835,"x_min":-33,"x_max":868,"o":"m 379 728 q 367 825 379 778 l -33 825 l -33 903 l 868 903 l 868 825 l 735 825 l 735 0 l 644 0 l 644 401 l 422 401 q 269 351 372 351 q 172 364 217 351 l 172 199 q 328 76 172 76 q 497 101 408 76 l 497 17 q 310 -7 413 -7 q 145 45 208 -7 q 82 197 82 97 l 82 625 l 172 625 l 172 446 q 263 433 219 433 q 379 532 379 433 l 379 728 m 644 481 l 644 825 l 457 825 q 468 728 468 792 l 468 532 q 463 481 468 501 l 644 481 z "},"ह":{"ha":583,"x_min":-33,"x_max":617,"o":"m 67 183 l 67 260 q 142 390 67 356 q 69 517 71 422 l 69 536 q 269 701 69 701 l 390 701 l 390 825 l -33 825 l -33 903 l 617 903 l 617 825 l 481 825 l 481 619 l 269 619 q 183 598 207 619 q 160 533 160 576 l 160 517 q 185 452 160 474 q 274 431 210 431 l 339 431 q 473 390 431 431 q 515 265 515 349 l 515 224 l 429 224 l 429 263 q 411 331 429 310 q 333 351 393 351 l 278 351 q 157 261 157 351 l 157 186 q 322 74 157 74 q 494 96 418 74 l 494 15 q 316 -7 435 -7 q 132 43 197 -7 q 67 183 67 93 z "},"़":{"ha":0,"x_min":-342,"x_max":-225,"o":"m -283 -185 q -312 -185 -283 -185 q -342 -126 -342 -185 q -283 -68 -342 -68 q -225 -126 -225 -68 q -283 -185 -225 -185 z "},"ऽ":{"ha":583,"x_min":74,"x_max":532,"o":"m 532 278 l 532 189 q 308 -7 532 -7 l 301 -7 q 76 189 76 -7 l 76 281 l 167 281 l 167 188 q 195 106 167 135 q 303 76 224 76 l 307 76 q 414 106 386 76 q 442 188 442 135 l 442 279 q 428 351 442 322 q 372 401 414 379 l 186 507 q 99 585 125 540 q 74 696 74 631 l 74 733 q 119 860 74 818 q 274 903 165 903 l 500 903 l 500 818 l 278 818 q 185 797 207 818 q 164 731 164 775 l 164 697 q 178 627 164 656 q 233 576 193 599 l 419 472 q 508 391 483 436 q 532 278 532 346 z "},"ा":{"ha":290,"x_min":-33,"x_max":324,"o":"m 100 825 l -33 825 l -33 903 l 324 903 l 324 825 l 190 825 l 190 0 l 100 0 l 100 825 z "},"ि":{"ha":290,"x_min":-33,"x_max":774,"o":"m 101 903 l 101 957 q 183 1160 101 1099 q 415 1221 265 1221 q 597 1201 507 1221 q 731 1161 686 1181 l 774 1142 l 774 1060 q 605 1114 708 1090 q 400 1138 501 1138 q 192 957 192 1138 l 192 903 l 324 903 l 324 825 l 190 825 l 190 0 l 100 0 l 100 825 l -33 825 l -33 903 l 101 903 z "},"ी":{"ha":290,"x_min":-179,"x_max":324,"o":"m 100 903 l 100 1051 q 79 1117 100 1096 q 5 1139 58 1139 q -69 1117 -49 1139 q -90 1051 -90 1096 l -90 993 l -179 993 l -179 1051 q 6 1222 -179 1222 q 190 1051 190 1222 l 190 903 l 324 903 l 324 825 l 190 825 l 190 0 l 100 0 l 100 825 l -33 825 l -33 903 l 100 903 z "},"ु":{"ha":0,"x_min":-539,"x_max":47,"o":"m -225 -228 l -126 -228 q -54 -210 -71 -228 q -37 -149 -37 -192 q -56 -87 -37 -107 q -118 -68 -75 -68 q -262 -87 -196 -68 l -262 -10 q -119 10 -204 10 q 6 -28 -35 10 q 47 -148 47 -65 q 9 -268 47 -231 q -118 -306 -29 -306 l -231 -306 q -400 -229 -331 -306 l -539 -85 l -424 -85 l -337 -174 q -225 -228 -283 -228 z "},"ू":{"ha":0,"x_min":-339,"x_max":244,"o":"m -49 -212 l -49 -290 q -185 -308 -111 -308 q -339 -151 -339 -308 q -301 -31 -339 -68 q -172 6 -262 6 l -125 6 q -12 -15 -54 6 q 69 -85 31 -36 l 244 -300 l 136 -300 l 13 -149 q -51 -87 -25 -103 q -129 -71 -78 -71 l -164 -71 q -236 -89 -219 -71 q -253 -149 -253 -107 q -235 -211 -253 -192 q -167 -231 -218 -231 q -56 -214 -104 -231 q -49 -212 -50 -212 z "},"ृ":{"ha":0,"x_min":-401,"x_max":-97,"o":"m -103 -50 q -209 -37 -154 -37 q -289 -56 -264 -37 q -314 -137 -314 -74 q -288 -221 -314 -200 q -224 -242 -262 -242 q -97 -229 -153 -242 l -97 -310 q -212 -322 -149 -322 q -401 -136 -401 -322 q -353 3 -401 -39 q -212 44 -306 44 q -103 32 -156 44 l -103 -50 z "},"ॄ":{"ha":0,"x_min":-401,"x_max":-87,"o":"m -310 -379 l -310 -385 q -288 -449 -310 -433 q -197 -465 -267 -465 q -87 -457 -128 -465 l -87 -537 q -221 -547 -140 -547 q -400 -381 -400 -547 q -351 -251 -400 -293 q -401 -126 -401 -214 q -219 44 -401 44 q -104 32 -192 44 l -104 -46 q -126 -42 -107 -46 q -217 -35 -169 -35 q -288 -56 -265 -35 q -311 -125 -311 -76 l -311 -131 q -288 -194 -310 -178 q -221 -210 -267 -210 l -129 -210 l -129 -290 l -212 -290 q -287 -311 -265 -290 q -310 -379 -310 -332 z "},"ॅ":{"ha":0,"x_min":-368,"x_max":76,"o":"m -10 1163 l 76 1163 l 76 1160 q 22 1031 76 1069 q -146 992 -33 992 q -313 1031 -258 992 q -368 1160 -368 1069 l -368 1163 l -282 1163 q -251 1091 -282 1111 q -146 1071 -221 1071 q -40 1091 -71 1071 q -10 1163 -10 1111 z "},"ॆ":{"ha":0,"x_min":-542,"x_max":-100,"o":"m -186 903 q -216 992 -186 961 q -322 1024 -246 1024 q -490 1072 -437 1024 q -542 1221 -542 1121 l -454 1221 q -426 1131 -454 1161 q -319 1100 -397 1100 q -153 1051 -206 1100 q -100 903 -100 1001 l -186 903 z "},"े":{"ha":0,"x_min":-443,"x_max":-100,"o":"m -443 1218 q -383 1221 -418 1221 q -247 1131 -306 1221 l -100 903 l -194 903 l -314 1088 q -407 1142 -350 1142 q -443 1139 -421 1142 l -443 1218 z "},"ै":{"ha":0,"x_min":-572,"x_max":-100,"o":"m -293 1221 q -165 1117 -197 1221 l -100 903 l -182 903 l -236 1076 q -260 1126 -247 1111 q -292 1142 -272 1142 q -332 1139 -312 1142 l -332 1218 q -293 1221 -310 1221 m -572 1218 q -515 1221 -550 1221 q -378 1126 -439 1221 l -229 903 l -322 903 l -443 1088 q -536 1142 -479 1142 q -572 1139 -553 1142 l -572 1218 z "},"ॉ":{"ha":290,"x_min":-75,"x_max":369,"o":"m 283 1168 l 369 1168 l 369 1165 q 315 1035 369 1072 q 148 997 261 997 q -20 1035 35 997 q -75 1165 -75 1074 l -75 1168 l 11 1168 q 42 1097 11 1117 q 147 1076 72 1076 q 252 1097 221 1076 q 283 1168 283 1117 m 100 825 l -33 825 l -33 903 l 324 903 l 324 825 l 190 825 l 190 0 l 100 0 l 100 825 z "},"ॊ":{"ha":290,"x_min":-253,"x_max":324,"o":"m 100 825 l -33 825 l -33 903 l 101 903 q 72 992 101 961 q -33 1024 43 1024 q -201 1072 -149 1024 q -253 1221 -253 1121 l -167 1221 q -138 1131 -167 1161 q -32 1100 -110 1100 q 135 1051 82 1100 q 188 903 188 1001 l 324 903 l 324 825 l 190 825 l 190 0 l 100 0 l 100 825 z "},"ो":{"ha":290,"x_min":-154,"x_max":324,"o":"m 324 903 l 324 825 l 190 825 l 190 0 l 100 0 l 100 825 l -33 825 l -33 903 l 94 903 l -25 1088 q -118 1142 -61 1142 q -154 1139 -132 1142 l -154 1218 q -94 1221 -129 1221 q 42 1131 -17 1221 l 189 903 l 324 903 z "},"ौ":{"ha":290,"x_min":-286,"x_max":324,"o":"m 324 903 l 324 825 l 190 825 l 190 0 l 100 0 l 100 825 l -94 825 l -94 903 l -35 903 l -157 1088 q -250 1142 -193 1142 q -286 1139 -267 1142 l -286 1218 q -228 1221 -264 1221 q -92 1126 -156 1221 l 57 903 l 104 903 l 51 1076 q 27 1126 40 1111 q -6 1142 14 1142 q -46 1139 -26 1142 l -46 1218 q -6 1221 -24 1221 q 122 1117 90 1221 l 186 903 l 324 903 z "},"्":{"ha":0,"x_min":-185,"x_max":46,"o":"m 46 -289 l -53 -289 l -185 -81 l -101 -81 l 46 -289 z "},"ॐ":{"ha":1072,"x_min":67,"x_max":1010,"o":"m 606 346 l 606 728 q 808 910 606 910 q 1010 728 1010 910 l 1010 208 q 950 48 1010 103 q 756 -7 890 -7 q 639 4 700 -7 l 639 88 q 754 78 697 78 q 886 111 851 78 q 921 213 921 144 l 921 726 q 897 799 921 774 q 808 825 872 825 q 719 799 743 825 q 694 726 694 774 l 694 304 q 685 275 694 283 q 654 267 676 267 l 443 267 l 443 181 q 387 42 443 92 q 235 -7 331 -7 q 67 14 140 -7 l 67 99 q 221 76 146 76 q 354 183 351 76 l 354 308 q 331 388 354 360 q 239 417 308 415 l 154 417 l 154 500 l 239 500 q 331 528 307 501 q 354 607 354 556 l 354 719 q 221 826 354 826 q 81 801 153 826 l 81 889 q 222 910 146 910 q 388 860 332 910 q 443 721 443 810 l 443 607 q 371 458 443 489 q 442 346 432 432 l 606 346 m 751 1128 l 751 1125 q 696 996 751 1035 q 528 957 640 957 q 360 996 415 957 q 306 1125 306 1035 l 306 1128 l 393 1128 q 424 1056 393 1076 q 528 1036 454 1036 q 633 1056 603 1036 q 664 1128 664 1075 l 751 1128 m 528 1236 q 557 1236 528 1236 q 585 1179 585 1236 q 528 1122 585 1122 q 472 1179 472 1122 q 528 1236 472 1236 z "},"॑":{"ha":0,"x_min":-190,"x_max":-100,"o":"m -190 1296 l -100 1296 l -100 968 l -190 968 l -190 1296 z "},"॒":{"ha":0,"x_min":-567,"x_max":-25,"o":"m -25 -189 l -567 -189 l -567 -110 l -25 -110 l -25 -189 z "},"॓":{"ha":468,"x_min":90,"x_max":333,"o":"m 90 1296 l 186 1296 l 333 968 l 238 968 l 90 1296 z "},"॔":{"ha":457,"x_min":90,"x_max":333,"o":"m 238 1296 l 333 1296 l 186 968 l 90 968 l 238 1296 z "},"क़":{"ha":814,"x_min":-28,"x_max":847,"o":"m 159 -78 q 130 -78 159 -78 q 101 -19 101 -78 q 159 39 101 39 q 217 -19 217 39 q 159 -78 217 -78 m 578 101 l 546 103 l 546 188 q 571 186 554 186 q 643 210 624 186 q 663 279 663 235 l 663 526 q 549 621 663 621 q 457 608 500 621 l 457 0 l 368 0 l 368 108 q 265 94 313 94 q 69 268 69 94 l 69 526 q 265 700 69 700 q 307 696 290 700 l 307 617 q 271 619 285 619 q 157 525 157 619 l 157 269 q 271 175 157 175 q 368 188 318 175 l 368 825 l -28 825 l -28 903 l 847 903 l 847 825 l 457 825 l 457 688 q 554 701 496 701 q 750 528 750 701 l 750 275 q 708 149 750 196 q 578 101 667 101 z "},"ख़":{"ha":1015,"x_min":-33,"x_max":1049,"o":"m 363 728 q 344 825 363 781 l -33 825 l -33 903 l 1049 903 l 1049 825 l 915 825 l 915 0 l 826 0 l 826 189 q 718 176 785 176 q 574 220 619 176 q 529 350 529 264 l 529 522 q 574 653 529 610 q 717 697 618 697 q 826 685 771 697 l 826 825 l 433 825 q 449 728 449 792 l 449 560 q 247 358 449 358 q 154 368 200 358 l 154 246 q 381 78 154 78 q 572 103 486 78 l 572 17 q 360 -6 486 -6 q 149 55 233 -6 q 65 244 65 115 l 65 614 l 154 614 l 154 449 q 244 440 204 440 q 363 560 363 440 l 363 728 m 826 604 q 719 617 776 617 q 638 593 661 617 q 615 522 615 569 l 615 350 q 638 279 615 303 q 724 256 661 256 q 826 268 786 256 l 826 604 m -8 -90 q -8 -61 -8 -90 q 50 -32 -8 -32 q 108 -90 108 -32 q 50 -149 108 -149 q -8 -90 -8 -149 z "},"ग़":{"ha":668,"x_min":-31,"x_max":703,"o":"m 43 354 l 82 351 q 179 447 179 351 l 179 825 l -31 825 l -31 903 l 703 903 l 703 825 l 569 825 l 569 0 l 479 0 l 479 825 l 269 825 l 269 443 q 225 315 269 363 q 93 267 181 267 q 43 271 56 267 l 43 354 m 88 86 q 88 115 88 86 q 146 144 88 144 q 204 86 204 144 q 146 28 204 28 q 88 86 88 28 z "},"ज़":{"ha":765,"x_min":-33,"x_max":799,"o":"m 300 492 q 288 588 300 550 l 135 588 l 135 669 l 575 669 l 575 825 l -33 825 l -33 903 l 799 903 l 799 825 l 665 825 l 665 0 l 575 0 l 575 590 l 379 590 q 390 494 390 557 l 390 249 q 335 108 390 157 q 175 58 279 58 q 46 75 108 58 l 46 158 q 174 142 113 142 q 300 250 300 142 l 300 492 m 113 -66 q 113 -95 113 -66 q 54 -124 113 -124 q -4 -66 -4 -124 q 54 -8 -4 -8 q 113 -66 113 -8 z "},"ड़":{"ha":572,"x_min":-33,"x_max":606,"o":"m 506 222 l 506 172 q 268 -8 506 -8 q 79 11 165 -8 l 79 99 q 268 75 163 75 q 415 174 415 75 l 415 221 q 390 290 415 267 q 300 313 365 313 l 274 313 q 71 481 71 313 l 71 533 q 274 701 71 701 l 375 701 l 375 825 l -33 825 l -33 903 l 606 903 l 606 825 l 465 825 l 465 619 l 274 619 q 185 597 210 619 q 161 531 161 575 l 161 483 q 186 416 161 439 q 274 393 211 393 l 300 393 q 506 222 506 393 m 288 -239 q 259 -239 288 -239 q 231 -181 231 -239 q 288 -124 231 -124 q 346 -181 346 -124 q 288 -239 346 -239 z "},"ढ़":{"ha":565,"x_min":-33,"x_max":599,"o":"m 289 -240 q 260 -240 289 -240 q 231 -182 231 -240 q 289 -124 231 -124 q 347 -182 347 -124 q 289 -240 347 -240 m 329 336 q 271 325 296 336 l 271 407 q 339 418 299 418 q 458 375 414 418 q 503 246 503 332 l 503 181 q 290 -7 503 -7 q 76 182 76 -7 l 76 524 q 281 699 76 699 l 368 699 l 368 825 l -33 825 l -33 903 l 599 903 l 599 825 l 457 825 l 457 615 l 281 615 q 190 592 215 615 q 165 522 165 568 l 165 185 q 193 105 165 133 q 290 76 221 76 q 387 104 360 76 q 414 183 414 132 l 414 244 q 329 336 414 336 z "},"फ़":{"ha":838,"x_min":-35,"x_max":871,"o":"m 386 825 l 167 825 l 167 344 q 290 246 167 246 q 386 258 332 246 l 386 825 m 683 518 q 582 611 683 611 q 475 596 531 611 l 475 0 l 386 0 l 386 178 q 283 164 321 164 q 128 210 181 164 q 76 343 76 257 l 76 825 l -35 825 l -35 903 l 871 903 l 871 825 l 475 825 l 475 679 q 579 694 524 694 q 724 648 675 694 q 774 519 774 601 l 774 264 q 728 136 774 182 q 594 90 683 90 l 574 92 l 569 92 l 569 175 q 658 197 633 174 q 683 267 683 219 l 683 518 m 110 -46 q 82 -46 110 -46 q 53 13 53 -46 q 110 71 53 71 q 168 13 168 71 q 110 -46 168 -46 z "},"य़":{"ha":694,"x_min":-33,"x_max":728,"o":"m 257 728 q 246 825 257 783 l -33 825 l -33 903 l 728 903 l 728 825 l 594 825 l 594 0 l 504 0 l 504 135 q 351 118 440 118 q 76 357 76 118 l 76 533 l 106 533 q 225 554 193 533 q 257 635 257 575 l 257 728 m 346 728 l 346 626 q 167 461 346 464 l 167 363 q 211 242 167 281 q 342 203 256 203 q 504 218 428 203 l 504 825 l 336 825 q 346 728 346 792 m 124 -62 q 95 -62 124 -62 q 67 -4 67 -62 q 124 54 67 54 q 182 -4 182 54 q 124 -62 182 -62 z "},"ॠ":{"ha":949,"x_min":-33,"x_max":982,"o":"m 685 499 l 585 500 l 524 500 l 524 0 l 436 0 l 436 164 q 439 353 436 333 l 439 354 q 394 303 435 347 q 169 65 365 269 l 50 65 l 433 463 l 433 499 q 292 607 433 607 q 181 578 213 607 q 149 490 149 549 l 149 408 l 60 408 l 60 493 q 285 692 60 692 q 433 646 394 692 l 433 825 l -33 825 l -33 903 l 982 903 l 982 825 l 524 825 l 524 585 l 654 583 l 686 583 q 783 609 754 583 q 811 688 811 635 l 811 700 l 899 700 l 899 349 l 835 349 q 758 327 781 349 q 735 249 735 306 q 850 157 735 157 l 878 157 l 878 78 l 831 78 q 758 62 781 78 q 735 -10 735 46 q 758 -83 735 -67 q 857 -99 782 -99 q 940 -97 932 -99 l 940 -175 q 835 -178 931 -178 q 692 -140 739 -178 q 646 -11 646 -101 q 701 119 646 79 q 646 250 646 161 q 686 376 646 339 q 813 417 726 414 l 813 542 q 685 499 772 499 z "},"ॡ":{"ha":860,"x_min":-33,"x_max":893,"o":"m 760 269 l 678 269 q 601 249 624 269 q 579 178 579 228 q 601 111 579 128 q 668 94 622 94 l 733 94 l 733 13 l 678 13 q 601 -8 624 13 q 579 -79 579 -29 q 601 -146 579 -129 q 694 -162 624 -162 q 775 -161 764 -162 l 775 -242 q 669 -244 758 -244 q 489 -79 489 -244 q 540 51 489 10 q 489 179 489 92 q 669 349 489 349 l 669 493 q 565 583 669 583 q 460 486 460 583 l 460 368 l 369 368 l 369 486 q 265 583 369 583 q 183 558 206 583 q 161 483 161 532 l 161 215 q 191 117 161 151 q 303 82 221 82 l 349 82 l 349 0 l 300 0 q 71 214 71 0 l 71 485 q 119 619 71 571 q 269 667 167 667 q 414 603 371 667 q 563 667 461 667 q 669 633 640 667 l 669 825 l -33 825 l -33 903 l 893 903 l 893 825 l 760 825 l 760 269 z "},"।":{"ha":396,"x_min":206,"x_max":296,"o":"m 206 0 l 206 903 l 296 903 l 296 0 l 206 0 z "},"॥":{"ha":619,"x_min":156,"x_max":519,"o":"m 429 0 l 429 903 l 519 903 l 519 0 l 429 0 m 156 0 l 156 903 l 244 903 l 244 0 l 156 0 z "},"०":{"ha":619,"x_min":82,"x_max":538,"o":"m 439 725 q 310 858 439 858 q 181 725 181 858 l 181 208 q 310 75 181 75 q 439 208 439 75 l 439 725 m 82 726 q 138 887 82 826 q 309 947 193 947 q 481 887 425 947 q 538 726 538 826 l 538 206 q 481 46 538 106 q 309 -14 425 -14 q 138 46 193 -14 q 82 206 82 106 l 82 726 z "},"१":{"ha":386,"x_min":15,"x_max":290,"o":"m 290 933 l 290 0 l 190 0 l 190 832 l 15 704 l 15 815 l 178 933 l 290 933 z "},"२":{"ha":557,"x_min":60,"x_max":494,"o":"m 246 940 q 492 743 492 940 l 492 663 q 467 538 490 585 q 383 450 443 490 l 276 374 q 183 293 207 326 q 160 197 160 260 l 160 92 l 494 92 l 494 0 l 60 0 l 60 201 q 96 340 60 289 q 208 442 132 390 l 319 521 q 378 582 363 549 q 393 671 393 615 l 393 738 q 363 821 393 793 q 241 849 332 849 q 75 819 150 849 l 75 915 q 246 940 147 940 z "},"३":{"ha":546,"x_min":36,"x_max":464,"o":"m 214 940 q 458 740 458 940 l 458 644 q 357 469 458 510 q 464 301 464 433 l 464 194 q 402 46 464 99 q 224 -7 340 -7 q 36 18 108 -7 l 36 115 q 208 83 118 83 q 331 113 297 83 q 365 199 365 142 l 365 292 q 235 422 365 422 l 139 422 l 139 513 l 235 513 q 332 547 304 513 q 360 646 360 581 l 360 735 q 328 820 360 790 q 207 850 296 850 q 54 826 118 850 l 54 921 q 214 940 117 940 z "},"४":{"ha":563,"x_min":14,"x_max":556,"o":"m 556 263 l 556 175 l 461 175 l 461 0 l 365 0 l 365 175 l 14 175 l 14 264 l 310 933 l 461 933 l 461 263 l 556 263 m 367 263 l 367 851 l 107 263 l 367 263 z "},"५":{"ha":582,"x_min":79,"x_max":508,"o":"m 86 933 l 486 933 l 486 842 l 183 842 l 183 547 q 299 554 236 554 q 508 346 508 554 l 508 193 q 446 46 508 99 q 257 -7 383 -7 q 79 21 168 -7 l 79 118 q 256 83 172 83 q 375 113 340 83 q 410 199 410 143 l 410 339 q 383 433 410 403 q 283 463 356 463 q 86 447 250 463 l 86 933 z "},"६":{"ha":601,"x_min":82,"x_max":538,"o":"m 439 379 q 318 494 439 494 q 181 461 239 494 l 181 207 q 310 74 181 74 q 439 207 439 74 l 439 379 m 82 721 q 142 880 82 819 q 317 940 203 940 q 504 915 432 940 l 504 821 q 332 849 432 849 q 181 715 181 849 l 181 553 q 335 583 242 583 q 483 532 428 583 q 538 383 538 481 l 538 206 q 481 46 538 106 q 309 -14 425 -14 q 138 46 193 -14 q 82 206 82 106 l 82 721 z "},"७":{"ha":457,"x_min":7,"x_max":424,"o":"m 7 933 l 424 933 l 424 854 l 332 564 q 272 339 290 429 q 254 136 254 249 l 254 0 l 154 0 l 154 140 q 173 347 154 254 q 233 571 192 439 l 319 843 l 7 843 l 7 933 z "},"८":{"ha":632,"x_min":82,"x_max":551,"o":"m 547 732 l 547 640 q 449 465 547 510 q 551 289 551 418 l 551 200 q 492 44 551 103 q 316 -14 433 -14 q 140 44 199 -14 q 82 200 82 101 l 82 289 q 183 465 82 418 q 85 640 85 510 l 85 732 q 142 889 85 831 q 317 947 200 947 q 490 889 433 947 q 547 732 547 831 m 183 732 l 183 639 q 317 506 183 506 q 450 639 450 506 l 450 732 q 317 860 450 860 q 183 732 183 860 m 453 201 l 453 290 q 316 424 453 424 q 179 290 179 424 l 179 201 q 316 74 179 74 q 453 201 453 74 z "},"९":{"ha":601,"x_min":64,"x_max":519,"o":"m 421 726 q 292 858 421 858 q 163 726 163 858 l 163 550 q 286 428 163 428 q 421 460 374 428 l 421 726 m 64 726 q 120 887 64 826 q 292 947 176 947 q 464 887 408 947 q 519 726 519 826 l 519 206 q 458 51 519 108 q 269 -7 396 -7 q 90 19 176 -7 l 90 115 q 268 83 175 83 q 421 211 421 83 l 421 368 q 271 339 367 339 q 119 393 175 339 q 64 544 64 447 l 64 726 z "},"॰":{"ha":514,"x_min":72,"x_max":450,"o":"m 260 585 q 228 585 260 585 q 174 553 196 585 q 153 460 153 521 q 174 369 153 400 q 260 339 196 339 q 347 370 324 339 q 369 461 369 401 q 347 553 369 521 q 260 585 324 585 m 260 264 q 72 463 72 264 q 260 663 72 663 q 405 608 360 663 q 450 463 450 554 q 260 264 450 264 z "},"ॲ":{"ha":781,"x_min":50,"x_max":858,"o":"m 772 1163 l 858 1163 l 858 1160 q 803 1031 858 1069 q 636 992 749 992 q 469 1031 524 992 q 414 1160 414 1069 l 414 1163 l 500 1163 q 531 1091 500 1111 q 636 1071 561 1071 q 742 1091 711 1071 q 772 1163 772 1111 m 590 375 l 590 903 l 814 903 l 814 825 l 681 825 l 681 0 l 590 0 l 590 296 l 428 296 l 428 236 q 372 97 428 147 q 221 47 315 47 q 50 68 126 47 l 50 153 q 206 131 132 131 q 338 238 338 131 l 338 338 q 314 417 338 389 q 222 444 290 444 l 139 444 l 139 529 l 222 529 q 314 556 290 529 q 338 635 338 583 l 338 719 q 206 826 338 826 q 65 801 138 826 l 65 889 q 207 910 131 910 q 372 860 317 910 q 428 721 428 810 l 428 635 q 356 488 428 515 q 426 375 417 461 l 590 375 z "},"ॽ":{"ha":603,"x_min":90,"x_max":531,"o":"m 90 592 l 90 721 q 143 868 90 813 q 311 924 196 924 q 478 868 426 924 q 531 721 531 813 l 531 474 q 332 271 531 276 l 332 0 l 244 0 l 244 353 l 311 353 q 415 387 389 353 q 440 476 440 421 l 440 719 q 414 807 440 774 q 311 840 388 840 q 208 806 235 840 q 181 719 181 772 l 181 592 l 90 592 z "},"​":{"ha":0,"x_min":0,"x_max":0,"o":""},"‌":{"ha":0,"x_min":-32,"x_max":33,"o":"m 33 -319 l -32 -319 l -32 1126 l 33 1126 l 33 -319 z "},"‍":{"ha":0,"x_min":-176,"x_max":179,"o":"m 33 -319 l -32 -319 l -32 882 l -128 781 l -174 826 l -44 956 l -176 1088 l -131 1133 l 1 1001 l 135 1133 l 179 1089 l 46 956 l 179 824 l 133 778 l 33 882 l 33 -319 z "},"–":{"ha":561,"x_min":56,"x_max":496,"o":"m 56 492 l 496 492 l 496 410 l 56 410 l 56 492 z "},"—":{"ha":882,"x_min":56,"x_max":810,"o":"m 56 492 l 810 492 l 810 410 l 56 410 l 56 492 z "},"‘":{"ha":221,"x_min":40,"x_max":181,"o":"m 88 713 q 40 758 40 713 q 71 868 40 793 q 128 990 101 943 l 181 990 l 125 713 l 88 713 z "},"’":{"ha":221,"x_min":40,"x_max":181,"o":"m 133 990 q 181 944 181 990 q 151 837 181 910 q 94 713 121 764 l 40 713 l 96 990 l 133 990 z "},"‚":{"ha":221,"x_min":40,"x_max":181,"o":"m 133 118 q 181 72 181 118 q 94 -161 181 7 l 40 -161 l 96 118 l 133 118 z "},"“":{"ha":376,"x_min":40,"x_max":336,"o":"m 88 713 q 40 758 40 713 q 71 868 40 793 q 128 990 101 943 l 176 990 l 121 713 l 88 713 m 247 713 q 200 758 200 713 q 230 866 200 793 q 286 990 260 939 l 336 990 l 281 713 l 247 713 z "},"”":{"ha":376,"x_min":40,"x_max":336,"o":"m 129 990 q 176 944 176 990 q 147 837 176 910 q 90 713 117 764 l 40 713 l 96 990 l 129 990 m 289 990 q 336 944 336 990 q 306 837 336 910 q 250 713 276 764 l 200 713 l 256 990 l 289 990 z "},"„":{"ha":376,"x_min":40,"x_max":336,"o":"m 129 118 q 176 72 176 118 q 90 -161 176 7 l 40 -161 l 96 118 l 129 118 m 289 118 q 336 72 336 118 q 250 -161 336 7 l 200 -161 l 256 118 l 289 118 z "},"†":{"ha":490,"x_min":67,"x_max":424,"o":"m 201 1081 l 290 1081 l 282 894 q 424 903 349 903 l 424 825 l 282 832 q 290 638 290 735 l 290 -40 l 201 -40 l 201 638 l 208 832 q 67 825 150 825 l 67 903 q 208 894 142 903 q 201 1081 201 994 z "},"‡":{"ha":490,"x_min":67,"x_max":424,"o":"m 201 1081 l 289 1081 l 282 894 q 424 903 342 903 l 424 825 l 282 832 q 282 210 286 522 q 424 217 342 217 l 424 139 l 282 146 q 289 -40 289 74 l 201 -40 l 208 146 q 67 139 149 139 l 67 217 l 208 210 q 208 832 204 522 q 67 825 149 825 l 67 903 q 208 894 139 903 q 201 1081 201 994 z "},"•":{"ha":374,"x_min":86,"x_max":288,"o":"m 187 351 q 136 351 187 351 q 86 452 86 351 q 187 553 86 553 q 288 452 288 553 q 187 351 288 351 z "},"…":{"ha":783,"x_min":82,"x_max":693,"o":"m 388 -1 q 358 -1 388 -1 q 329 57 329 -1 q 388 115 329 115 q 446 57 446 115 q 388 -1 446 -1 m 140 -1 q 111 -1 140 -1 q 82 57 82 -1 q 140 115 82 115 q 199 57 199 115 q 140 -1 199 -1 m 635 -1 q 606 -1 635 -1 q 576 57 576 -1 q 635 115 576 115 q 693 57 693 115 q 635 -1 693 -1 z "},"‰":{"ha":1149,"x_min":49,"x_max":1106,"o":"m 836 40 q 817 66 836 40 q 797 186 797 92 q 836 332 797 281 q 951 383 875 383 q 1067 332 1028 383 q 1106 186 1106 281 q 1067 40 1106 92 q 951 -12 1028 -12 q 836 40 875 -12 m 876 185 q 876 123 876 185 q 951 61 876 61 q 1026 185 1026 61 q 951 310 1026 310 q 876 185 876 310 m 469 40 q 450 66 469 40 q 431 186 431 92 q 469 332 431 281 q 585 383 508 383 q 700 332 661 383 q 739 186 739 281 q 700 40 739 92 q 585 -12 661 -12 q 469 40 508 -12 m 510 185 q 510 123 510 185 q 585 61 510 61 q 660 185 660 61 q 585 310 660 310 q 510 185 510 310 m 88 601 q 68 627 88 601 q 49 747 49 653 q 88 894 49 842 q 203 946 126 946 q 318 894 279 946 q 357 747 357 842 q 318 601 357 653 q 203 549 279 549 q 88 601 126 549 m 202 622 q 239 622 202 622 q 276 747 276 622 q 202 872 276 872 q 128 747 128 872 q 202 622 128 622 m 543 933 l 619 933 l 244 0 l 169 0 l 543 933 z "},"‹":{"ha":497,"x_min":100,"x_max":371,"o":"m 268 701 l 371 701 l 201 447 l 371 193 l 268 193 l 100 447 l 268 701 z "},"›":{"ha":475,"x_min":100,"x_max":371,"o":"m 100 701 l 203 701 l 371 447 l 203 193 l 100 193 l 269 447 l 100 701 z "},"⁄":{"ha":338,"x_min":-99,"x_max":438,"o":"m 364 933 l 438 933 l -25 0 l -99 0 l 364 933 z "},"⁴":{"ha":424,"x_min":19,"x_max":413,"o":"m 275 603 l 275 971 l 89 603 l 275 603 m 344 1028 l 344 603 l 413 603 l 413 538 l 344 538 l 344 401 l 275 401 l 275 538 l 19 538 l 19 604 l 235 1028 l 344 1028 z "},"€":{"ha":564,"x_min":19,"x_max":507,"o":"m 192 344 l 192 194 q 226 112 192 140 q 345 83 260 83 q 507 106 431 83 l 507 15 q 343 -7 438 -7 q 93 190 93 -7 l 93 344 l 19 344 l 19 418 l 93 418 l 93 531 l 19 531 l 19 603 l 93 603 l 93 743 q 343 940 93 940 q 504 918 424 940 l 504 826 q 340 850 422 850 q 225 822 258 850 q 192 738 192 793 l 192 603 l 406 603 l 406 531 l 192 531 l 192 418 l 406 418 l 406 344 l 192 344 z "},"₹":{"ha":633,"x_min":68,"x_max":575,"o":"m 575 903 l 575 825 l 403 825 q 453 724 453 792 l 453 688 l 575 688 l 575 614 l 453 614 l 453 589 q 400 432 453 479 q 222 385 347 385 l 172 385 l 463 0 l 356 0 l 68 385 l 68 465 l 221 465 q 337 493 307 465 q 367 590 367 521 l 367 614 l 69 614 l 69 688 l 367 688 l 367 725 q 336 797 367 769 q 240 825 306 825 l 69 825 l 69 903 l 575 903 z "},"ℓ":{"ha":522,"x_min":21,"x_max":479,"o":"m 211 174 q 234 104 211 125 q 305 83 257 83 q 399 99 353 83 l 399 8 q 296 -6 343 -6 q 114 171 114 -6 l 114 208 q 21 138 89 189 l 21 254 q 114 329 83 304 l 114 804 q 161 955 114 903 q 297 1007 208 1007 q 432 949 385 1007 q 479 785 479 892 q 211 290 479 531 l 211 174 m 211 804 l 211 421 q 382 785 382 603 q 297 914 382 914 q 211 804 211 914 z "},"™":{"ha":769,"x_min":104,"x_max":669,"o":"m 669 972 l 669 647 l 613 647 l 613 811 l 626 949 l 543 647 l 497 647 l 415 947 l 429 811 l 429 647 l 372 647 l 372 972 l 456 972 l 508 783 l 521 719 l 533 783 l 585 972 l 669 972 m 104 922 l 104 972 l 342 972 l 342 922 l 253 922 l 253 647 l 194 647 l 194 922 l 104 922 z "},"Ω":{"ha":667,"x_min":51,"x_max":615,"o":"m 97 726 q 157 886 97 825 q 333 947 217 947 q 510 886 450 947 q 569 726 569 825 l 569 215 q 515 88 569 121 l 615 88 l 615 0 l 385 0 l 385 88 q 471 208 471 99 l 471 725 q 333 857 471 857 q 196 725 196 857 l 196 208 q 282 88 196 99 l 282 0 l 51 0 l 51 88 l 153 88 q 97 215 97 121 l 97 726 z "},"℮":{"ha":926,"x_min":81,"x_max":851,"o":"m 667 656 q 473 710 590 710 q 278 647 356 710 l 278 417 l 667 417 l 667 656 m 851 390 l 850 357 l 278 357 l 278 108 q 474 47 364 47 q 660 87 583 47 q 775 199 736 126 l 828 168 q 483 -14 725 -14 q 191 95 301 -14 q 81 377 81 204 q 190 660 81 550 q 477 771 300 771 q 753 667 654 771 q 851 390 851 563 z "},"∂":{"ha":629,"x_min":89,"x_max":539,"o":"m 314 535 q 185 404 185 535 l 185 206 q 313 75 185 75 q 442 204 442 75 l 442 489 q 314 535 399 535 m 539 426 l 539 204 q 483 47 539 106 q 313 -12 426 -12 q 144 46 200 -12 q 89 203 89 104 l 89 406 q 141 560 89 503 q 300 617 193 617 q 422 575 378 617 q 215 933 371 778 l 340 933 q 475 719 411 856 q 539 426 539 582 z "},"∆":{"ha":651,"x_min":89,"x_max":571,"o":"m 385 933 l 571 0 l 89 0 l 275 933 l 385 933 m 329 803 l 192 88 l 467 88 l 329 803 z "},"∏":{"ha":660,"x_min":96,"x_max":564,"o":"m 96 933 l 564 933 l 564 0 l 464 0 l 464 844 l 194 844 l 194 0 l 96 0 l 96 933 z "},"∑":{"ha":531,"x_min":40,"x_max":485,"o":"m 40 933 l 485 933 l 485 846 l 146 846 l 318 467 l 146 86 l 485 86 l 485 0 l 40 0 l 40 85 l 214 467 l 40 849 l 40 933 z "},"−":{"ha":607,"x_min":56,"x_max":551,"o":"m 56 492 l 551 492 l 551 410 l 56 410 l 56 492 z "},"∕":{"ha":338,"x_min":-56,"x_max":393,"o":"m 318 933 l 393 933 l 19 0 l -56 0 l 318 933 z "},"∙":{"ha":210,"x_min":44,"x_max":165,"o":"m 105 403 q 75 403 105 403 q 44 466 44 403 q 105 529 44 529 q 165 466 165 529 q 105 403 165 403 z "},"√":{"ha":582,"x_min":47,"x_max":554,"o":"m 47 361 l 47 449 l 196 449 l 290 99 l 456 933 l 554 933 l 360 0 l 221 0 l 124 361 l 47 361 z "},"∞":{"ha":869,"x_min":64,"x_max":806,"o":"m 626 671 q 766 617 726 671 q 806 466 806 563 q 766 315 806 369 q 626 261 726 261 q 520 297 565 261 q 433 394 475 332 q 345 297 389 332 q 242 263 301 263 q 103 316 142 263 q 64 466 64 369 q 103 617 64 563 q 242 671 142 671 q 347 635 301 671 q 433 536 392 599 q 522 635 476 600 q 626 671 567 671 m 156 403 q 158 392 156 403 q 181 364 160 381 q 244 347 203 347 q 317 377 285 347 q 388 465 350 407 q 318 553 350 524 q 249 583 286 583 q 192 575 213 583 q 164 549 172 567 q 151 474 151 522 q 156 403 151 425 m 481 465 q 551 377 518 407 q 620 347 583 347 q 676 356 657 347 q 706 382 696 364 q 718 467 718 408 q 701 554 718 525 q 633 583 683 583 q 551 553 583 583 q 481 465 518 524 z "},"∫":{"ha":379,"x_min":24,"x_max":325,"o":"m 125 932 q 176 1074 125 1025 q 325 1121 228 1124 l 325 1033 q 224 933 224 1033 l 224 1 q 172 -141 224 -92 q 24 -187 121 -190 l 24 -101 q 125 0 125 -101 l 125 932 z "},"≈":{"ha":644,"x_min":58,"x_max":586,"o":"m 586 607 q 556 517 586 550 q 381 500 497 456 l 257 553 q 169 564 206 579 q 143 492 133 549 l 63 492 q 58 533 58 511 q 90 622 58 589 q 265 639 149 683 l 388 586 q 478 574 443 558 q 503 647 513 589 l 583 647 q 586 607 586 629 m 586 397 q 556 307 586 340 q 381 290 497 246 l 257 343 q 169 354 206 369 q 143 282 133 339 l 63 282 q 58 324 58 301 q 90 413 58 379 q 265 429 149 474 l 388 376 q 478 364 443 349 q 503 438 513 379 l 583 438 q 586 397 586 419 z "},"≠":{"ha":625,"x_min":64,"x_max":560,"o":"m 560 533 l 390 533 l 319 367 l 560 367 l 560 285 l 285 285 l 228 150 l 149 150 l 206 285 l 64 285 l 64 367 l 240 367 l 311 533 l 64 533 l 64 615 l 346 615 l 404 754 l 483 754 l 425 615 l 560 615 l 560 533 z "},"≤":{"ha":632,"x_min":63,"x_max":558,"o":"m 558 724 l 558 635 l 140 476 l 558 319 l 558 231 l 63 424 l 63 529 l 558 724 m 63 117 l 63 199 l 558 199 l 558 117 l 63 117 z "},"≥":{"ha":632,"x_min":74,"x_max":569,"o":"m 74 724 l 569 529 l 569 424 l 74 231 l 74 319 l 492 476 l 74 635 l 74 724 m 74 117 l 74 199 l 569 199 l 569 117 l 74 117 z "},"◊":{"ha":583,"x_min":49,"x_max":536,"o":"m 436 394 l 293 731 l 149 394 l 293 58 l 436 394 m 225 790 l 361 790 l 536 394 l 361 0 l 225 0 l 49 394 l 225 790 z "},"◌":{"ha":917,"x_min":61,"x_max":856,"o":"m 374 733 q 366 742 374 733 q 357 778 357 750 q 374 822 357 806 q 418 839 392 839 q 462 822 444 839 q 479 778 479 806 q 462 733 479 750 q 418 717 444 717 q 374 733 392 717 m 594 696 q 581 696 594 696 q 550 714 568 696 q 532 758 532 732 q 549 801 532 783 q 594 819 567 819 q 638 802 621 819 q 654 758 654 785 q 637 714 654 732 q 594 696 619 696 m 681 619 q 673 627 681 619 q 664 663 664 636 q 681 707 664 689 q 725 725 699 725 q 769 708 751 725 q 786 663 786 690 q 769 619 786 636 q 725 601 751 601 q 681 619 699 601 m 750 455 q 742 464 750 455 q 733 499 733 472 q 750 542 733 525 q 794 560 767 560 q 838 542 821 560 q 856 499 856 525 q 838 455 856 472 q 794 438 821 438 q 750 455 767 438 m 738 269 q 728 277 738 269 q 719 313 719 286 q 738 357 719 339 q 781 375 756 375 q 824 357 807 375 q 842 313 842 339 q 824 269 842 286 q 781 251 807 251 q 738 269 756 251 m 635 133 q 627 141 635 133 q 618 176 618 150 q 635 220 618 203 q 679 238 653 238 q 724 220 706 238 q 742 176 742 203 q 724 133 742 150 q 679 115 706 115 q 635 133 653 115 m 467 58 q 458 67 467 58 q 450 103 450 75 q 467 147 450 131 q 511 164 483 164 q 556 147 539 164 q 574 103 574 129 q 556 59 574 76 q 511 42 539 42 q 467 58 483 42 m 336 61 q 323 61 336 61 q 292 79 310 61 q 274 124 274 97 q 292 168 274 150 q 336 186 310 186 q 380 168 363 186 q 397 124 397 150 q 380 79 397 97 q 336 61 363 61 m 150 185 q 142 194 150 185 q 133 229 133 203 q 151 273 133 256 q 194 290 168 290 q 238 273 221 290 q 256 229 256 256 q 238 185 256 203 q 194 168 221 168 q 150 185 167 168 m 78 347 q 70 356 78 347 q 61 390 61 364 q 78 435 61 417 q 122 453 96 453 q 166 435 149 453 q 183 391 183 418 q 166 347 183 364 q 122 331 149 331 q 78 347 96 331 m 97 522 q 88 530 97 522 q 79 565 79 539 q 97 609 79 592 q 142 626 115 626 q 186 609 168 626 q 204 565 204 592 q 186 522 204 539 q 142 504 168 504 q 97 522 115 504 m 254 656 q 241 656 254 656 q 210 673 228 656 q 193 717 193 690 q 210 762 193 744 q 254 779 228 779 q 298 762 281 779 q 315 717 315 744 q 298 673 315 690 q 254 656 281 656 z "},"":{"ha":486,"x_min":186,"x_max":299,"o":"m 261 -85 q 299 -120 299 -85 q 233 -254 299 -156 l 186 -254 l 222 -85 l 261 -85 z "},"ﬁ":{"ha":663,"x_min":46,"x_max":568,"o":"m 568 790 l 568 0 l 468 0 l 468 706 l 224 706 l 224 0 l 125 0 l 125 706 l 46 706 l 46 790 l 125 790 l 125 828 q 364 1021 125 1021 q 539 1001 456 1021 l 539 917 q 374 938 456 938 q 258 912 292 938 q 224 829 224 886 l 224 790 l 568 790 z "},"ﬂ":{"ha":663,"x_min":46,"x_max":568,"o":"m 568 1000 l 568 0 l 469 0 l 469 928 q 351 938 414 938 q 256 912 288 938 q 224 829 224 886 l 224 790 l 361 790 l 361 706 l 224 706 l 224 0 l 125 0 l 125 706 l 46 706 l 46 790 l 125 790 l 125 828 q 360 1021 125 1021 q 525 1000 444 1021 l 568 1000 z "}}}
